{
.appVersion = "3414";
.formatVersion = 3;
classes = (
{
automatic = 1;
code = "A Aacute Abreve Acircumflex Adieresis Agrave Amacron Aogonek Aring Atilde AE B C Cacute Ccaron Ccedilla D Dcaron Dcroat Eth E Eacute Ecaron Ecircumflex Edieresis Edotaccent Egrave Emacron Eogonek Schwa F G Gbreve Gcommaaccent Gdotaccent H Hbar I IJ Iacute Icircumflex Idieresis Idotaccent Igrave Imacron Iogonek J Jacute K Kcommaaccent L Lacute Lcaron Lcommaaccent Lslash M N Nacute Ncaron Ncommaaccent Ntilde O Oacute Ocircumflex Odieresis Ograve Ohungarumlaut Omacron Oslash Otilde OE P Thorn Q R Racute Rcaron Rcommaaccent S Sacute Scaron Scedilla Scommaaccent Germandbls T Tcaron Tcedilla Tcommaaccent U Uacute Ucircumflex Udieresis Ugrave Uhungarumlaut Umacron Uogonek Uring V W Wacute Wcircumflex Wdieresis Wgrave X Y Yacute Ycircumflex Ydieresis Ygrave Z Zacute Zcaron Zdotaccent T_h";
name = Uppercase;
}
);
customParameters = (
{
name = "Use Typo Metrics";
value = 1;
}
);
date = "2024-10-03 08:41:39 +0000";
familyName = Nuisibles;
featurePrefixes = (
{
automatic = 1;
code = "languagesystem DFLT dflt;

languagesystem latn dflt;
languagesystem latn AZE;
languagesystem latn CRT;
languagesystem latn KAZ;
languagesystem latn TAT;
languagesystem latn TRK;
languagesystem latn ROM;
languagesystem latn MOL;
languagesystem latn NLD;
";
name = Languagesystems;
}
);
features = (
{
automatic = 1;
code = "feature locl;
feature lnum;
feature onum;
feature case;
feature ss01;
feature ss02;
feature ss03;
feature ss04;
";
tag = aalt;
},
{
automatic = 1;
code = "lookup ccmp_DFLT_1 {
	@CombiningTopAccents = [acutecomb brevecomb caroncomb circumflexcomb commaturnedabovecomb dieresiscomb dotaccentcomb gravecomb hungarumlautcomb macroncomb ringcomb tildecomb];
	lookupflag UseMarkFilteringSet @CombiningTopAccents;
	sub i' @CombiningTopAccents by idotless;
	sub j' @CombiningTopAccents by jdotless;
} ccmp_DFLT_1;

lookup ccmp_Other_1 {
	lookupflag 0;

glyphs = (
{
glyphname = A;
lastChange = "2025-05-28 11:40:26 +0000";
layers = (
{
anchors = (
{
name = bottom;
pos = (321,0);
},
{
name = ogonek;
pos = (598,3);
},
{
name = top;
pos = (437,680);
}
);
background = {
shapes = (
{
closed = 1;
nodes = (
(418,686,o),
(400,674,o),
(383,654,cs),
(339,603,o),
(261,475,o),
(196,351,cs),
(126,217,o),
(51,100,o),
(25,78,cs),
(-19,41,o),
(-52,36,o),
(-52,19,cs),
(-52,-4,o),
(0,0,o),
(70,0,cs),
(188,0,o),
(198,2,o),
(198,18,cs),
(198,41,o),
(135,37,o),
(135,97,cs),
(135,116,o),
(143,144,o),
(164,182,cs),
(184,218,o),
(197,219,o),
(276,219,cs),
(393,219,o),
(410,218,o),
(413,176,cs),
(413,146,ls),
(413,88,o),
(397,70,o),
(370,55,cs),
(352,45,o),
(329,37,o),
(329,21,cs),
(329,3,o),
(348,3,o),
(475,3,cs),
(599,3,o),
(614,5,o),
(614,21,cs),
(614,29,o),
(608,35,o),
(587,45,cs),
(562,57,o),
(540,73,o),
(529,142,cs),
(518,211,o),
(496,576,o),
(487,654,cs),
(484,680,o),
(471,686,o),
(442,686,cs)
);
},
{
closed = 1;
nodes = (
(411,265,o),
(395,266,o),
(286,266,cs),
(239,266,o),
(221,266,o),
(221,287,cs),
(221,289,o),
(222,293,o),
(223,296,c),
(263,369,ls),
(342,513,o),
(357,548,o),
(376,548,cs),
(390,548,o),
(393,532,o),
(401,436,cs),
(404,403,o),
(407,347,o),
(409,292,cs)
);
}
);
};
layerId = m01;
shapes = (
{
closed = 1;
nodes = (
(418,686,o),
(400,674,o),
(383,654,cs),
(339,603,o),
(261,475,o),
(196,351,cs),
(126,217,o),
(51,98,o),
(25,76,cs),
(-19,39,o),
(-52,34,o),
(-52,17,cs),
(-52,-6,o),
(0,-2,o),
(70,-2,cs),
(188,-2,o),
(198,0,o),
(198,16,cs),
(198,39,o),
(135,35,o),
(135,95,cs),
(135,114,o),
(143,144,o),
(164,182,cs),
(184,218,o),
(197,219,o),
(276,219,cs),
(393,219,o),
(413,218,o),
(413,176,cs),
(413,146,ls),
(413,88,o),
(397,65,o),
(370,50,cs),
(352,40,o),
(329,32,o),
(329,16,cs),
(329,-2,o),
(348,-2,o),
(475,-2,cs),
(599,-2,o),
(614,0,o),
(614,16,cs),
(614,24,o),
(608,30,o),
(587,40,cs),
(562,52,o),
(540,73,o),
(529,142,cs),
(518,211,o),
(496,576,o),
(487,654,cs),
(484,680,o),
(471,686,o),
(442,686,cs)
);
},
{
closed = 1;
nodes = (
(411,267,o),
(405,266,o),
(286,266,cs),
(239,266,o),
(222,266,o),
(222,283,cs),
(222,302,o),
(249,343,o),
(263,369,cs),
(342,513,o),
(357,548,o),
(376,548,cs),
(390,548,o),
(396,517,o),
(401,436,cs),
(409,298,ls)
);
}
);
width = 666;
}
);
metricLeft = "=|V";
metricRight = "=|V";
unicode = 65;
},
{
glyphname = Aogonek;
lastChange = "2025-05-28 11:40:26 +0000";
layers = (
{
anchors = (
{
name = bottom;
pos = (320,0);
},
{
name = ogonek;
pos = (596,0);
},
{
name = top;
pos = (436,680);
}
);
background = {
shapes = (
{
closed = 1;
nodes = (
(417,686,o),
(399,674,o),
(382,654,cs),
(338,603,o),
(260,475,o),
(195,351,cs),
(125,217,o),
(50,98,o),
(24,76,cs),
(-20,39,o),
(-53,34,o),
(-53,17,cs),
(-53,-6,o),
(-1,-2,o),
(69,-2,cs),
(187,-2,o),
(197,0,o),
(197,16,cs),
(197,39,o),
(134,35,o),
(134,95,cs),
(134,114,o),
(142,144,o),
(163,182,cs),
(183,218,o),
(196,219,o),
(275,219,cs),
(392,219,o),
(412,218,o),
(412,176,cs),
(412,146,ls),
(412,88,o),
(396,65,o),
(369,50,cs),
(351,40,o),
(328,32,o),
(328,16,cs),
(328,-2,o),
(347,-2,o),
(474,-2,cs),
(531,-2,l),
(498,-22,o),
(446,-68,o),
(446,-123,cs),
(446,-180,o),
(482,-222,o),
(553,-222,cs),
(636,-222,o),
(682,-164,o),
(682,-127,cs),
(682,-113,o),
(675,-106,o),
(663,-106,cs),
(641,-106,o),
(611,-141,o),
(568,-141,cs),
(541,-141,o),
(520,-126,o),
(520,-97,cs),
(520,-60,o),
(553,-23,o),
(600,0,cs),
(606,3,o),
(609,5,o),
(611,8,cs),
(613,11,o),
(613,13,o),
(613,16,cs),
(613,24,o),
(607,30,o),
(586,40,cs),
(561,52,o),
(539,73,o),
(528,142,cs),
(517,211,o),
(495,576,o),
(486,654,cs),
(483,680,o),
(470,686,o),
(441,686,cs)
);
},
{
closed = 1;
nodes = (
(410,267,o),
(404,266,o),
(285,266,cs),
(238,266,o),
(221,266,o),
(221,283,cs),
(221,302,o),
(248,343,o),
(262,369,cs),
(341,513,o),
(356,548,o),
(375,548,cs),
(389,548,o),
(395,517,o),
(400,436,cs),
(408,298,ls)
);
}
);
};
layerId = m01;
shapes = (
{
closed = 1;
nodes = (
(417,686,o),
(399,674,o),
(382,654,cs),
(338,603,o),
(260,475,o),
(195,351,cs),
(125,217,o),
(50,98,o),
(24,76,cs),
(-20,39,o),
(-53,34,o),
(-53,17,cs),
(-53,-6,o),
(-1,-2,o),
(69,-2,cs),
(187,-2,o),
(197,0,o),
(197,16,cs),
(197,39,o),
(134,35,o),
(134,95,cs),
(134,114,o),
(142,144,o),
(163,182,cs),
(183,218,o),
(196,219,o),
(275,219,cs),
(392,219,o),
(412,218,o),
(412,176,cs),
(412,146,ls),
(412,88,o),
(396,65,o),
(369,50,cs),
(351,40,o),
(328,32,o),
(328,16,cs),
(328,-2,o),
(347,-2,o),
(455,-2,cs),
(474,-2,o),
(499,0,o),
(499,-14,cs),
(499,-34,o),
(446,-64,o),
(446,-126,cs),
(446,-180,o),
(490,-222,o),
(553,-222,cs),
(636,-222,o),
(682,-164,o),
(682,-127,cs),
(682,-113,o),
(675,-106,o),
(663,-106,cs),
(641,-106,o),
(611,-141,o),
(568,-141,cs),
(541,-141,o),
(520,-126,o),
(520,-97,cs),
(520,-60,o),
(553,-23,o),
(600,0,cs),
(608,4,o),
(613,8,o),
(613,16,cs),
(613,24,o),
(607,30,o),
(586,40,cs),
(561,52,o),
(539,73,o),
(528,142,cs),
(517,211,o),
(495,576,o),
(486,654,cs),
(483,680,o),
(470,686,o),
(441,686,cs)
);
},
{
closed = 1;
nodes = (
(410,267,o),
(404,266,o),
(285,266,cs),
(238,266,o),
(221,266,o),
(221,283,cs),
(221,302,o),
(248,343,o),
(262,369,cs),
(341,513,o),
(356,548,o),
(375,548,cs),
(389,548,o),
(395,517,o),
(400,436,cs),
(408,298,ls)
);
}
);
width = 665;
}
);
unicode = 260;
},
{
glyphname = Aring;
lastChange = "2025-05-28 11:40:26 +0000";
layers = (
{
anchors = (
{
name = bottom;
pos = (320,0);
},
{
name = ogonek;
pos = (596,0);
},
{
name = top;
pos = (436,680);
}
);
background = {
shapes = (
{
ref = A;
},
{
pos = (182,180);
ref = ringcomb.case;
}
);
};
layerId = m01;
shapes = (
{
closed = 1;
nodes = (
(410,267,o),
(404,266,o),
(285,266,cs),
(238,266,o),
(221,266,o),
(221,283,cs),
(221,302,o),
(248,343,o),
(262,369,cs),
(341,513,o),
(356,548,o),
(375,548,cs),
(389,548,o),
(395,517,o),
(400,436,cs),
(408,298,ls)
);
},
{
closed = 1;
nodes = (
(417,847,o),
(349,799,o),
(349,739,cs),
(349,691,o),
(390,689,o),
(390,670,cs),
(390,660,o),
(381,652,o),
(369,638,cs),
(337,600,o),
(260,475,o),
(195,351,cs),
(125,217,o),
(50,98,o),
(24,76,cs),
(-20,39,o),
(-53,34,o),
(-53,17,cs),
(-53,-6,o),
(-1,-2,o),
(69,-2,cs),
(187,-2,o),
(197,0,o),
(197,16,cs),
(197,39,o),
(134,35,o),
(134,95,cs),
(134,114,o),
(142,144,o),
(163,182,cs),
(183,218,o),
(196,219,o),
(275,219,cs),
(392,219,o),
(412,218,o),
(412,176,cs),
(412,146,ls),
(412,88,o),
(396,65,o),
(369,50,cs),
(351,40,o),
(328,32,o),
(328,16,cs),
(328,-2,o),
(347,-2,o),
(474,-2,cs),
(598,-2,o),
(613,0,o),
(613,16,cs),
(613,24,o),
(607,30,o),
(586,40,cs),
(561,52,o),
(539,73,o),
(528,142,cs),
(517,211,o),
(493,580,o),
(489,620,cs),
(486,652,o),
(479,666,o),
(488,678,cs),
(500,695,o),
(575,716,o),
(575,786,cs),
(575,823,o),
(542,847,o),
(490,847,cs)
);
},
{
closed = 1;
nodes = (
(495,801,o),
(509,789,o),
(509,768,cs),
(509,742,o),
(482,714,o),
(450,714,cs),
(429,714,o),
(412,726,o),
(412,748,cs),
(412,778,o),
(443,801,o),
(474,801,cs)
);
}
);
width = 665;
}
);
unicode = 197;
},
{
glyphname = AE;
lastChange = "2025-05-28 11:40:26 +0000";
layers = (
{
background = {
shapes = (
{
closed = 1;
nodes = (
(442,686,ls),
(378,686,o),
(363,684,o),
(363,669,cs),
(363,658,o),
(369,653,o),
(378,647,c),
(334,593,o),
(259,469,o),
(197,351,cs),
(127,217,o),
(52,98,o),
(26,76,cs),
(-18,39,o),
(-51,34,o),
(-51,17,cs),
(-51,-6,o),
(1,-2,o),
(71,-2,cs),
(189,-2,o),
(199,0,o),
(199,16,cs),
(199,39,o),
(136,35,o),
(136,95,cs),
(136,114,o),
(144,144,o),
(165,182,cs),
(185,218,o),
(198,219,o),
(277,219,cs),
(394,219,o),
(414,218,o),
(414,176,cs),
(414,146,ls),
(414,88,o),
(398,65,o),
(371,50,cs),
(353,40,o),
(330,32,o),
(330,16,cs),
(330,-2,o),
(349,-2,o),
(476,-2,cs),
(546,-2,l),
(626,-2,ls),
(661,-2,o),
(741,-6,o),
(764,-6,cs),
(787,-6,o),
(799,0,o),
(804,18,cs),
(809,36,o),
(840,160,o),
(840,182,cs),
(840,196,o),
(836,207,o),
(825,207,cs),
(814,207,o),
(809,200,o),
(798,182,cs),
(741,88,o),
(674,45,o),
(616,45,cs),
(553,45,o),
(541,72,o),
(530,142,cs),
(525,173,o),
(520,258,o),
(515,315,cs),
(513,341,o),
(521,353,o),
(536,353,cs),
(649,353,o),
(594,246,o),
(638,246,cs),
(674,246,o),
(702,396,o),
(702,452,cs),
(702,476,o),
(699,496,o),
(688,496,cs),
(660,496,o),
(665,404,o),
(549,404,cs),
(514,404,o),
(506,425,o),
(504,457,cs),
(498,535,ls),
(492,613,o),
(533,639,o),
(628,639,cs),
(705,639,o),
(759,586,o),
(759,500,cs),
(759,484,o),
(767,477,o),
(776,477,cs),
(805,477,o),
(831,618,o),
(831,646,cs),
(831,664,o),
(833,673,o),
(798,679,cs),
(754,686,o),
(671,686,o),
(612,686,cs)
);
},
{
closed = 1;
nodes = (
(412,267,o),
(406,266,o),
(287,266,cs),
(240,266,o),
(223,266,o),
(223,283,cs),
(223,302,o),
(250,343,o),
(264,369,cs),
(343,513,o),
(358,548,o),
(377,548,cs),
(391,548,o),
(397,517,o),
(402,436,cs),
(410,298,ls)
);
},
{
closed = 1;
nodes = (
(438,500,c),
(487,657,o),
(569,634,o),
(569,664,cs),
(569,685,o),
(516,687,o),
(408,687,cs),
(338,687,o),
(312,685,o),
(312,668,cs),
(312,641,o),
(351,649,o),
(360,601,cs),
(367,566,o),
(347,579,o)
);
}
);
};
layerId = m01;
shapes = (
{
closed = 1;
nodes = (
(558,686,o),
(522,686,cs),
(452,686,o),
(428,684,o),
(427,667,cs),
(427,650,o),
(468,649,o),
(467,626,cs),
(467,618,o),
(462,608,o),
(447,591,cs),
(392,528,o),
(321,439,o),
(256,351,cs),
(159,217,o),
(68,98,o),
(37,76,cs),
(-15,39,o),
(-50,34,o),
(-52,17,cs),
(-58,-6,o),
(-5,-2,o),
(65,-2,cs),
(183,-2,o),
(193,0,o),
(197,16,cs),
(202,39,o),
(137,35,o),
(149,95,cs),
(154,114,o),
(168,144,o),
(198,182,cs),
(226,218,o),
(239,219,o),
(318,219,cs),
(435,219,o),
(461,214,o),
(449,158,cs),
(445,142,ls),
(432,84,o),
(405,65,o),
(376,50,cs),
(357,40,o),
(331,34,o),
(328,16,cs),
(325,-2,o),
(343,-2,o),
(470,-2,cs),
(634,-2,ls),
(669,-2,o),
(770,-6,o),
(793,-6,cs),
(816,-6,o),
(827,0,o),
(832,18,cs),
(835,36,o),
(863,160,o),
(862,182,cs),
(861,196,o),
(856,207,o),
(845,207,cs),
(834,207,o),
(830,200,o),
(820,182,cs),
(766,88,o),
(681,45,o),
(623,45,cs),
(581,45,o),
(520,59,o),
(538,172,cs),
(556,287,ls),
(564,338,o),
(587,353,o),
(625,353,cs),
(738,353,o),
(688,246,o),
(732,246,cs),
(768,246,o),
(791,396,o),
(789,452,cs),
(788,476,o),
(783,496,o),
(772,496,cs),
(744,496,o),
(753,404,o),
(637,404,cs),
(599,404,o),
(578,427,o),
(586,480,cs),
(593,527,ls),
(605,606,o),
(634,636,o),
(731,636,cs),
(808,636,o),
(865,583,o),
(868,497,cs),
(869,481,o),
(877,474,o),
(886,474,cs),
(915,474,o),
(937,615,o),
(936,643,cs),
(934,661,o),
(937,670,o),
(901,676,cs),
(856,683,o),
(773,683,o),
(714,683,cs),
(742,683,o)
);
},
{
closed = 1;
nodes = (
(464,267,o),
(455,266,o),
(336,266,cs),
(294,266,o),
(276,266,o),
(276,279,cs),
(276,296,o),
(326,355,o),
(336,369,cs),
(445,513,o),
(471,548,o),
(490,548,cs),
(504,548,o),
(507,517,o),
(493,436,cs),
(470,298,ls)
);
}
);
width = 936;
},
{
anchors = (
{
name = bottom;
pos = (287,0);
},
{
name = ogonek;
pos = (597,3);
},
{
name = top;
pos = (323,680);
},
{
name = topleft;
pos = (311,680);
}
);
associatedMasterId = m01;
layerId = "AA5E9135-E235-40EF-AA82-8E8621C00C1A";
name = "9 janv. 25 à 17:12";
shapes = (
{
closed = 1;
nodes = (
(417,686,o),
(399,674,o),
(382,654,cs),
(338,603,o),
(260,475,o),
(195,351,cs),
(125,217,o),
(50,98,o),
(24,76,cs),
(-20,39,o),
(-53,34,o),
(-53,17,cs),
(-53,-6,o),
(-1,-2,o),
(69,-2,cs),
(187,-2,o),
(197,0,o),
(197,16,cs),
(197,39,o),
(134,35,o),
(134,95,cs),
(134,114,o),
(142,144,o),
(163,182,cs),
(183,218,o),
(196,219,o),
(275,219,cs),
(392,219,o),
(412,218,o),
(412,176,cs),
(412,146,ls),
(412,88,o),
(396,65,o),
(369,50,cs),
(351,40,o),
(328,32,o),
(328,16,cs),
(328,-2,o),
(347,-2,o),
(474,-2,cs),
(598,-2,o),
(613,0,o),
(613,16,cs),
(613,24,o),
(607,30,o),
(586,40,cs),
(561,52,o),
(539,73,o),
(528,142,cs),
(517,211,o),
(495,576,o),
(486,654,cs),
(483,680,o),
(470,686,o),
(441,686,cs)
);
},
{
closed = 1;
nodes = (
(410,267,o),
(404,266,o),
(285,266,cs),
(238,266,o),
(221,266,o),
(221,283,cs),
(221,302,o),
(248,343,o),
(262,369,cs),
(341,513,o),
(356,548,o),
(375,548,cs),
(389,548,o),
(395,517,o),
(400,436,cs),
(408,298,ls)
);
},
{
closed = 1;
nodes = (
(454,188,l),
(421,26,o),
(341,56,o),
(341,22,cs),
(341,0,o),
(366,-1,o),
(457,-1,cs),
(624,-2,ls),
(659,-2,o),
(739,-6,o),
(762,-6,cs),
(785,-6,o),
(797,0,o),
(802,18,cs),
(807,36,o),
(838,160,o),
(838,182,cs),
(838,196,o),
(834,207,o),
(823,207,cs),
(812,207,o),
(807,200,o),
(796,182,cs),
(739,88,o),
(672,45,o),
(614,45,cs),
(568,45,o),
(499,64,o),
(523,179,c)
);
},
{
closed = 1;
nodes = (
(430,329,l),
(471,288,l),
(472,302,ls),
(475,338,o),
(496,353,o),
(534,353,cs),
(647,353,o),
(592,246,o),
(636,246,cs),
(672,246,o),
(700,396,o),
(700,452,cs),
(700,476,o),
(697,496,o),
(686,496,cs),
(658,496,o),
(663,404,o),
(547,404,cs),
(509,404,o),
(504,428,o),
(501,465,cs),
(496,522,l),
(430,534,l)
);
},
{
closed = 1;
nodes = (
(495,530,l),
(512,609,o),
(529,639,o),
(626,639,cs),
(703,639,o),
(757,586,o),
(757,500,cs),
(757,484,o),
(765,477,o),
(774,477,cs),
(803,477,o),
(829,618,o),
(829,646,cs),
(829,664,o),
(831,673,o),
(796,679,cs),
(752,686,o),
(669,686,o),
(610,686,cs),
(446,686,ls),
(376,686,o),
(361,684,o),
(361,669,cs),
(361,634,o),
(429,658,o),
(406,537,c)
);
}
);
width = 862;
},
{
anchors = (
{
name = bottom;
pos = (287,0);
},
{
name = ogonek;
pos = (597,3);
},
{
name = top;
pos = (323,680);
},
{
name = topleft;
pos = (311,680);
}
);
associatedMasterId = m01;
background = {
shapes = (
{
closed = 1;
nodes = (
(440,686,ls),
(376,686,o),
(361,684,o),
(361,669,cs),
(361,658,o),
(367,653,o),
(376,647,c),
(332,593,o),
(257,469,o),
(195,351,cs),
(125,217,o),
(50,98,o),
(24,76,cs),
(-20,39,o),
(-53,34,o),
(-53,17,cs),
(-53,-6,o),
(-1,-2,o),
(69,-2,cs),
(187,-2,o),
(197,0,o),
(197,16,cs),
(197,39,o),
(134,35,o),
(134,95,cs),
(134,114,o),
(142,144,o),
(163,182,cs),
(183,218,o),
(196,219,o),
(275,219,cs),
(392,219,o),
(412,218,o),
(412,176,cs),
(412,146,ls),
(412,88,o),
(396,65,o),
(369,50,cs),
(351,40,o),
(328,32,o),
(328,16,cs),
(328,-2,o),
(347,-2,o),
(474,-2,cs),
(544,-2,l),
(624,-2,ls),
(659,-2,o),
(739,-6,o),
(762,-6,cs),
(785,-6,o),
(797,0,o),
(802,18,cs),
(807,36,o),
(838,160,o),
(838,182,cs),
(838,196,o),
(834,207,o),
(823,207,cs),
(812,207,o),
(807,200,o),
(796,182,cs),
(739,88,o),
(672,45,o),
(614,45,cs),
(551,45,o),
(539,72,o),
(528,142,cs),
(523,173,o),
(518,258,o),
(513,315,cs),
(511,341,o),
(519,353,o),
(534,353,cs),
(647,353,o),
(592,246,o),
(636,246,cs),
(672,246,o),
(700,396,o),
(700,452,cs),
(700,476,o),
(697,496,o),
(686,496,cs),
(658,496,o),
(663,404,o),
(547,404,cs),
(512,404,o),
(504,425,o),
(502,457,cs),
(496,535,ls),
(490,613,o),
(531,639,o),
(626,639,cs),
(703,639,o),
(757,586,o),
(757,500,cs),
(757,484,o),
(765,477,o),
(774,477,cs),
(803,477,o),
(829,618,o),
(829,646,cs),
(829,664,o),
(831,673,o),
(796,679,cs),
(752,686,o),
(669,686,o),
(610,686,cs)
);
},
{
closed = 1;
nodes = (
(410,267,o),
(404,266,o),
(285,266,cs),
(238,266,o),
(221,266,o),
(221,283,cs),
(221,302,o),
(248,343,o),
(262,369,cs),
(341,513,o),
(356,548,o),
(375,548,cs),
(389,548,o),
(395,517,o),
(400,436,cs),
(408,298,ls)
);
},
{
closed = 1;
nodes = (
(436,500,c),
(485,657,o),
(567,634,o),
(567,664,cs),
(567,685,o),
(514,687,o),
(406,687,cs),
(336,687,o),
(310,685,o),
(310,668,cs),
(310,641,o),
(349,649,o),
(358,601,cs),
(365,566,o),
(345,579,o)
);
}
);
};
layerId = "DE5A2FB3-81BC-48EF-A7FA-90535F736B50";
name = "2 avr. 25 à 11:20";
shapes = (
{
closed = 1;
nodes = (
(406,687,ls),
(341,687,o),
(310,685,o),
(310,668,cs),
(310,646,o),
(347,641,o),
(347,623,cs),
(347,599,o),
(273,504,o),
(195,351,cs),
(126,216,o),
(50,98,o),
(24,76,cs),
(-20,39,o),
(-53,34,o),
(-53,17,cs),
(-53,-6,o),
(-1,-2,o),
(69,-2,cs),
(187,-2,o),
(197,0,o),
(197,16,cs),
(197,39,o),
(134,35,o),
(134,95,cs),
(134,114,o),
(142,144,o),
(163,182,cs),
(183,218,o),
(196,219,o),
(275,219,cs),
(392,219,o),
(412,218,o),
(412,176,cs),
(412,146,ls),
(412,88,o),
(396,65,o),
(369,50,cs),
(351,40,o),
(328,32,o),
(328,16,cs),
(328,-2,o),
(347,-2,o),
(474,-2,cs),
(615,-2,ls),
(650,-2,o),
(730,-6,o),
(753,-6,cs),
(776,-6,o),
(788,0,o),
(793,18,cs),
(798,36,o),
(829,160,o),
(829,182,cs),
(829,196,o),
(825,207,o),
(814,207,cs),
(803,207,o),
(798,200,o),
(787,182,cs),
(730,88,o),
(663,45,o),
(605,45,cs),
(542,45,o),
(530,72,o),
(519,142,cs),
(514,173,o),
(508,258,o),
(504,310,cs),
(502,335,o),
(513,353,o),
(537,353,cs),
(631,353,o),
(586,246,o),
(627,246,cs),
(663,246,o),
(691,396,o),
(691,452,cs),
(691,476,o),
(688,496,o),
(677,496,cs),
(649,496,o),
(654,404,o),
(547,404,cs),
(510,404,o),
(496,421,o),
(493,463,cs),
(487,535,ls),
(482,604,o),
(507,639,o),
(586,639,cs),
(617,639,ls),
(694,639,o),
(748,586,o),
(748,500,cs),
(748,484,o),
(756,477,o),
(765,477,cs),
(794,477,o),
(820,618,o),
(820,646,cs),
(820,664,o),
(822,673,o),
(787,679,cs),
(743,686,o),
(660,686,o),
(601,686,cs)
);
},
{
closed = 1;
nodes = (
(410,273,o),
(402,266,o),
(285,266,cs),
(238,266,o),
(221,266,o),
(221,283,cs),
(221,302,o),
(248,343,o),
(262,369,cs),
(341,513,o),
(356,548,o),
(375,548,cs),
(389,548,o),
(395,517,o),
(400,436,cs),
(407,317,ls)
);
}
);
width = 853;
}
);
metricLeft = A;
metricRight = E;
unicode = 198;
},
{
glyphname = B;
lastChange = "2025-05-28 11:40:26 +0000";
layers = (
{
backgroundImage = {
angle = 1.5;
imagePath = "/Downloads/Images/B_-Regular.tif";
locked = 1;
pos = (-69,-67);
scale = (2.9729,2.9729);
};
layerId = m01;
shapes = (
{
closed = 1;
nodes = (
(394,-2,o),
(548,40,o),
(548,200,cs),
(548,309,o),
(478,352,o),
(444,363,cs),
(430,367,o),
(423,370,o),
(423,377,cs),
(423,384,o),
(431,388,o),
(438,392,cs),
(528,443,o),
(594,525,o),
(594,585,cs),
(594,676,o),
(459,683,o),
(365,683,cs),
(201,683,ls),
(131,683,o),
(116,681,o),
(116,666,cs),
(116,631,o),
(184,655,o),
(161,534,cs),
(91,188,ls),
(58,26,o),
(-22,56,o),
(-22,22,cs),
(-22,0,o),
(3,-1,o),
(94,-1,cs),
(281,-2,ls)
);
},
{
closed = 1;
nodes = (
(205,45,o),
(150,63,o),
(174,178,cs),
(196,286,ls),
(205,330,o),
(235,348,o),
(301,348,cs),
(392,342,o),
(437,287,o),
(437,208,cs),
(437,66,o),
(329,45,o),
(261,45,cs)
);
},
{
closed = 1;
nodes = (
(244,394,o),
(230,419,o),
(241,451,cs),
(246,471,o),
(251,492,o),
(257,518,cs),
(276,605,o),
(304,636,o),
(366,636,cs),
(428,636,o),
(474,603,o),
(474,547,cs),
(474,459,o),
(355,394,o),
(280,394,cs)
);
}
);
width = 602;
}
);
metricLeft = I;
unicode = 66;
},
{
glyphname = C;
lastChange = "2025-05-28 11:40:26 +0000";
layers = (
{
anchors = (
{
name = bottom;
pos = (280,0);
},
{
name = top;
pos = (412,680);
}
);
background = {
shapes = (
{
pos = (-11,0);
ref = O;
}
);
};
layerId = m01;
shapes = (
{
closed = 1;
nodes = (
(553,442,o),
(597,602,o),
(597,650,cs),
(597,680,o),
(589,696,o),
(570,696,cs),
(547,696,o),
(542,642,o),
(505,642,cs),
(472,642,o),
(453,696,o),
(386,696,cs),
(214,696,o),
(30,448,o),
(30,235,cs),
(30,128,o),
(79,-15,o),
(248,-15,cs),
(433,-15,o),
(541,163,o),
(541,230,cs),
(541,268,o),
(515,272,o),
(496,272,cs),
(469,272,o),
(443,261,o),
(428,210,cs),
(409,144,o),
(372,41,o),
(295,41,cs),
(180,41,o),
(149,194,o),
(149,295,cs),
(149,427,o),
(238,639,o),
(356,639,cs),
(404,639,o),
(440,594,o),
(463,533,cs),
(488,472,o),
(484,442,o),
(508,442,cs)
);
}
);
width = 606;
},
{
associatedMasterId = m01;
background = {
shapes = (
{
ref = O;
}
);
};
layerId = "66813B1E-7ECF-4D25-8039-A35878D5DBCD";
name = "31 oct. 24 à 16:42";
shapes = (
{
closed = 1;
nodes = (
(564,442,o),
(608,612,o),
(608,660,cs),
(608,690,o),
(590,696,o),
(581,696,cs),
(558,696,o),
(555,656,o),
(518,656,cs),
(485,656,o),
(464,696,o),
(397,696,cs),
(225,696,o),
(41,438,o),
(41,235,cs),
(41,128,o),
(90,-15,o),
(259,-15,cs),
(439,-15,o),
(552,163,o),
(552,230,cs),
(552,268,o),
(526,272,o),
(507,272,cs),
(480,272,o),
(454,261,o),
(439,210,cs),
(420,144,o),
(383,41,o),
(309,41,cs),
(191,41,o),
(160,194,o),
(160,295,cs),
(160,427,o),
(249,639,o),
(367,639,cs),
(415,639,o),
(451,594,o),
(474,533,cs),
(499,472,o),
(495,442,o),
(519,442,cs)
);
}
);
width = 610;
}
);
unicode = 67;
},
{
glyphname = Ccedilla;
lastChange = "2025-05-28 11:40:26 +0000";
layers = (
{
anchors = (
{
name = bottom;
pos = (327,-200);
}
);
background = {
shapes = (
{
closed = 1;
nodes = (
(573,442,o),
(617,602,o),
(617,650,cs),
(617,680,o),
(609,696,o),
(590,696,cs),
(567,696,o),
(562,642,o),
(525,642,cs),
(492,642,o),
(473,696,o),
(406,696,cs),
(234,696,o),
(50,448,o),
(50,235,cs),
(50,128,o),
(99,-15,o),
(268,-15,cs),
(453,-15,o),
(561,163,o),
(561,230,cs),
(561,268,o),
(535,272,o),
(516,272,cs),
(489,272,o),
(463,261,o),
(448,210,cs),
(429,144,o),
(392,41,o),
(315,41,cs),
(200,41,o),
(169,194,o),
(169,295,cs),
(169,427,o),
(258,639,o),
(376,639,cs),
(424,639,o),
(460,594,o),
(483,533,cs),
(508,472,o),
(504,442,o),
(528,442,cs)
);
},
{
closed = 1;
nodes = (
(241,-26,o),
(170,-37,o),
(170,-61,cs),
(170,-88,o),
(228,-80,o),
(228,-116,cs),
(228,-146,o),
(203,-161,o),
(181,-161,cs),
(160,-161,o),
(147,-146,o),
(122,-146,cs),
(96,-146,o),
(83,-161,o),
(83,-176,cs),
(83,-197,o),
(107,-218,o),
(157,-218,cs),
(231,-218,o),
(314,-138,o),
(314,-94,cs),
(314,-64,o),
(265,-68,o),
(265,-45,cs),
(265,-27,o),
(284,-20,o),
(310,-11,c),
(225,-11,l)
);
}
);
};
layerId = m01;
shapes = (
{
closed = 1;
nodes = (
(573,442,o),
(617,602,o),
(617,650,cs),
(617,680,o),
(609,696,o),
(590,696,cs),
(567,696,o),
(562,642,o),
(525,642,cs),
(492,642,o),
(473,696,o),
(406,696,cs),
(234,696,o),
(50,448,o),
(50,230,cs),
(50,0,o),
(226,11,o),
(226,-21,cs),
(226,-45,o),
(176,-47,o),
(176,-70,cs),
(176,-97,o),
(228,-87,o),
(228,-122,cs),
(228,-151,o),
(203,-166,o),
(181,-166,cs),
(160,-166,o),
(147,-151,o),
(122,-151,cs),
(96,-151,o),
(83,-166,o),
(83,-181,cs),
(83,-202,o),
(107,-223,o),
(157,-223,cs),
(231,-223,o),
(314,-146,o),
(314,-99,cs),
(314,-69,o),
(265,-73,o),
(265,-50,cs),
(265,-22,o),
(315,-14,o),
(361,1,cs),
(462,34,o),
(561,154,o),
(561,230,cs),
(561,268,o),
(535,272,o),
(516,272,cs),
(489,272,o),
(463,261,o),
(448,210,cs),
(429,144,o),
(392,41,o),
(315,41,cs),
(200,41,o),
(169,194,o),
(169,295,cs),
(169,427,o),
(258,639,o),
(376,639,cs),
(424,639,o),
(460,594,o),
(483,533,cs),
(508,472,o),
(504,442,o),
(528,442,cs)
);
}
);
width = 626;
},
{
anchors = (
{
name = bottom;
pos = (327,-200);
}
);
associatedMasterId = m01;
layerId = "52893DBD-46E9-4335-82FB-883EEB3FDB2B";
name = "9 janv. 25 à 15:50";
shapes = (
{
closed = 1;
nodes = (
(573,442,o),
(617,602,o),
(617,650,cs),
(617,680,o),
(609,696,o),
(590,696,cs),
(567,696,o),
(562,642,o),
(525,642,cs),
(492,642,o),
(473,696,o),
(406,696,cs),
(234,696,o),
(50,448,o),
(50,235,cs),
(50,128,o),
(99,-15,o),
(268,-15,cs),
(453,-15,o),
(561,163,o),
(561,230,cs),
(561,268,o),
(535,272,o),
(516,272,cs),
(489,272,o),
(463,261,o),
(448,210,cs),
(429,144,o),
(392,41,o),
(315,41,cs),
(200,41,o),
(169,194,o),
(169,295,cs),
(169,427,o),
(258,639,o),
(376,639,cs),
(424,639,o),
(460,594,o),
(483,533,cs),
(508,472,o),
(504,442,o),
(528,442,cs)
);
},
{
closed = 1;
nodes = (
(241,-26,o),
(170,-37,o),
(170,-61,cs),
(170,-88,o),
(228,-80,o),
(228,-116,cs),
(228,-146,o),
(203,-161,o),
(181,-161,cs),
(160,-161,o),
(147,-146,o),
(122,-146,cs),
(96,-146,o),
(83,-161,o),
(83,-176,cs),
(83,-197,o),
(107,-218,o),
(157,-218,cs),
(231,-218,o),
(314,-138,o),
(314,-94,cs),
(314,-64,o),
(265,-68,o),
(265,-45,cs),
(265,-27,o),
(284,-20,o),
(310,-11,c),
(225,-11,l)
);
}
);
width = 626;
}
);
unicode = 199;
},
{
glyphname = D;
lastChange = "2025-05-28 11:40:26 +0000";
layers = (
{
anchors = (
{
name = bottom;
pos = (304,0);
},
{
name = center;
pos = (163,340);
},
{
name = top;
pos = (374,680);
}
);
layerId = m01;
shapes = (
{
closed = 1;
nodes = (
(634,644,o),
(524,683,o),
(360,683,cs),
(196,683,ls),
(126,683,o),
(111,681,o),
(111,666,cs),
(111,631,o),
(179,655,o),
(156,534,cs),
(86,188,ls),
(53,26,o),
(-22,56,o),
(-22,22,cs),
(-22,0,o),
(-2,-2,o),
(99,-2,cs),
(183,-2,o),
(274,-11,o),
(377,40,cs),
(538,120,o),
(634,282,o),
(634,472,cs)
);
},
{
closed = 1;
nodes = (
(529,371,o),
(504,282,o),
(457,208,cs),
(399,120,o),
(313,54,o),
(239,54,cs),
(204,54,o),
(165,60,o),
(165,120,cs),
(165,135,o),
(167,153,o),
(172,175,cs),
(200,296,o),
(212,343,o),
(249,516,cs),
(267,606,o),
(296,635,o),
(363,635,cs),
(474,635,o),
(529,572,o),
(529,451,cs)
);
}
);
width = 633;
},
{
associatedMasterId = m01;
backgroundImage = {
angle = 0.5;
imagePath = "/Downloads/Images/D_-Regular.tif";
locked = 1;
pos = (-67,-113);
scale = (2.9729,2.9729);
};
layerId = "67F181E3-26C1-4545-BB55-32ED0CD3BDE4";
name = "19 nov. 24 à 17:13";
shapes = (
{
closed = 1;
nodes = (
(684,654,o),
(524,683,o),
(360,683,cs),
(196,683,ls),
(126,683,o),
(111,681,o),
(111,666,cs),
(111,631,o),
(179,655,o),
(156,534,cs),
(86,188,ls),
(53,26,o),
(-22,56,o),
(-22,22,cs),
(-22,0,o),
(-2,-2,o),
(99,-2,cs),
(183,-2,o),
(273,-2,o),
(377,40,cs),
(542,108,o),
(684,262,o),
(684,472,cs)
);
},
{
closed = 1;
nodes = (
(571,254,o),
(374,52,o),
(241,52,cs),
(204,52,o),
(165,57,o),
(165,120,cs),
(165,135,o),
(167,153,o),
(172,175,cs),
(200,296,o),
(212,343,o),
(249,516,cs),
(267,606,o),
(296,635,o),
(363,635,cs),
(474,635,o),
(571,582,o),
(571,461,cs)
);
}
);
width = 723;
}
);
metricLeft = I;
unicode = 68;
},
{
glyphname = Eth;
lastChange = "2025-05-28 11:40:26 +0000";
layers = (
{
anchors = (
{
name = bottom;
pos = (287,0);
},
{
name = center;
pos = (163,340);
},
{
name = top;
pos = (323,680);
}
);
background = {
anchors = (
{
name = bottom;
pos = (287,0);
},
{
name = top;
pos = (323,680);
}
);
shapes = (
{
closed = 1;
nodes = (
(-25,370,o),
(-25,342,cs),
(-25,320,o),
(-4,312,o),
(20,312,cs),
(52,312,o),
(119,324,o),
(171,324,cs),
(213,324,o),
(273,318,o),
(301,318,cs),
(331,318,o),
(361,334,o),
(361,363,cs),
(361,385,o),
(345,395,o),
(319,395,cs),
(287,395,o),
(226,383,o),
(175,383,cs),
(134,383,o),
(72,392,o),
(38,392,cs),
(4,392,o)
);
},
{
ref = D;
}
);
};
layerId = m01;
shapes = (
{
closed = 1;
nodes = (
(634,644,o),
(524,683,o),
(360,683,cs),
(196,683,ls),
(126,683,o),
(111,681,o),
(111,666,cs),
(111,631,o),
(179,655,o),
(156,534,cs),
(131,409,ls),
(128,395,o),
(120,387,o),
(107,387,cs),
(81,387,o),
(56,392,o),
(38,392,cs),
(4,392,o),
(-25,370,o),
(-25,342,cs),
(-25,320,o),
(-4,312,o),
(20,312,cs),
(41,312,o),
(69,318,o),
(93,318,cs),
(104,318,o),
(111,311,o),
(108,295,cs),
(86,188,ls),
(53,26,o),
(-22,56,o),
(-22,22,cs),
(-22,0,o),
(-2,-2,o),
(99,-2,cs),
(183,-2,o),
(274,-11,o),
(377,40,cs),
(538,120,o),
(634,282,o),
(634,472,cs)
);
},
{
closed = 1;
nodes = (
(529,371,o),
(504,282,o),
(457,208,cs),
(399,120,o),
(313,54,o),
(239,54,cs),
(204,54,o),
(165,60,o),
(165,120,cs),
(165,135,o),
(167,153,o),
(172,175,cs),
(202,305,ls),
(205,317,o),
(212,322,o),
(225,322,cs),
(251,322,o),
(277,318,o),
(301,318,cs),
(331,318,o),
(361,334,o),
(361,363,cs),
(361,385,o),
(345,395,o),
(319,395,cs),
(298,395,o),
(270,388,o),
(245,388,cs),
(230,388,o),
(222,394,o),
(226,411,cs),
(249,516,ls),
(269,606,o),
(296,635,o),
(363,635,cs),
(474,635,o),
(529,572,o),
(529,451,cs)
);
}
);
width = 633;
}
);
unicode = 208;
},
{
glyphname = E;
lastChange = "2025-05-28 11:40:26 +0000";
layers = (
{
anchors = (
{
name = bottom;
pos = (279,0);
},
{
name = ogonek;
pos = (443,0);
},
{
name = top;
pos = (373,680);
},
{
name = topleft;
pos = (43,680);
}
);
layerId = m01;
shapes = (
{
closed = 1;
nodes = (
(403,246,o),
(431,396,o),
(431,452,cs),
(431,476,o),
(428,496,o),
(417,496,cs),
(389,496,o),
(394,404,o),
(278,404,cs),
(240,404,o),
(228,426,o),
(236,463,cs),
(250,527,ls),
(267,606,o),
(284,636,o),
(381,636,cs),
(458,636,o),
(512,583,o),
(512,497,cs),
(512,481,o),
(520,474,o),
(529,474,cs),
(558,474,o),
(584,615,o),
(584,643,cs),
(584,661,o),
(586,670,o),
(551,676,cs),
(507,683,o),
(424,683,o),
(365,683,cs),
(201,683,ls),
(131,683,o),
(116,681,o),
(116,666,cs),
(116,631,o),
(185,655,o),
(161,534,cs),
(91,189,ls),
(58,27,o),
(-22,57,o),
(-22,23,cs),
(-22,1,o),
(3,0,o),
(94,0,cs),
(261,-1,ls),
(296,-1,o),
(396,-5,o),
(419,-5,cs),
(442,-5,o),
(454,1,o),
(459,19,cs),
(464,37,o),
(495,161,o),
(495,183,cs),
(495,197,o),
(491,208,o),
(480,208,cs),
(469,208,o),
(464,201,o),
(453,183,cs),
(396,89,o),
(309,46,o),
(251,46,cs),
(205,46,o),
(153,64,o),
(177,179,cs),
(203,302,ls),
(211,338,o),
(227,353,o),
(265,353,cs),
(378,353,o),
(323,246,o),
(367,246,cs)
);
}
);
width = 583;
}
);
metricLeft = I;
unicode = 69;
},
{
glyphname = Eogonek;
lastChange = "2025-05-28 11:40:26 +0000";
layers = (
{
anchors = (
{
name = bottom;
pos = (279,0);
},
{
name = ogonek;
pos = (443,0);
},
{
name = top;
pos = (373,680);
},
{
name = topleft;
pos = (43,680);
}
);
background = {
shapes = (
{
closed = 1;
nodes = (
(403,246,o),
(431,396,o),
(431,452,cs),
(431,476,o),
(428,496,o),
(417,496,cs),
(389,496,o),
(394,404,o),
(278,404,cs),
(240,404,o),
(228,426,o),
(236,463,cs),
(250,527,ls),
(267,606,o),
(284,636,o),
(381,636,cs),
(458,636,o),
(512,583,o),
(512,497,cs),
(512,481,o),
(520,474,o),
(529,474,cs),
(558,474,o),
(584,615,o),
(584,643,cs),
(584,661,o),
(586,670,o),
(551,676,cs),
(507,683,o),
(424,683,o),
(365,683,cs),
(201,683,ls),
(131,683,o),
(116,681,o),
(116,666,cs),
(116,631,o),
(184,655,o),
(161,534,cs),
(91,188,ls),
(58,26,o),
(-22,56,o),
(-22,22,cs),
(-22,0,o),
(3,0,o),
(94,-1,cs),
(261,-2,ls),
(298,-2,o),
(336,-4,o),
(373,-5,c),
(339,-27,o),
(293,-70,o),
(293,-123,cs),
(293,-180,o),
(329,-222,o),
(400,-222,cs),
(483,-222,o),
(529,-164,o),
(529,-127,cs),
(529,-113,o),
(522,-106,o),
(510,-106,cs),
(488,-106,o),
(458,-141,o),
(415,-141,cs),
(388,-141,o),
(367,-126,o),
(367,-97,cs),
(367,-61,o),
(398,-26,o),
(432,-8,cs),
(450,2,o),
(456,7,o),
(460,21,cs),
(464,36,o),
(495,160,o),
(495,182,cs),
(495,196,o),
(491,207,o),
(480,207,cs),
(469,207,o),
(464,200,o),
(453,182,cs),
(396,88,o),
(309,45,o),
(251,45,cs),
(205,45,o),
(153,63,o),
(177,178,cs),
(203,302,ls),
(211,338,o),
(227,353,o),
(265,353,cs),
(378,353,o),
(323,246,o),
(367,246,cs)
);
}
);
};
layerId = m01;
shapes = (
{
closed = 1;
nodes = (
(403,246,o),
(431,396,o),
(431,452,cs),
(431,476,o),
(428,496,o),
(417,496,cs),
(389,496,o),
(394,404,o),
(278,404,cs),
(240,404,o),
(228,426,o),
(236,463,cs),
(250,527,ls),
(267,606,o),
(284,636,o),
(381,636,cs),
(458,636,o),
(512,583,o),
(512,497,cs),
(512,481,o),
(520,474,o),
(529,474,cs),
(558,474,o),
(584,615,o),
(584,643,cs),
(584,661,o),
(586,670,o),
(551,676,cs),
(507,683,o),
(424,683,o),
(365,683,cs),
(201,683,ls),
(131,683,o),
(116,681,o),
(116,666,cs),
(116,631,o),
(184,655,o),
(161,534,cs),
(91,188,ls),
(58,26,o),
(-22,56,o),
(-22,22,cs),
(-22,0,o),
(3,0,o),
(94,-1,cs),
(261,-2,ls),
(298,-2,o),
(344,-1,o),
(344,-19,cs),
(344,-37,o),
(293,-61,o),
(293,-126,cs),
(293,-179,o),
(336,-222,o),
(400,-222,cs),
(483,-222,o),
(529,-164,o),
(529,-127,cs),
(529,-113,o),
(522,-106,o),
(510,-106,cs),
(488,-106,o),
(458,-141,o),
(415,-141,cs),
(388,-141,o),
(367,-126,o),
(367,-97,cs),
(367,-61,o),
(398,-26,o),
(432,-8,cs),
(450,2,o),
(456,7,o),
(460,21,cs),
(464,36,o),
(495,160,o),
(495,182,cs),
(495,196,o),
(491,207,o),
(480,207,cs),
(469,207,o),
(464,200,o),
(453,182,cs),
(396,88,o),
(309,45,o),
(251,45,cs),
(205,45,o),
(153,63,o),
(177,178,cs),
(203,302,ls),
(211,338,o),
(227,353,o),
(265,353,cs),
(378,353,o),
(323,246,o),
(367,246,cs)
);
}
);
width = 583;
}
);
unicode = 280;
},
{
glyphname = Schwa;
lastChange = "2025-05-28 11:40:26 +0000";
layers = (
{
anchors = (
{
name = bottom;
pos = (113,10);
},
{
name = ogonekabove;
pos = (309,675);
},
{
name = top;
pos = (294,675);
}
);
background = {
shapes = (
{
closed = 1;
nodes = (
(19,265,o),
(16,221,cs),
(8,120,o),
(79,-11,o),
(208,-11,cs),
(385,-11,o),
(591,243,o),
(591,455,cs),
(591,562,o),
(542,692,o),
(374,692,cs),
(242,692,o),
(81,588,o),
(81,463,cs),
(81,434,o),
(97,418,o),
(126,418,cs),
(152,418,o),
(179,433,o),
(195,476,cs),
(218,542,o),
(266,643,o),
(343,643,cs),
(440,643,o),
(469,530,o),
(469,440,cs),
(469,365,o),
(464,327,o),
(429,323,cs),
(344,308,o),
(217,298,o),
(106,288,cs),
(52,283,o)
);
},
{
closed = 1;
nodes = (
(222,253,o),
(317,261,o),
(393,264,cs),
(417,265,o),
(429,261,o),
(429,248,cs),
(429,217,o),
(337,50,o),
(233,50,cs),
(159,50,o),
(123,156,o),
(123,213,cs),
(123,228,o),
(129,235,o),
(149,239,cs)
);
}
);
};
layerId = m01;
shapes = (
{
closed = 1;
nodes = (
(18,264,o),
(18,201,cs),
(18,103,o),
(89,-12,o),
(214,-12,cs),
(394,-12,o),
(607,242,o),
(607,455,cs),
(607,561,o),
(558,689,o),
(388,689,cs),
(247,689,o),
(90,585,o),
(90,471,cs),
(90,438,o),
(108,419,o),
(137,419,cs),
(165,419,o),
(190,435,o),
(206,476,cs),
(230,541,o),
(281,640,o),
(358,640,cs),
(455,640,o),
(484,530,o),
(484,439,cs),
(484,371,o),
(476,334,o),
(441,328,cs),
(353,313,o),
(207,298,o),
(113,286,cs),
(51,278,o)
);
},
{
closed = 1;
nodes = (
(231,251,o),
(364,269,o),
(410,269,cs),
(430,269,o),
(440,265,o),
(440,252,cs),
(440,222,o),
(358,49,o),
(239,49,cs),
(164,49,o),
(128,153,o),
(128,211,cs),
(128,227,o),
(135,235,o),
(155,239,cs)
);
}
);
width = 616;
}
);
unicode = 399;
},
{
glyphname = F;
lastChange = "2025-05-28 11:40:26 +0000";
layers = (
{
layerId = m01;
shapes = (
{
closed = 1;
nodes = (
(91,188,ls),
(58,27,o),
(-22,57,o),
(-22,23,cs),
(-22,1,o),
(3,0,o),
(94,0,cs),
(208,0,o),
(228,1,o),
(228,18,cs),
(228,55,o),
(149,26,o),
(178,178,cs),
(194,261,ls),
(203,307,o),
(219,313,o),
(253,313,cs),
(366,313,o),
(311,206,o),
(355,206,cs),
(391,206,o),
(419,354,o),
(419,412,cs),
(419,437,o),
(416,456,o),
(405,456,cs),
(377,456,o),
(384,364,o),
(268,364,cs),
(229,364,o),
(220,384,o),
(228,423,cs),
(244,498,ls),
(267,605,o),
(284,636,o),
(381,636,cs),
(458,636,o),
(512,583,o),
(512,497,cs),
(512,481,o),
(520,474,o),
(529,474,cs),
(558,474,o),
(584,615,o),
(584,643,cs),
(584,661,o),
(586,670,o),
(551,676,cs),
(507,683,o),
(424,683,o),
(365,683,cs),
(201,683,ls),
(131,683,o),
(116,681,o),
(116,666,cs),
(116,631,o),
(185,655,o),
(161,534,cs)
);
}
);
width = 553;
}
);
metricLeft = I;
unicode = 70;
},
{
glyphname = G;
lastChange = "2025-05-28 11:40:26 +0000";
layers = (
{
anchors = (
{
name = bottom;
pos = (243,-20);
},
{
name = top;
pos = (398,685);
}
);
layerId = m01;
shapes = (
{
closed = 1;
nodes = (
(553,447,o),
(597,602,o),
(597,650,cs),
(597,680,o),
(589,696,o),
(570,696,cs),
(547,696,o),
(542,642,o),
(505,642,cs),
(472,642,o),
(453,696,o),
(386,696,cs),
(214,696,o),
(30,448,o),
(30,235,cs),
(30,128,o),
(83,4,o),
(233,4,cs),
(315,4,o),
(361,52,o),
(387,52,cs),
(398,52,o),
(404,44,o),
(404,31,cs),
(404,-55,o),
(352,-187,o),
(244,-187,cs),
(150,-187,o),
(130,-102,o),
(84,-102,cs),
(48,-102,o),
(18,-135,o),
(18,-168,cs),
(18,-225,o),
(108,-244,o),
(178,-244,cs),
(378,-244,o),
(479,-100,o),
(507,65,cs),
(544,279,ls),
(549,310,o),
(542,337,o),
(506,337,cs),
(471,337,o),
(449,315,o),
(442,285,cs),
(437,263,o),
(431,200,o),
(424,163,cs),
(414,111,o),
(362,79,o),
(299,79,cs),
(169,79,o),
(147,203,o),
(147,295,cs),
(147,427,o),
(238,639,o),
(356,639,cs),
(404,639,o),
(437,593,o),
(463,533,cs),
(484,485,o),
(484,447,o),
(508,447,cs)
);
}
);
width = 621;
},
{
associatedMasterId = m01;
layerId = "6392053A-B61A-4CF7-A4D7-BF90B53C6201";
name = "31 oct. 24 à 16:55";
shapes = (
{
closed = 1;
nodes = (
(573,442,o),
(617,602,o),
(617,650,cs),
(617,680,o),
(609,696,o),
(590,696,cs),
(567,696,o),
(562,642,o),
(525,642,cs),
(492,642,o),
(473,696,o),
(406,696,cs),
(234,696,o),
(50,438,o),
(50,235,cs),
(50,128,o),
(99,-15,o),
(258,-15,cs),
(335,-15,o),
(398,29,o),
(417,29,cs),
(425,29,o),
(431,25,o),
(431,16,cs),
(431,-9,o),
(384,-185,o),
(264,-185,cs),
(190,-185,o),
(170,-122,o),
(124,-122,cs),
(88,-122,o),
(78,-155,o),
(78,-168,cs),
(78,-225,o),
(148,-244,o),
(198,-244,cs),
(398,-244,o),
(502,-77,o),
(526,60,cs),
(556,233,ls),
(559,252,o),
(572,249,o),
(590,249,cs),
(607,249,ls),
(631,249,o),
(651,274,o),
(651,306,cs),
(651,320,o),
(647,328,o),
(626,328,cs),
(376,328,ls),
(332,328,o),
(309,308,o),
(306,282,cs),
(303,257,o),
(311,249,o),
(362,249,cs),
(434,249,ls),
(451,249,o),
(464,243,o),
(464,226,cs),
(464,198,o),
(456,167,o),
(451,140,cs),
(439,75,o),
(380,60,o),
(315,60,cs),
(200,60,o),
(169,194,o),
(169,295,cs),
(169,427,o),
(258,639,o),
(376,639,cs),
(424,639,o),
(460,594,o),
(483,533,cs),
(508,472,o),
(504,442,o),
(528,442,cs)
);
}
);
width = 688;
},
{
associatedMasterId = m01;
layerId = "810BF019-640B-498D-92DF-CFA1C8368702";
name = "8 janv. 25 à 12:28";
shapes = (
{
closed = 1;
nodes = (
(573,442,o),
(617,602,o),
(617,650,cs),
(617,680,o),
(609,696,o),
(590,696,cs),
(567,696,o),
(562,642,o),
(525,642,cs),
(492,642,o),
(473,696,o),
(406,696,cs),
(234,696,o),
(50,448,o),
(50,235,cs),
(50,128,o),
(99,-15,o),
(258,-15,cs),
(335,-15,o),
(387,29,o),
(406,29,cs),
(414,29,o),
(420,25,o),
(420,16,cs),
(420,-9,o),
(384,-185,o),
(264,-185,cs),
(170,-185,o),
(150,-102,o),
(104,-102,cs),
(68,-102,o),
(38,-135,o),
(38,-168,cs),
(38,-225,o),
(128,-244,o),
(198,-244,cs),
(398,-244,o),
(504,-76,o),
(526,60,cs),
(564,291,ls),
(567,312,o),
(568,343,o),
(526,343,cs),
(487,343,o),
(468,317,o),
(463,296,cs),
(457,269,o),
(445,167,o),
(440,140,cs),
(428,75,o),
(380,60,o),
(315,60,cs),
(200,60,o),
(169,194,o),
(169,295,cs),
(169,427,o),
(258,639,o),
(376,639,cs),
(424,639,o),
(460,594,o),
(483,533,cs),
(508,472,o),
(504,442,o),
(528,442,cs)
);
}
);
width = 636;
}
);
metricLeft = C;
unicode = 71;
},
{
glyphname = Gcommaaccent;
lastChange = "2025-05-28 11:40:26 +0000";
layers = (
{
anchors = (
{
name = bottom;
pos = (263,-20);
},
{
name = top;
pos = (418,685);
}
);
layerId = m01;
shapes = (
{
pos = (80,-10);
ref = commaaccentcomb.case;
},
{
closed = 1;
nodes = (
(278,-201,o),
(278,-222,cs),
(278,-232,o),
(286,-236,o),
(298,-236,cs),
(383,-236,o),
(499,-99,o),
(527,65,cs),
(564,279,ls),
(569,310,o),
(562,337,o),
(526,337,cs),
(491,337,o),
(469,315,o),
(462,285,cs),
(457,263,o),
(451,200,o),
(444,163,cs),
(434,111,o),
(382,83,o),
(319,83,cs),
(189,83,o),
(167,203,o),
(167,295,cs),
(167,427,o),
(258,639,o),
(376,639,cs),
(424,639,o),
(457,593,o),
(483,533,cs),
(504,485,o),
(504,447,o),
(528,447,cs),
(573,447,o),
(617,602,o),
(617,650,cs),
(617,680,o),
(609,696,o),
(590,696,cs),
(567,696,o),
(562,642,o),
(525,642,cs),
(492,642,o),
(473,696,o),
(406,696,cs),
(234,696,o),
(50,448,o),
(50,235,cs),
(50,128,o),
(103,8,o),
(253,8,cs),
(335,8,o),
(381,52,o),
(407,52,cs),
(418,52,o),
(424,44,o),
(424,31,cs),
(424,-125,o)
);
}
);
width = 641;
}
);
unicode = 290;
},
{
glyphname = H;
lastChange = "2025-05-28 11:40:26 +0000";
layers = (
{
anchors = (
{
name = bottom;
pos = (158,0);
},
{
name = ogonek;
pos = (219,0);
},
{
name = top;
pos = (466,680);
},
{
name = topleft;
pos = (43,680);
}
);
layerId = m01;
shapes = (
{
closed = 1;
nodes = (
(491,188,ls),
(459,26,o),
(378,56,o),
(378,22,cs),
(378,0,o),
(403,-1,o),
(494,-1,cs),
(608,-1,o),
(628,0,o),
(628,17,cs),
(628,54,o),
(542,26,o),
(574,178,cs),
(642,498,ls),
(676,659,o),
(773,632,o),
(773,662,cs),
(773,683,o),
(720,685,o),
(612,685,cs),
(542,685,o),
(516,683,o),
(516,666,cs),
(516,631,o),
(584,655,o),
(561,534,cs),
(546,460,ls),
(531,384,o),
(475,379,o),
(371,379,cs),
(280,379,o),
(214,378,o),
(237,474,cs),
(242,498,ls),
(276,659,o),
(373,632,o),
(373,662,cs),
(373,683,o),
(320,685,o),
(212,685,cs),
(142,685,o),
(116,683,o),
(116,666,cs),
(116,631,o),
(184,655,o),
(161,534,cs),
(91,188,ls),
(58,26,o),
(-22,56,o),
(-22,22,cs),
(-22,0,o),
(3,-1,o),
(94,-1,cs),
(208,-1,o),
(228,0,o),
(228,17,cs),
(228,54,o),
(141,26,o),
(174,178,cs),
(191,256,ls),
(207,331,o),
(269,332,o),
(343,332,cs),
(458,332,o),
(519,318,o),
(501,238,cs)
);
}
);
width = 741;
}
);
metricLeft = I;
metricRight = I;
unicode = 72;
},
{
glyphname = Hbar;
lastChange = "2025-05-28 11:40:26 +0000";
layers = (
{
anchors = (
{
name = bottom;
pos = (158,0);
},
{
name = ogonek;
pos = (219,0);
},
{
name = top;
pos = (261,680);
},
{
name = topleft;
pos = (43,680);
}
);
background = {
shapes = (
{
closed = 1;
nodes = (
(57,537,o),
(43,517,o),
(46,496,cs),
(49,476,o),
(65,469,o),
(85,469,cs),
(127,469,o),
(139,482,o),
(372,482,cs),
(652,482,o),
(702,469,o),
(724,473,cs),
(741,476,o),
(763,490,o),
(759,517,cs),
(756,535,o),
(739,545,o),
(712,545,cs),
(673,545,o),
(643,532,o),
(423,532,cs),
(119,532,o),
(114,549,o),
(82,543,cs)
);
},
{
closed = 1;
nodes = (
(491,188,ls),
(460,15,o),
(378,49,o),
(378,15,cs),
(378,-7,o),
(403,-8,o),
(494,-8,cs),
(608,-8,o),
(628,-7,o),
(628,10,cs),
(628,47,o),
(540,19,o),
(574,178,cs),
(642,498,ls),
(676,659,o),
(773,632,o),
(773,662,cs),
(773,683,o),
(720,685,o),
(612,685,cs),
(542,685,o),
(516,683,o),
(516,666,cs),
(516,631,o),
(585,653,o),
(561,534,cs),
(540,432,ls),
(524,356,o),
(469,351,o),
(365,351,cs),
(274,351,o),
(211,349,o),
(231,446,cs),
(242,498,ls),
(275,655,o),
(373,632,o),
(373,662,cs),
(373,683,o),
(320,685,o),
(212,685,cs),
(142,685,o),
(116,683,o),
(116,666,cs),
(116,631,o),
(184,655,o),
(161,534,cs),
(91,188,ls),
(58,19,o),
(-22,49,o),
(-22,15,cs),
(-22,-7,o),
(3,-8,o),
(94,-8,cs),
(208,-8,o),
(228,-7,o),
(228,10,cs),
(228,47,o),
(139,18,o),
(174,178,cs),
(185,228,ls),
(201,303,o),
(263,304,o),
(337,304,cs),
(452,304,o),
(510,291,o),
(495,210,cs)
);
}
);
};
layerId = m01;
shapes = (
{
closed = 1;
nodes = (
(208,-1,o),
(228,0,o),
(228,17,cs),
(228,48,o),
(166,33,o),
(166,113,cs),
(166,131,o),
(168,152,o),
(174,178,cs),
(185,228,ls),
(201,303,o),
(263,304,o),
(337,304,cs),
(440,304,o),
(497,292,o),
(497,237,cs),
(497,214,o),
(494,206,o),
(491,188,cs),
(460,22,o),
(378,56,o),
(378,22,cs),
(378,0,o),
(403,-1,o),
(494,-1,cs),
(608,-1,o),
(628,0,o),
(628,17,cs),
(628,48,o),
(566,33,o),
(566,114,cs),
(566,131,o),
(568,152,o),
(574,178,cs),
(633,458,ls),
(635,469,o),
(643,475,o),
(654,475,cs),
(673,475,o),
(694,472,o),
(713,472,cs),
(730,472,o),
(759,483,o),
(759,511,cs),
(759,533,o),
(742,545,o),
(712,545,cs),
(702,545,o),
(692,543,o),
(680,543,cs),
(663,543,o),
(660,555,o),
(666,568,cs),
(708,651,o),
(773,637,o),
(773,662,cs),
(773,683,o),
(720,685,o),
(612,685,cs),
(542,685,o),
(516,683,o),
(516,666,cs),
(516,636,o),
(567,648,o),
(567,583,cs),
(567,559,o),
(563,535,o),
(543,534,cs),
(445,531,o),
(375,531,o),
(277,533,cs),
(261,533,o),
(255,544,o),
(262,559,cs),
(303,649,o),
(373,637,o),
(373,662,cs),
(373,683,o),
(320,685,o),
(212,685,cs),
(142,685,o),
(116,683,o),
(116,666,cs),
(116,635,o),
(166,649,o),
(166,578,cs),
(166,561,o),
(166,541,o),
(146,541,cs),
(136,541,o),
(111,544,o),
(97,544,cs),
(65,544,o),
(46,524,o),
(46,502,cs),
(46,477,o),
(63,469,o),
(85,469,cs),
(105,469,o),
(144,481,o),
(144,454,cs),
(144,421,o),
(123,346,o),
(91,188,cs),
(58,26,o),
(-22,56,o),
(-22,22,cs),
(-22,0,o),
(3,-1,o),
(94,-1,cs)
);
},
{
closed = 1;
nodes = (
(234,462,cs),
(236,474,o),
(244,481,o),
(266,482,cs),
(323,483,o),
(464,484,o),
(528,481,cs),
(553,480,o),
(546,456,o),
(540,432,cs),
(523,353,o),
(464,351,o),
(351,351,cs),
(278,351,o),
(227,353,o),
(227,414,cs),
(227,423,o),
(229,434,o)
);
}
);
width = 741;
}
);
unicode = 294;
},
{
glyphname = I;
lastChange = "2025-05-28 11:40:26 +0000";
layers = (
{
anchors = (
{
name = bottom;
pos = (158,0);
},
{
name = ogonek;
pos = (219,0);
},
{
name = top;
pos = (261,680);
},
{
name = topleft;
pos = (43,680);
}
);
layerId = m01;
shapes = (
{
closed = 1;
nodes = (
(208,-1,o),
(228,0,o),
(228,17,cs),
(228,54,o),
(142,26,o),
(174,178,cs),
(242,498,ls),
(276,659,o),
(373,632,o),
(373,662,cs),
(373,683,o),
(320,685,o),
(212,685,cs),
(142,685,o),
(116,683,o),
(116,666,cs),
(116,631,o),
(184,655,o),
(161,534,cs),
(91,188,ls),
(58,26,o),
(-22,56,o),
(-22,22,cs),
(-22,0,o),
(3,-1,o),
(94,-1,cs)
);
}
);
width = 341;
}
);
unicode = 73;
},
{
glyphname = Iogonek;
lastChange = "2025-05-28 11:40:26 +0000";
layers = (
{
anchors = (
{
name = bottom;
pos = (158,0);
},
{
name = ogonek;
pos = (219,0);
},
{
name = top;
pos = (261,680);
},
{
name = topleft;
pos = (43,680);
}
);
background = {
shapes = (
{
closed = 1;
nodes = (
(95,-8,o),
(120,-8,o),
(145,-8,c),
(111,-31,o),
(69,-73,o),
(69,-123,cs),
(69,-173,o),
(105,-222,o),
(176,-222,cs),
(259,-222,o),
(305,-164,o),
(305,-127,cs),
(305,-113,o),
(298,-106,o),
(286,-106,cs),
(264,-106,o),
(234,-141,o),
(191,-141,cs),
(164,-141,o),
(143,-126,o),
(143,-97,cs),
(143,-61,o),
(173,-26,o),
(219,-2,c),
(227,1,o),
(228,4,o),
(228,10,cs),
(228,47,o),
(140,19,o),
(174,178,cs),
(242,498,ls),
(276,659,o),
(373,632,o),
(373,662,cs),
(373,683,o),
(320,685,o),
(212,685,cs),
(142,685,o),
(116,683,o),
(116,666,cs),
(116,631,o),
(184,655,o),
(161,534,cs),
(91,188,ls),
(58,19,o),
(-22,49,o),
(-22,15,cs),
(-22,-7,o),
(3,-8,o),
(70,-8,cs)
);
}
);
};
layerId = m01;
shapes = (
{
closed = 1;
nodes = (
(95,0,o),
(121,1,o),
(121,-16,cs),
(121,-36,o),
(69,-63,o),
(69,-123,cs),
(69,-173,o),
(105,-222,o),
(176,-222,cs),
(259,-222,o),
(305,-164,o),
(305,-127,cs),
(305,-113,o),
(298,-106,o),
(286,-106,cs),
(264,-106,o),
(234,-141,o),
(191,-141,cs),
(164,-141,o),
(143,-126,o),
(143,-97,cs),
(143,-61,o),
(173,-18,o),
(217,4,cs),
(225,8,o),
(228,13,o),
(228,18,cs),
(228,55,o),
(142,27,o),
(174,178,cs),
(242,498,ls),
(276,659,o),
(373,632,o),
(373,662,cs),
(373,683,o),
(320,685,o),
(212,685,cs),
(142,685,o),
(116,683,o),
(116,666,cs),
(116,631,o),
(184,655,o),
(161,534,cs),
(91,188,ls),
(58,27,o),
(-22,57,o),
(-22,23,cs),
(-22,1,o),
(3,0,o),
(70,0,cs)
);
}
);
width = 341;
}
);
unicode = 302;
},
{
glyphname = J;
lastChange = "2025-05-28 11:40:26 +0000";
layers = (
{
anchors = (
{
name = bottom;
pos = (270,0);
},
{
name = top;
pos = (366,680);
}
);
layerId = m01;
shapes = (
{
closed = 1;
nodes = (
(178,-244,o),
(350,-77,o),
(373,60,cs),
(401,227,ls),
(406,252,o),
(417,259,o),
(438,259,cs),
(455,259,ls),
(479,259,o),
(501,288,o),
(501,315,cs),
(501,325,o),
(494,328,o),
(473,328,cs),
(454,328,ls),
(433,328,o),
(422,337,o),
(425,355,cs),
(436,425,o),
(443,487,o),
(466,540,cs),
(492,601,o),
(548,633,o),
(548,665,cs),
(548,671,o),
(546,686,o),
(530,686,cs),
(504,686,o),
(427,652,o),
(378,652,cs),
(308,652,o),
(281,694,o),
(246,694,cs),
(188,694,o),
(72,588,o),
(72,542,cs),
(72,531,o),
(80,527,o),
(88,527,cs),
(116,527,o),
(150,591,o),
(189,591,cs),
(229,591,o),
(257,559,o),
(303,559,cs),
(336,559,o),
(366,573,o),
(386,573,cs),
(392,573,o),
(396,569,o),
(396,560,cs),
(396,519,o),
(352,452,o),
(333,381,cs),
(322,341,o),
(317,328,o),
(295,328,cs),
(219,328,ls),
(195,328,o),
(168,310,o),
(168,278,cs),
(168,266,o),
(175,259,o),
(196,259,cs),
(279,259,ls),
(298,259,o),
(308,251,o),
(304,229,cs),
(299,191,o),
(290,128,o),
(280,80,cs),
(237,-133,o),
(158,-178,o),
(94,-178,cs),
(20,-178,o),
(9,-122,o),
(-37,-122,cs),
(-65,-122,o),
(-82,-142,o),
(-82,-167,cs),
(-82,-224,o),
(-12,-244,o),
(48,-244,cs)
);
}
);
width = 566;
},
{
associatedMasterId = m01;
layerId = "4812B12C-BBD0-478B-A904-633712BF549B";
name = "31 oct. 24 à 15:59";
shapes = (
{
closed = 1;
nodes = (
(44,597,o),
(166,694,o),
(214,694,cs),
(249,694,o),
(278,652,o),
(348,652,cs),
(397,652,o),
(469,667,o),
(498,687,cs),
(508,694,o),
(513,696,o),
(519,696,cs),
(525,696,o),
(528,691,o),
(528,685,cs),
(528,663,o),
(451,601,o),
(432,511,cs),
(424,473,o),
(372,115,o),
(364,60,cs),
(344,-77,o),
(189,-244,o),
(39,-244,cs),
(-62,-244,o),
(-137,-185,o),
(-137,-125,cs),
(-137,-96,o),
(-125,-79,o),
(-99,-79,cs),
(-53,-79,o),
(-30,-182,o),
(74,-182,cs),
(158,-182,o),
(232,-133,o),
(267,80,cs),
(293,241,o),
(311,419,o),
(319,442,cs),
(340,506,o),
(366,542,o),
(385,561,cs),
(403,579,o),
(408,588,o),
(408,593,cs),
(408,599,o),
(405,602,o),
(398,602,cs),
(379,602,o),
(327,547,o),
(281,547,cs),
(235,547,o),
(186,601,o),
(146,601,cs),
(97,601,o),
(75,536,o),
(55,536,cs),
(49,536,o),
(44,540,o),
(44,551,cs)
);
},
{
closed = 1;
nodes = (
(488,328,l),
(470,255,l),
(142,255,l),
(160,328,l)
);
}
);
width = 519;
},
{
associatedMasterId = m01;
layerId = "A59BD823-B775-4C39-A7CA-8CA98002C9DB";
name = "31 oct. 24 à 16:06";
shapes = (
{
closed = 1;
nodes = (
(196,-244,o),
(352,-77,o),
(371,60,cs),
(395,237,ls),
(398,256,o),
(410,253,o),
(428,253,cs),
(445,253,ls),
(469,253,o),
(487,274,o),
(487,306,cs),
(487,326,o),
(482,328,o),
(461,328,cs),
(442,328,ls),
(422,328,o),
(409,330,o),
(412,351,cs),
(423,425,o),
(428,487,o),
(444,531,cs),
(469,601,o),
(535,663,o),
(535,685,cs),
(535,691,o),
(532,696,o),
(526,696,cs),
(520,696,o),
(515,694,o),
(505,687,cs),
(476,667,o),
(404,652,o),
(355,652,cs),
(285,652,o),
(246,694,o),
(211,694,cs),
(163,694,o),
(41,597,o),
(41,551,cs),
(41,540,o),
(46,536,o),
(52,536,cs),
(72,536,o),
(94,597,o),
(143,597,cs),
(183,597,o),
(242,547,o),
(288,547,cs),
(334,547,o),
(386,602,o),
(405,602,cs),
(412,602,o),
(415,599,o),
(415,593,cs),
(415,588,o),
(410,579,o),
(392,561,cs),
(333,502,o),
(311,434,o),
(300,351,cs),
(298,332,o),
(287,328,o),
(269,328,cs),
(194,328,ls),
(170,328,o),
(144,309,o),
(144,280,cs),
(144,259,o),
(152,253,o),
(173,253,cs),
(255,253,ls),
(275,253,o),
(286,251,o),
(283,231,cs),
(277,185,o),
(270,128,o),
(262,80,cs),
(227,-133,o),
(165,-183,o),
(81,-183,cs),
(-3,-183,o),
(-36,-82,o),
(-92,-82,cs),
(-118,-82,o),
(-134,-96,o),
(-134,-125,cs),
(-134,-185,o),
(-55,-244,o),
(46,-244,cs)
);
}
);
width = 552;
},
{
associatedMasterId = m01;
layerId = "5E5CF8E6-F96F-4259-8603-14D74441F647";
name = "19 nov. 24 à 16:12";
shapes = (
{
closed = 1;
nodes = (
(178,-244,o),
(349,-77,o),
(373,60,cs),
(403,233,ls),
(407,252,o),
(419,249,o),
(437,249,cs),
(454,249,ls),
(478,249,o),
(498,274,o),
(498,306,cs),
(498,326,o),
(494,328,o),
(473,328,cs),
(454,328,ls),
(434,328,o),
(421,330,o),
(424,351,cs),
(438,425,o),
(445,487,o),
(463,531,cs),
(490,601,o),
(548,633,o),
(548,665,cs),
(548,671,o),
(546,686,o),
(530,686,cs),
(504,686,o),
(427,652,o),
(378,652,cs),
(308,652,o),
(270,694,o),
(235,694,cs),
(177,694,o),
(60,577,o),
(60,531,cs),
(60,520,o),
(68,516,o),
(76,516,cs),
(104,516,o),
(135,583,o),
(174,583,cs),
(214,583,o),
(250,548,o),
(296,548,cs),
(321,548,o),
(356,561,o),
(376,561,cs),
(382,561,o),
(386,557,o),
(386,548,cs),
(386,517,o),
(326,443,o),
(312,351,cs),
(310,332,o),
(299,328,o),
(281,328,cs),
(206,328,ls),
(182,328,o),
(154,309,o),
(154,275,cs),
(154,255,o),
(161,249,o),
(182,249,cs),
(264,249,ls),
(284,249,o),
(295,247,o),
(291,227,cs),
(283,181,o),
(275,128,o),
(265,80,cs),
(222,-133,o),
(158,-178,o),
(84,-178,cs),
(10,-178,o),
(0,-122,o),
(-46,-122,cs),
(-82,-122,o),
(-92,-155,o),
(-92,-168,cs),
(-92,-225,o),
(-22,-244,o),
(38,-244,cs)
);
}
);
width = 566;
},
{
associatedMasterId = m01;
layerId = "B8C73E43-D64C-4FF4-8C73-B28F44024917";
name = "9 janv. 25 à 11:42";
shapes = (
{
closed = 1;
nodes = (
(178,-244,o),
(350,-77,o),
(373,60,cs),
(404,243,ls),
(407,262,o),
(420,259,o),
(438,259,cs),
(455,259,ls),
(479,259,o),
(503,288,o),
(501,315,cs),
(500,325,o),
(494,328,o),
(473,328,cs),
(454,328,ls),
(434,328,o),
(421,330,o),
(424,351,cs),
(438,425,o),
(445,487,o),
(463,531,cs),
(490,601,o),
(548,633,o),
(548,665,cs),
(548,671,o),
(546,686,o),
(530,686,cs),
(504,686,o),
(427,652,o),
(378,652,cs),
(308,652,o),
(281,694,o),
(246,694,cs),
(188,694,o),
(72,583,o),
(72,537,cs),
(72,526,o),
(80,522,o),
(88,522,cs),
(116,522,o),
(147,589,o),
(186,589,cs),
(226,589,o),
(251,554,o),
(297,554,cs),
(322,554,o),
(357,567,o),
(377,567,cs),
(383,567,o),
(387,563,o),
(387,554,cs),
(387,523,o),
(341,443,o),
(327,351,cs),
(325,332,o),
(314,328,o),
(296,328,cs),
(220,328,ls),
(196,328,o),
(169,310,o),
(169,278,cs),
(169,266,o),
(176,259,o),
(197,259,cs),
(280,259,ls),
(300,259,o),
(311,257,o),
(307,237,cs),
(299,191,o),
(290,128,o),
(280,80,cs),
(237,-133,o),
(158,-178,o),
(94,-178,cs),
(20,-178,o),
(10,-122,o),
(-36,-122,cs),
(-72,-122,o),
(-82,-155,o),
(-82,-168,cs),
(-82,-225,o),
(-12,-244,o),
(48,-244,cs)
);
}
);
width = 566;
}
);
unicode = 74;
},
{
glyphname = K;
lastChange = "2025-05-28 11:40:26 +0000";
layers = (
{
anchors = (
{
name = bottom;
pos = (330,0);
},
{
name = ogonek;
pos = (219,0);
},
{
name = top;
pos = (353,680);
},
{
name = topleft;
pos = (43,680);
}
);
layerId = m01;
shapes = (
{
closed = 1;
nodes = (
(208,-1,o),
(228,0,o),
(228,17,cs),
(228,54,o),
(142,26,o),
(174,178,cs),
(195,276,ls),
(200,302,o),
(210,321,o),
(237,321,cs),
(282,321,o),
(324,201,o),
(399,50,cs),
(419,10,o),
(449,-7,o),
(504,-7,cs),
(559,-7,o),
(611,-3,o),
(611,18,cs),
(611,34,o),
(592,40,o),
(550,62,cs),
(512,82,o),
(455,161,o),
(415,222,cs),
(377,279,o),
(348,312,o),
(348,336,cs),
(348,357,o),
(364,378,o),
(399,411,cs),
(484,491,o),
(584,580,o),
(610,602,cs),
(654,639,o),
(687,644,o),
(687,661,cs),
(687,684,o),
(635,680,o),
(565,680,cs),
(467,680,o),
(457,678,o),
(457,663,cs),
(457,646,o),
(500,643,o),
(500,603,cs),
(500,560,o),
(418,491,o),
(372,451,cs),
(320,405,o),
(290,375,o),
(261,375,cs),
(236,375,o),
(220,392,o),
(228,431,cs),
(242,498,ls),
(276,659,o),
(373,632,o),
(373,662,cs),
(373,683,o),
(320,685,o),
(212,685,cs),
(142,685,o),
(116,683,o),
(116,666,cs),
(116,631,o),
(184,655,o),
(161,534,cs),
(91,188,ls),
(58,26,o),
(-22,56,o),
(-22,22,cs),
(-22,0,o),
(3,-1,o),
(94,-1,cs)
);
}
);
width = 660;
},
{
associatedMasterId = m01;
layerId = "FC980D26-1BB5-4150-B636-6C47122F74E5";
name = "19 nov. 24 à 11:25";
shapes = (
{
alignment = -1;
ref = I;
},
{
closed = 1;
nodes = (
(486,492,o),
(574,580,o),
(600,602,cs),
(644,639,o),
(677,644,o),
(677,661,cs),
(677,684,o),
(625,680,o),
(555,680,cs),
(457,680,o),
(447,678,o),
(447,663,cs),
(447,646,o),
(490,643,o),
(490,593,cs),
(490,543,o),
(425,491,o),
(383,446,cs),
(336,396,o),
(288,372,o),
(260,372,cs),
(233,372,o),
(217,396,o),
(224,426,c),
(216,426,l),
(167,259,l),
(187,253,l),
(192,279,o),
(205,308,o),
(236,308,cs),
(285,308,o),
(338,110,o),
(371,50,cs),
(393,11,o),
(421,-7,o),
(476,-7,cs),
(531,-7,o),
(583,-3,o),
(583,18,cs),
(583,34,o),
(564,40,o),
(522,62,cs),
(484,82,o),
(422,157,o),
(391,222,cs),
(364,279,o),
(346,312,o),
(346,332,cs),
(346,357,o),
(375,378,o),
(408,412,cs)
);
}
);
width = 685;
}
);
metricLeft = I;
unicode = 75;
},
{
glyphname = L;
lastChange = "2025-05-28 11:40:26 +0000";
layers = (
{
anchors = (
{
name = bottom;
pos = (236,-6);
},
{
name = center;
pos = (275,340);
},
{
name = top;
pos = (262,680);
},
{
name = topright;
pos = (542,680);
}
);
layerId = m01;
shapes = (
{
closed = 1;
nodes = (
(91,188,ls),
(58,26,o),
(-22,56,o),
(-22,22,cs),
(-22,0,o),
(3,-1,o),
(94,-1,cs),
(261,-2,ls),
(296,-2,o),
(396,-6,o),
(419,-6,cs),
(442,-6,o),
(454,0,o),
(459,18,cs),
(464,36,o),
(495,160,o),
(495,182,cs),
(495,196,o),
(491,207,o),
(480,207,cs),
(469,207,o),
(464,200,o),
(453,182,cs),
(396,88,o),
(309,45,o),
(251,45,cs),
(205,45,o),
(143,63,o),
(169,178,cs),
(242,498,ls),
(279,658,o),
(373,632,o),
(373,662,cs),
(373,683,o),
(320,685,o),
(212,685,cs),
(142,685,o),
(116,683,o),
(116,666,cs),
(116,631,o),
(184,655,o),
(161,534,cs)
);
}
);
width = 539;
}
);
metricLeft = I;
unicode = 76;
},
{
glyphname = Lslash;
lastChange = "2025-05-28 11:40:26 +0000";
layers = (
{
anchors = (
{
name = bottom;
pos = (257,0);
},
{
name = center;
pos = (275,340);
},
{
name = top;
pos = (262,680);
},
{
name = topright;
pos = (542,680);
}
);
layerId = m01;
shapes = (
{
closed = 1;
nodes = (
(139,410,ls),
(135,388,o),
(126,382,o),
(112,379,cs),
(84,373,o),
(59,371,o),
(40,365,cs),
(18,358,o),
(2,337,o),
(2,315,cs),
(2,299,o),
(9,281,o),
(31,281,cs),
(56,281,o),
(74,293,o),
(96,303,cs),
(111,310,o),
(116,304,o),
(112,287,cs),
(91,188,ls),
(57,26,o),
(-22,56,o),
(-22,22,cs),
(-22,0,o),
(3,-1,o),
(94,-1,cs),
(261,-2,ls),
(296,-2,o),
(396,-6,o),
(419,-6,cs),
(442,-6,o),
(454,0,o),
(459,18,cs),
(464,36,o),
(495,160,o),
(495,182,cs),
(495,196,o),
(491,207,o),
(480,207,cs),
(469,207,o),
(464,200,o),
(453,182,cs),
(396,88,o),
(309,45,o),
(251,45,cs),
(205,45,o),
(146,63,o),
(170,178,cs),
(201,325,ls),
(204,338,o),
(210,344,o),
(220,347,cs),
(263,357,o),
(299,360,o),
(325,368,cs),
(355,377,o),
(368,402,o),
(362,425,cs),
(357,442,o),
(342,449,o),
(328,449,cs),
(300,449,o),
(257,413,o),
(237,413,cs),
(227,413,o),
(222,420,o),
(227,439,cs),
(241,498,ls),
(279,657,o),
(373,632,o),
(373,662,cs),
(373,683,o),
(320,685,o),
(212,685,cs),
(142,685,o),
(116,683,o),
(116,665,cs),
(116,631,o),
(186,655,o),
(163,534,cs)
);
}
);
width = 539;
}
);
metricLeft = I;
unicode = 321;
},
{
glyphname = M;
lastChange = "2025-05-28 11:40:26 +0000";
layers = (
{
background = {
shapes = (
{
closed = 1;
nodes = (
(612,687,o),
(591,672,o),
(591,647,cs),
(591,632,o),
(589,621,o),
(579,604,cs),
(569,587,o),
(443,379,o),
(436,368,cs),
(429,357,o),
(420,346,o),
(413,346,cs),
(404,346,o),
(401,354,o),
(392,376,cs),
(369,434,o),
(335,582,o),
(335,619,cs),
(335,640,o),
(350,655,o),
(350,669,cs),
(350,683,o),
(346,691,o),
(333,691,cs),
(320,691,o),
(293,677,o),
(268,677,cs),
(243,677,o),
(206,687,o),
(189,687,cs),
(177,687,o),
(158,680,o),
(158,664,cs),
(158,636,o),
(218,628,o),
(218,576,cs),
(218,509,o),
(189,477,o),
(148,339,cs),
(110,210,o),
(76,100,o),
(50,78,cs),
(6,41,o),
(-25,36,o),
(-27,19,cs),
(-28,-4,o),
(21,0,o),
(87,0,cs),
(198,0,o),
(219,2,o),
(219,15,cs),
(219,44,o),
(155,41,o),
(148,101,cs),
(147,106,o),
(147,112,o),
(147,119,cs),
(147,162,o),
(161,230,o),
(193,327,cs),
(236,456,o),
(238,470,o),
(251,470,cs),
(261,470,o),
(266,446,o),
(273,428,cs),
(279,410,o),
(336,233,o),
(342,211,cs),
(348,189,o),
(350,178,o),
(365,178,cs),
(380,178,o),
(386,194,o),
(396,210,cs),
(406,226,o),
(530,440,o),
(541,457,cs),
(553,474,o),
(562,490,o),
(572,490,cs),
(586,490,o),
(588,474,o),
(588,391,cs),
(588,312,o),
(573,204,o),
(564,146,cs),
(555,88,o),
(544,70,o),
(517,55,cs),
(499,45,o),
(477,37,o),
(476,21,cs),
(475,3,o),
(493,3,o),
(612,3,cs),
(729,3,o),
(744,5,o),
(745,21,cs),
(745,29,o),
(740,35,o),
(721,45,cs),
(698,57,o),
(679,73,o),
(673,142,cs),
(668,211,o),
(671,401,o),
(682,479,cs),
(688,514,o),
(701,575,o),
(735,605,cs),
(762,630,o),
(807,647,o),
(807,666,cs),
(807,685,o),
(797,691,o),
(787,691,cs),
(777,691,o),
(739,683,o),
(708,683,cs),
(677,683,o),
(651,687,o),
(632,687,cs)
);
}
);
};
layerId = m01;
shapes = (
{
closed = 1;
nodes = (
(612,687,o),
(591,672,o),
(591,647,cs),
(591,632,o),
(589,621,o),
(579,604,cs),
(569,587,o),
(443,379,o),
(436,368,cs),
(429,357,o),
(420,346,o),
(413,346,cs),
(404,346,o),
(401,354,o),
(392,376,cs),
(369,434,o),
(335,582,o),
(335,619,cs),
(335,640,o),
(350,655,o),
(350,673,cs),
(350,683,o),
(344,691,o),
(333,691,cs),
(312,691,o),
(293,677,o),
(268,677,cs),
(243,677,o),
(206,687,o),
(189,687,cs),
(170,687,o),
(158,681,o),
(158,664,cs),
(158,636,o),
(218,628,o),
(218,576,cs),
(218,509,o),
(189,477,o),
(148,339,cs),
(110,210,o),
(76,100,o),
(50,78,cs),
(6,41,o),
(-27,36,o),
(-27,19,cs),
(-27,-4,o),
(21,0,o),
(87,0,cs),
(198,0,o),
(219,2,o),
(219,15,cs),
(219,47,o),
(147,37,o),
(147,119,cs),
(147,162,o),
(161,230,o),
(193,327,cs),
(236,456,o),
(238,470,o),
(251,470,cs),
(261,470,o),
(266,446,o),
(273,428,cs),
(279,410,o),
(336,233,o),
(342,211,cs),
(348,189,o),
(350,178,o),
(365,178,cs),
(380,178,o),
(386,194,o),
(396,210,cs),
(406,226,o),
(530,440,o),
(541,457,cs),
(553,474,o),
(562,490,o),
(572,490,cs),
(586,490,o),
(588,474,o),
(588,391,cs),
(588,312,o),
(573,204,o),
(564,146,cs),
(555,85,o),
(544,67,o),
(517,52,cs),
(499,42,o),
(476,34,o),
(476,18,cs),
(476,0,o),
(493,0,o),
(612,0,cs),
(729,0,o),
(745,2,o),
(745,18,cs),
(745,26,o),
(740,32,o),
(721,42,cs),
(698,54,o),
(679,70,o),
(673,142,cs),
(667,211,o),
(671,401,o),
(682,479,cs),
(688,514,o),
(701,575,o),
(735,605,cs),
(762,630,o),
(807,647,o),
(807,673,cs),
(807,684,o),
(800,691,o),
(784,691,cs),
(765,691,o),
(739,684,o),
(708,684,cs),
(677,684,o),
(659,687,o),
(637,687,cs)
);
}
);
width = 840;
},
{
associatedMasterId = m01;
backgroundImage = {
imagePath = "/Downloads/Images/M_-Regular.tif";
locked = 1;
pos = (-117,-98);
scale = (2.9729,2.9729);
};
layerId = "1FFDA39D-98B4-4261-894B-40A6CDADF598";
name = "19 nov. 24 à 17:10";
shapes = (
{
closed = 1;
nodes = (
(606,687,o),
(587,672,o),
(587,647,cs),
(587,632,o),
(586,621,o),
(577,604,cs),
(568,587,o),
(452,377,o),
(445,366,cs),
(438,355,o),
(430,344,o),
(422,344,cs),
(413,344,o),
(409,352,o),
(398,374,cs),
(369,432,o),
(317,582,o),
(317,619,cs),
(317,640,o),
(329,655,o),
(329,669,cs),
(329,683,o),
(323,691,o),
(310,691,cs),
(296,691,o),
(268,677,o),
(242,677,cs),
(215,677,o),
(175,687,o),
(157,687,cs),
(144,687,o),
(126,680,o),
(126,664,cs),
(126,636,o),
(196,628,o),
(196,576,cs),
(196,509,o),
(173,477,o),
(140,339,cs),
(109,210,o),
(81,100,o),
(55,78,cs),
(11,41,o),
(-22,36,o),
(-22,19,cs),
(-22,-4,o),
(30,0,o),
(100,0,cs),
(218,0,o),
(239,2,o),
(239,15,cs),
(239,44,o),
(169,41,o),
(157,101,cs),
(149,141,o),
(154,215,o),
(185,327,cs),
(221,456,o),
(225,470,o),
(239,470,cs),
(250,470,o),
(257,446,o),
(265,428,cs),
(273,410,o),
(347,233,o),
(355,211,cs),
(363,189,o),
(366,178,o),
(382,178,cs),
(398,178,o),
(403,194,o),
(412,210,cs),
(421,226,o),
(537,440,o),
(548,457,cs),
(559,474,o),
(567,490,o),
(578,490,cs),
(593,490,o),
(599,474,o),
(603,378,cs),
(606,312,o),
(600,204,o),
(595,146,cs),
(590,88,o),
(579,70,o),
(552,55,cs),
(534,45,o),
(511,37,o),
(511,21,cs),
(511,3,o),
(530,3,o),
(657,3,cs),
(781,3,o),
(796,5,o),
(796,21,cs),
(796,29,o),
(790,35,o),
(769,45,cs),
(744,57,o),
(722,73,o),
(711,142,cs),
(700,211,o),
(690,401,o),
(696,479,cs),
(699,514,o),
(709,575,o),
(742,605,cs),
(769,630,o),
(814,647,o),
(814,666,cs),
(814,685,o),
(802,691,o),
(791,691,cs),
(780,691,o),
(741,683,o),
(708,683,cs),
(675,683,o),
(647,687,o),
(627,687,cs)
);
}
);
width = 843;
}
);
unicode = 77;
},
{
glyphname = N;
lastChange = "2025-05-28 11:40:26 +0000";
layers = (
{
anchors = (
{
name = bottom;
pos = (319,0);
},
{
name = top;
pos = (445,680);
}
);
layerId = m01;
shapes = (
{
closed = 1;
nodes = (
(616,465,o),
(634,564,o),
(667,599,cs),
(700,634,o),
(741,634,o),
(741,656,cs),
(741,679,o),
(691,676,o),
(623,676,cs),
(542,676,o),
(489,676,o),
(489,654,cs),
(489,629,o),
(556,634,o),
(568,574,cs),
(576,534,o),
(566,461,o),
(539,348,cs),
(523,281,o),
(511,220,o),
(506,201,cs),
(502,186,o),
(497,173,o),
(486,173,cs),
(476,173,o),
(471,187,o),
(463,204,cs),
(456,221,o),
(325,522,o),
(315,547,cs),
(305,573,o),
(302,590,o),
(302,604,cs),
(302,629,o),
(318,643,o),
(318,661,cs),
(318,677,o),
(296,684,o),
(220,684,cs),
(134,684,o),
(88,683,o),
(88,662,cs),
(88,628,o),
(174,637,o),
(174,578,cs),
(174,498,o),
(142,399,o),
(131,339,cs),
(106,210,o),
(84,108,o),
(49,73,cs),
(15,39,o),
(-22,36,o),
(-22,19,cs),
(-22,-4,o),
(28,0,o),
(96,0,cs),
(210,0,o),
(230,2,o),
(230,15,cs),
(230,44,o),
(163,41,o),
(151,101,cs),
(143,141,o),
(154,214,o),
(178,327,cs),
(196,409,o),
(201,438,o),
(205,457,cs),
(208,470,o),
(213,479,o),
(221,479,cs),
(228,479,o),
(232,474,o),
(238,460,cs),
(243,449,o),
(405,73,o),
(421,41,cs),
(436,9,o),
(451,-9,o),
(470,-9,cs),
(490,-9,o),
(508,5,o),
(516,38,cs),
(531,104,o),
(563,241,o),
(586,336,cs)
);
}
);
width = 700;
},
{
associatedMasterId = m01;
backgroundImage = {
angle = -0.1;
imagePath = "/Downloads/Images/N_-Regular.tif";
locked = 1;
pos = (-125,-76);
scale = (2.9729,2.9729);
};
layerId = "094D8AAA-205C-4BB1-B28D-6C53FD9BA588";
name = "31 oct. 24 à 17:00";
shapes = (
{
closed = 1;
nodes = (
(131,218,o),
(121,164,o),
(47,125,cs),
(-19,90,o),
(-31,70,o),
(-31,40,cs),
(-31,10,o),
(-9,-16,o),
(28,-16,cs),
(77,-16,o),
(140,6,o),
(180,195,cs),
(220,384,o),
(230,431,o),
(236,457,cs),
(239,470,o),
(242,478,o),
(250,478,cs),
(257,478,o),
(260,473,o),
(266,459,cs),
(271,448,o),
(429,72,o),
(445,40,cs),
(461,8,o),
(480,-9,o),
(500,-9,cs),
(520,-9,o),
(539,5,o),
(547,38,cs),
(571,139,o),
(631,400,o),
(645,438,cs),
(688,555,o),
(825,544,o),
(825,628,cs),
(825,672,o),
(798,696,o),
(760,696,cs),
(702,696,o),
(652,656,o),
(616,524,cs),
(580,392,o),
(547,236,o),
(537,201,cs),
(533,186,o),
(528,173,o),
(516,173,cs),
(506,173,o),
(502,181,o),
(495,201,cs),
(488,221,o),
(358,521,o),
(349,547,cs),
(340,573,o),
(336,590,o),
(336,602,cs),
(336,629,o),
(353,643,o),
(353,661,cs),
(353,677,o),
(342,684,o),
(251,684,cs),
(162,684,o),
(115,683,o),
(115,662,cs),
(115,628,o),
(204,637,o),
(204,578,cs),
(204,519,o),
(193,481,o),
(164,358,cs)
);
}
);
width = 765;
},
{
associatedMasterId = m01;
backgroundImage = {
angle = -0.1;
imagePath = "/Downloads/Images/N_-Regular.tif";
locked = 1;
pos = (-125,-76);
scale = (2.9729,2.9729);
};
layerId = "94269BE9-8899-4D92-9D9C-964E061F7703";
name = "31 oct. 24 à 17:02";
shapes = (
{
closed = 1;
nodes = (
(227,409,o),
(232,438,o),
(236,457,cs),
(239,470,o),
(242,478,o),
(250,478,cs),
(257,478,o),
(260,473,o),
(266,459,cs),
(271,448,o),
(429,72,o),
(445,40,cs),
(461,8,o),
(480,-9,o),
(500,-9,cs),
(520,-9,o),
(539,5,o),
(547,38,cs),
(571,139,o),
(635,401,o),
(645,438,cs),
(698,635,o),
(825,544,o),
(825,628,cs),
(825,672,o),
(798,696,o),
(760,696,cs),
(702,696,o),
(652,656,o),
(616,524,cs),
(580,392,o),
(547,236,o),
(537,201,cs),
(533,186,o),
(528,173,o),
(516,173,cs),
(506,173,o),
(502,181,o),
(495,201,cs),
(488,221,o),
(358,521,o),
(349,547,cs),
(340,573,o),
(336,590,o),
(336,602,cs),
(336,629,o),
(353,643,o),
(353,661,cs),
(353,677,o),
(342,684,o),
(251,684,cs),
(162,684,o),
(115,683,o),
(115,662,cs),
(115,628,o),
(204,637,o),
(204,578,cs),
(204,498,o),
(177,399,o),
(162,339,cs),
(131,210,o),
(103,100,o),
(77,78,cs),
(33,41,o),
(0,36,o),
(0,19,cs),
(0,-4,o),
(52,0,o),
(122,0,cs),
(240,0,o),
(261,2,o),
(261,15,cs),
(261,44,o),
(191,41,o),
(179,101,cs),
(171,141,o),
(179,214,o),
(207,327,cs)
);
}
);
width = 765;
},
{
associatedMasterId = m01;
backgroundImage = {
angle = -0.1;
imagePath = "/Downloads/Images/N_-Regular.tif";
locked = 1;
pos = (-148,-76);
scale = (2.9729,2.9729);
};
layerId = "E9E54F51-0507-4C41-9FCF-BA3FE8B30AB9";
name = "19 nov. 24 à 17:09";
shapes = (
{
closed = 1;
nodes = (
(636,465,o),
(664,575,o),
(690,597,cs),
(734,634,o),
(767,639,o),
(767,656,cs),
(767,679,o),
(715,675,o),
(645,675,cs),
(527,675,o),
(506,673,o),
(506,660,cs),
(506,631,o),
(576,634,o),
(588,574,cs),
(596,534,o),
(588,461,o),
(560,348,cs),
(544,281,o),
(529,220,o),
(524,201,cs),
(520,186,o),
(515,173,o),
(503,173,cs),
(493,173,o),
(489,181,o),
(482,201,cs),
(475,221,o),
(335,521,o),
(326,547,cs),
(317,573,o),
(313,590,o),
(313,602,cs),
(313,629,o),
(330,643,o),
(330,661,cs),
(330,677,o),
(319,684,o),
(228,684,cs),
(139,684,o),
(92,683,o),
(92,662,cs),
(92,628,o),
(181,637,o),
(181,578,cs),
(181,498,o),
(151,399,o),
(139,339,cs),
(113,210,o),
(81,100,o),
(55,78,cs),
(11,41,o),
(-22,36,o),
(-22,19,cs),
(-22,-4,o),
(30,0,o),
(100,0,cs),
(218,0,o),
(239,2,o),
(239,15,cs),
(239,44,o),
(169,41,o),
(157,101,cs),
(149,141,o),
(159,214,o),
(184,327,cs),
(202,409,o),
(209,438,o),
(213,457,cs),
(216,470,o),
(221,479,o),
(229,479,cs),
(236,479,o),
(241,474,o),
(247,460,cs),
(252,449,o),
(420,73,o),
(436,41,cs),
(452,9,o),
(467,-9,o),
(487,-9,cs),
(507,-9,o),
(526,5,o),
(534,38,cs),
(550,104,o),
(581,241,o),
(605,336,cs)
);
}
);
width = 726;
}
);
unicode = 78;
},
{
glyphname = O;
lastChange = "2025-05-28 11:40:26 +0000";
layers = (
{
anchors = (
{
name = bottom;
pos = (333,0);
},
{
name = center;
pos = (351,340);
},
{
name = ogonek;
pos = (610,10);
},
{
name = top;
pos = (366,680);
},
{
name = topleft;
pos = (43,680);
},
{
name = topright;
pos = (695,680);
}
);
layerId = m01;
shapes = (
{
closed = 1;
nodes = (
(525,-14,o),
(659,185,o),
(659,404,cs),
(659,566,o),
(563,694,o),
(386,694,cs),
(165,694,o),
(43,497,o),
(43,285,cs),
(43,127,o),
(139,-14,o),
(313,-14,cs)
);
},
{
closed = 1;
nodes = (
(216,42,o),
(159,220,o),
(159,342,cs),
(159,484,o),
(209,640,o),
(349,640,cs),
(483,640,o),
(536,471,o),
(536,342,cs),
(536,215,o),
(496,42,o),
(356,42,cs)
);
}
);
width = 692;
}
);
unicode = 79;
},
{
glyphname = Oslash;
lastChange = "2025-05-28 11:40:26 +0000";
layers = (
{
anchors = (
{
name = bottom;
pos = (287,0);
},
{
name = center;
pos = (351,340);
},
{
name = ogonek;
pos = (610,10);
},
{
name = top;
pos = (323,680);
},
{
name = topleft;
pos = (43,680);
},
{
name = topright;
pos = (695,680);
}
);
layerId = m01;
shapes = (
{
closed = 1;
nodes = (
(525,-14,o),
(659,185,o),
(659,404,cs),
(659,462,o),
(647,515,o),
(623,560,cs),
(616,573,o),
(617,584,o),
(628,595,cs),
(656,620,o),
(700,655,o),
(700,696,cs),
(700,717,o),
(686,732,o),
(663,732,cs),
(620,732,o),
(592,686,o),
(571,660,cs),
(561,647,o),
(550,645,o),
(536,654,cs),
(496,679,o),
(446,694,o),
(386,694,cs),
(165,694,o),
(43,497,o),
(43,285,cs),
(43,237,o),
(52,190,o),
(69,148,cs),
(75,135,o),
(73,124,o),
(63,114,cs),
(32,82,o),
(-12,52,o),
(-12,12,cs),
(-12,-14,o),
(2,-30,o),
(29,-30,cs),
(66,-30,o),
(99,13,o),
(116,36,cs),
(126,49,o),
(138,50,o),
(151,39,cs),
(193,6,o),
(247,-14,o),
(313,-14,cs)
);
},
{
closed = 1;
nodes = (
(294,40,o),
(247,74,o),
(213,125,cs),
(205,138,o),
(206,149,o),
(216,160,cs),
(250,201,o),
(295,256,o),
(366,331,cs),
(413,381,o),
(460,426,o),
(496,463,cs),
(510,477,o),
(526,473,o),
(530,453,cs),
(538,417,o),
(542,379,o),
(542,342,cs),
(542,203,o),
(496,40,o),
(356,40,cs)
);
},
{
closed = 1;
nodes = (
(155,498,o),
(213,641,o),
(349,641,cs),
(404,641,o),
(446,615,o),
(476,576,cs),
(485,564,o),
(484,553,o),
(475,541,cs),
(437,497,o),
(387,439,o),
(327,374,cs),
(269,312,o),
(229,275,o),
(198,243,cs),
(183,229,o),
(168,233,o),
(164,253,cs),
(158,282,o),
(155,313,o),
(155,342,cs)
);
}
);
width = 692;
}
);
unicode = 216;
},
{
glyphname = OE;
lastChange = "2025-05-28 11:40:26 +0000";
layers = (
{
anchors = (
{
name = bottom;
pos = (287,0);
},
{
name = center;
pos = (351,340);
},
{
name = ogonek;
pos = (610,10);
},
{
name = top;
pos = (323,680);
},
{
name = topleft;
pos = (43,680);
},
{
name = topright;
pos = (695,680);
}
);
layerId = m01;
shapes = (
{
closed = 1;
nodes = (
(760,246,o),
(788,396,o),
(788,452,cs),
(788,476,o),
(785,496,o),
(774,496,cs),
(746,496,o),
(751,404,o),
(635,404,cs),
(597,404,o),
(585,426,o),
(593,463,cs),
(607,527,ls),
(624,606,o),
(641,636,o),
(738,636,cs),
(815,636,o),
(869,583,o),
(869,497,cs),
(869,481,o),
(877,474,o),
(886,474,cs),
(915,474,o),
(941,615,o),
(941,643,cs),
(941,661,o),
(943,670,o),
(908,676,cs),
(864,683,o),
(781,683,o),
(722,683,cs),
(558,683,ls),
(476,683,o),
(442,694,o),
(386,694,cs),
(165,694,o),
(43,497,o),
(43,285,cs),
(43,127,o),
(127,-14,o),
(301,-14,cs),
(431,-14,o),
(476,-2,o),
(618,-2,cs),
(653,-2,o),
(753,-6,o),
(776,-6,cs),
(799,-6,o),
(811,0,o),
(816,18,cs),
(821,36,o),
(852,160,o),
(852,182,cs),
(852,196,o),
(848,207,o),
(837,207,cs),
(826,207,o),
(821,200,o),
(810,182,cs),
(753,88,o),
(666,45,o),
(608,45,cs),
(562,45,o),
(510,63,o),
(534,178,cs),
(560,302,ls),
(568,338,o),
(584,353,o),
(622,353,cs),
(735,353,o),
(680,246,o),
(724,246,cs)
);
},
{
closed = 1;
nodes = (
(159,484,o),
(209,640,o),
(349,640,cs),
(435,640,o),
(511,606,o),
(511,525,cs),
(511,445,o),
(470,288,o),
(448,188,cs),
(434,123,o),
(410,42,o),
(341,42,cs),
(204,42,o),
(159,220,o),
(159,342,cs)
);
}
);
width = 940;
}
);
metricLeft = O;
metricRight = E;
unicode = 338;
},
{
glyphname = P;
lastChange = "2025-05-28 11:40:26 +0000";
layers = (
{
guides = (
{
angle = 258.6126;
pos = (223,406);
}
);
layerId = m01;
shapes = (
{
closed = 1;
nodes = (
(208,0,o),
(228,-4,o),
(228,13,cs),
(228,50,o),
(140,28,o),
(175,178,cs),
(185,221,ls),
(197,272,o),
(222,283,o),
(267,283,cs),
(463,283,o),
(593,474,o),
(593,565,cs),
(593,666,o),
(460,683,o),
(366,683,cs),
(202,683,ls),
(134,683,o),
(117,682,o),
(117,666,cs),
(117,631,o),
(187,655,o),
(162,534,cs),
(130,380,l),
(91,188,ls),
(58,27,o),
(-22,51,o),
(-22,17,cs),
(-22,-5,o),
(3,0,o),
(94,0,cs)
);
},
{
closed = 1;
nodes = (
(249,518,ls),
(268,605,o),
(305,636,o),
(367,636,cs),
(429,636,o),
(473,606,o),
(473,547,cs),
(473,429,o),
(351,329,o),
(266,329,cs),
(228,329,o),
(212,350,o),
(222,396,cs)
);
}
);
width = 548;
}
);
metricLeft = I;
unicode = 80;
},
{
glyphname = Thorn;
lastChange = "2025-05-28 11:40:26 +0000";
layers = (
{
anchors = (
{
name = bottom;
pos = (287,0);
},
{
name = top;
pos = (323,680);
}
);
layerId = m01;
shapes = (
{
closed = 1;
nodes = (
(233,483,o),
(246,495,o),
(321,495,cs),
(378,495,o),
(428,458,o),
(428,395,cs),
(428,284,o),
(319,224,o),
(229,224,cs),
(190,224,o),
(187,240,o),
(195,283,cs),
(217,400,ls)
);
},
{
closed = 1;
nodes = (
(-22,-7,o),
(3,-8,o),
(94,-8,cs),
(208,-8,o),
(228,-7,o),
(228,10,cs),
(228,42,o),
(167,27,o),
(167,131,cs),
(167,167,o),
(180,180,o),
(228,180,cs),
(420,180,o),
(540,320,o),
(540,412,cs),
(540,513,o),
(407,538,o),
(320,538,cs),
(271,538,o),
(258,546,o),
(273,573,cs),
(320,656,o),
(373,638,o),
(373,662,cs),
(373,683,o),
(320,685,o),
(212,685,cs),
(142,685,o),
(116,683,o),
(116,666,cs),
(116,631,o),
(184,655,o),
(161,534,cs),
(91,188,ls),
(57,19,o),
(-22,49,o),
(-22,15,cs)
);
}
);
width = 548;
},
{
anchors = (
{
name = bottom;
pos = (287,0);
},
{
name = top;
pos = (323,680);
}
);
associatedMasterId = m01;
layerId = "CD97423E-0629-4590-9116-34374B290231";
name = "12 mars 25 à 11:14";
shapes = (
{
closed = 1;
nodes = (
(161,139,l),
(174,165,o),
(195,171,o),
(228,171,cs),
(410,171,o),
(530,346,o),
(530,430,cs),
(530,523,o),
(407,538,o),
(320,538,cs),
(274,538,o),
(264,534,o),
(257,557,c),
(228,465,l),
(255,482,o),
(283,495,o),
(321,495,cs),
(378,495,o),
(419,468,o),
(419,413,cs),
(419,305,o),
(306,213,o),
(228,213,cs),
(201,213,o),
(185,224,o),
(184,248,c)
);
},
{
closed = 1;
nodes = (
(222,419,o),
(230,459,o),
(242,498,cs),
(291,655,o),
(373,632,o),
(373,662,cs),
(373,683,o),
(320,685,o),
(212,685,cs),
(142,685,o),
(116,683,o),
(116,666,cs),
(116,631,o),
(184,655,o),
(161,534,cs),
(153,492,o),
(144,449,o),
(130,380,cs),
(91,188,ls),
(57,19,o),
(-22,49,o),
(-22,15,cs),
(-22,-7,o),
(3,-8,o),
(94,-8,cs),
(208,-8,o),
(228,-7,o),
(228,10,cs),
(228,47,o),
(140,21,o),
(175,178,cs),
(194,263,o),
(202,323,o),
(214,380,cs)
);
}
);
width = 548;
}
);
unicode = 222;
},
{
glyphname = Q;
lastChange = "2025-05-28 11:40:26 +0000";
layers = (
{
background = {
shapes = (
{
closed = 1;
nodes = (
(214,42,o),
(157,220,o),
(157,342,cs),
(157,484,o),
(207,640,o),
(347,640,cs),
(481,640,o),
(534,471,o),
(534,342,cs),
(534,215,o),
(494,42,o),
(354,42,cs)
);
},
{
closed = 1;
nodes = (
(565,-246,o),
(694,-144,o),
(694,-113,cs),
(694,-106,o),
(691,-91,o),
(673,-91,cs),
(651,-91,o),
(605,-151,o),
(548,-151,cs),
(493,-151,o),
(440,-116,o),
(364,-103,cs),
(318,-95,o),
(283,-93,o),
(283,-76,cs),
(283,-37,o),
(409,0,o),
(444,14,cs),
(572,71,o),
(657,232,o),
(657,404,cs),
(657,566,o),
(561,694,o),
(384,694,cs),
(163,694,o),
(41,497,o),
(41,285,cs),
(41,168,o),
(94,60,o),
(193,12,c),
(217,-2,o),
(235,-21,o),
(235,-41,cs),
(235,-106,o),
(49,-133,o),
(49,-193,cs),
(49,-206,o),
(60,-213,o),
(71,-213,cs),
(93,-213,o),
(176,-159,o),
(238,-172,cs),
(333,-192,o),
(387,-246,o),
(460,-246,cs)
);
}
);
};
layerId = m01;
shapes = (
{
closed = 1;
nodes = (
(204,44,o),
(156,193,o),
(156,342,cs),
(156,484,o),
(207,640,o),
(347,640,cs),
(488,640,o),
(538,485,o),
(538,342,cs),
(538,212,o),
(494,44,o),
(347,44,cs)
);
},
{
closed = 1;
nodes = (
(565,-246,o),
(694,-144,o),
(694,-113,cs),
(694,-106,o),
(691,-91,o),
(673,-91,cs),
(651,-91,o),
(605,-151,o),
(548,-151,cs),
(493,-151,o),
(440,-116,o),
(364,-103,cs),
(318,-95,o),
(283,-93,o),
(283,-76,cs),
(283,-34,o),
(390,-21,o),
(482,35,cs),
(591,102,o),
(657,250,o),
(657,395,cs),
(657,555,o),
(550,694,o),
(384,694,cs),
(163,694,o),
(43,497,o),
(43,285,cs),
(43,37,o),
(235,26,o),
(235,-41,cs),
(235,-106,o),
(49,-133,o),
(49,-193,cs),
(49,-206,o),
(60,-213,o),
(71,-213,cs),
(93,-213,o),
(176,-159,o),
(238,-172,cs),
(333,-192,o),
(387,-246,o),
(460,-246,cs)
);
}
);
width = 718;
},
{
associatedMasterId = m01;
backgroundImage = {
imagePath = "/Downloads/Images/Q_-Regular.tif";
locked = 1;
pos = (-87,-310);
scale = (2.9729,2.9729);
};
layerId = "A2E6EB28-5777-483A-98A5-4BE7ED707151";
name = "31 oct. 24 à 12:31";
shapes = (
{
ref = O;
},
{
closed = 1;
nodes = (
(209,1,o),
(217,-13,o),
(217,-24,cs),
(217,-79,o),
(19,-163,o),
(19,-199,cs),
(19,-216,o),
(36,-229,o),
(47,-229,cs),
(59,-229,o),
(171,-164,o),
(234,-164,cs),
(329,-164,o),
(362,-275,o),
(446,-275,cs),
(541,-275,o),
(693,-160,o),
(693,-122,cs),
(693,-106,o),
(684,-103,o),
(675,-103,cs),
(656,-103,o),
(591,-157,o),
(536,-157,cs),
(481,-157,o),
(426,-90,o),
(360,-90,cs),
(294,-90,o),
(265,-109,o),
(253,-109,cs),
(242,-109,o),
(239,-103,o),
(239,-97,cs),
(239,-70,o),
(372,-12,o),
(413,1,c),
(354,18,l),
(183,13,l)
);
}
);
width = 643;
},
{
associatedMasterId = m01;
backgroundImage = {
imagePath = "/Downloads/Images/Q_-Regular.tif";
locked = 1;
pos = (-87,-310);
scale = (2.9729,2.9729);
};
layerId = "F84C6CB8-DA1B-42CA-9577-F4152897EDD8";
name = "31 oct. 24 à 15:26";
shapes = (
{
ref = O;
},
{
closed = 1;
nodes = (
(571,-246,o),
(713,-134,o),
(713,-106,cs),
(713,-97,o),
(707,-92,o),
(698,-92,cs),
(679,-92,o),
(611,-146,o),
(556,-146,cs),
(499,-146,o),
(446,-85,o),
(380,-85,cs),
(324,-85,o),
(286,-108,o),
(272,-108,cs),
(262,-108,o),
(259,-103,o),
(259,-97,cs),
(259,-70,o),
(392,-12,o),
(433,1,c),
(374,18,l),
(203,13,l),
(229,1,o),
(237,-13,o),
(237,-24,cs),
(237,-79,o),
(39,-163,o),
(39,-199,cs),
(39,-216,o),
(52,-221,o),
(63,-221,cs),
(85,-221,o),
(191,-153,o),
(254,-153,cs),
(349,-153,o),
(402,-246,o),
(476,-246,cs)
);
}
);
width = 732;
},
{
associatedMasterId = m01;
backgroundImage = {
imagePath = "/Downloads/Images/Q_-Regular.tif";
locked = 1;
pos = (-87,-310);
scale = (2.9729,2.9729);
};
layerId = "EB461433-BCF2-4877-B41B-5F56C7B427EF";
name = "31 oct. 24 à 15:45";
shapes = (
{
ref = O;
},
{
closed = 1;
nodes = (
(571,-246,o),
(713,-134,o),
(713,-106,cs),
(713,-97,o),
(707,-92,o),
(698,-92,cs),
(679,-92,o),
(611,-146,o),
(556,-146,cs),
(499,-146,o),
(446,-85,o),
(380,-85,cs),
(324,-85,o),
(306,-98,o),
(292,-98,cs),
(282,-98,o),
(279,-93,o),
(279,-87,cs),
(279,-60,o),
(392,-12,o),
(433,1,c),
(374,18,l),
(203,13,l),
(229,1,o),
(237,-13,o),
(237,-24,cs),
(237,-79,o),
(39,-163,o),
(39,-199,cs),
(39,-216,o),
(52,-221,o),
(63,-221,cs),
(85,-221,o),
(191,-153,o),
(254,-153,cs),
(349,-153,o),
(402,-246,o),
(476,-246,cs)
);
}
);
width = 732;
},
{
associatedMasterId = m01;
backgroundImage = {
imagePath = "/Downloads/Images/Q_-Regular.tif";
locked = 1;
pos = (-87,-310);
scale = (2.9729,2.9729);
};
layerId = "CB18FBB1-69DB-48B8-ADBD-5ABD8838F757";
name = "31 oct. 24 à 16:15";
shapes = (
{
ref = O;
},
{
closed = 1;
nodes = (
(561,-246,o),
(710,-124,o),
(710,-103,cs),
(710,-96,o),
(707,-91,o),
(699,-91,cs),
(677,-91,o),
(621,-153,o),
(566,-153,cs),
(509,-153,o),
(446,-85,o),
(380,-85,cs),
(324,-85,o),
(306,-98,o),
(292,-98,cs),
(282,-98,o),
(279,-93,o),
(279,-87,cs),
(279,-60,o),
(370,-12,o),
(433,2,c),
(374,18,l),
(203,15,l),
(229,1,o),
(251,-13,o),
(251,-34,cs),
(251,-99,o),
(45,-163,o),
(45,-203,cs),
(45,-216,o),
(52,-221,o),
(63,-221,cs),
(85,-221,o),
(191,-154,o),
(254,-154,cs),
(349,-154,o),
(402,-246,o),
(476,-246,cs)
);
}
);
width = 732;
},
{
associatedMasterId = m01;
layerId = "CC97EA85-1CE1-4B9F-82D1-D6759A01FCEA";
name = "8 janv. 25 à 12:16";
shapes = (
{
closed = 1;
nodes = (
(216,42,o),
(159,220,o),
(159,342,cs),
(159,484,o),
(209,640,o),
(349,640,cs),
(483,640,o),
(536,471,o),
(536,342,cs),
(536,215,o),
(496,42,o),
(356,42,cs)
);
},
{
closed = 1;
nodes = (
(567,-246,o),
(696,-144,o),
(696,-113,cs),
(696,-106,o),
(693,-91,o),
(675,-91,cs),
(653,-91,o),
(607,-151,o),
(550,-151,cs),
(495,-151,o),
(442,-116,o),
(366,-103,cs),
(320,-95,o),
(285,-93,o),
(285,-76,cs),
(285,-37,o),
(411,0,o),
(446,14,cs),
(574,71,o),
(659,232,o),
(659,404,cs),
(659,566,o),
(563,694,o),
(386,694,cs),
(165,694,o),
(43,497,o),
(43,285,cs),
(43,168,o),
(96,60,o),
(195,12,c),
(219,-2,o),
(237,-21,o),
(237,-41,cs),
(237,-106,o),
(51,-133,o),
(51,-193,cs),
(51,-206,o),
(62,-213,o),
(73,-213,cs),
(95,-213,o),
(178,-159,o),
(240,-172,cs),
(335,-192,o),
(389,-246,o),
(462,-246,cs)
);
}
);
width = 718;
}
);
metricLeft = O;
unicode = 81;
},
{
glyphname = R;
lastChange = "2025-05-28 11:40:26 +0000";
layers = (
{
anchors = (
{
name = bottom;
pos = (349,0);
},
{
name = top;
pos = (390,680);
}
);
background = {
shapes = (
{
closed = 1;
nodes = (
(531,-7,o),
(583,-3,o),
(583,18,cs),
(583,34,o),
(564,40,o),
(522,62,cs),
(484,82,o),
(412,157,o),
(381,212,cs),
(350,267,o),
(346,282,o),
(346,291,cs),
(346,309,o),
(355,316,o),
(425,349,cs),
(522,395,o),
(593,490,o),
(593,565,cs),
(593,666,o),
(460,683,o),
(366,683,cs),
(202,683,ls),
(132,683,o),
(117,677,o),
(117,660,cs),
(117,635,o),
(187,655,o),
(162,534,cs),
(91,188,ls),
(57,19,o),
(-22,49,o),
(-22,15,cs),
(-22,-7,o),
(3,-8,o),
(94,-8,cs),
(208,-8,o),
(228,-7,o),
(228,10,cs),
(228,47,o),
(150,17,o),
(174,178,cs),
(178,205,o),
(183,234,o),
(189,264,cs),
(194,283,o),
(201,291,o),
(214,291,cs),
(255,291,o),
(338,110,o),
(371,50,cs),
(393,11,o),
(421,-7,o),
(476,-7,cs)
);
},
{
closed = 1;
nodes = (
(243,343,o),
(224,368,o),
(230,400,cs),
(253,518,ls),
(270,605,o),
(301,636,o),
(367,636,cs),
(429,636,o),
(473,606,o),
(473,547,cs),
(473,429,o),
(355,343,o),
(270,343,cs)
);
}
);
};
layerId = m01;
shapes = (
{
closed = 1;
nodes = (
(563,-7,o),
(615,-3,o),
(615,18,cs),
(615,34,o),
(596,40,o),
(554,62,cs),
(485,98,o),
(378,244,o),
(378,301,cs),
(378,322,o),
(397,334,o),
(425,349,cs),
(509,392,o),
(593,476,o),
(593,565,cs),
(593,666,o),
(460,683,o),
(366,683,cs),
(202,683,ls),
(132,683,o),
(117,677,o),
(117,660,cs),
(117,635,o),
(187,655,o),
(162,534,cs),
(91,188,ls),
(57,23,o),
(-22,53,o),
(-22,19,cs),
(-22,-3,o),
(3,-4,o),
(94,-4,cs),
(208,-4,o),
(228,-3,o),
(228,14,cs),
(228,51,o),
(148,22,o),
(174,178,cs),
(187,255,ls),
(192,282,o),
(209,291,o),
(228,291,cs),
(301,291,o),
(355,124,o),
(403,50,cs),
(428,11,o),
(453,-7,o),
(508,-7,cs)
);
},
{
closed = 1;
nodes = (
(239,343,o),
(224,368,o),
(231,406,cs),
(253,518,ls),
(270,605,o),
(301,636,o),
(367,636,cs),
(429,636,o),
(473,606,o),
(473,547,cs),
(473,429,o),
(355,343,o),
(270,343,cs)
);
}
);
width = 642;
},
{
associatedMasterId = m01;
layerId = "D5FA4BF8-2D32-465B-B72B-CB4BA4F1F8C5";
name = "9 janv. 25 à 11:46";
shapes = (
{
closed = 1;
nodes = (
(531,-7,o),
(583,-3,o),
(583,18,cs),
(583,34,o),
(564,40,o),
(522,62,cs),
(484,82,o),
(412,157,o),
(381,212,cs),
(350,267,o),
(346,282,o),
(346,291,cs),
(346,309,o),
(355,316,o),
(425,349,cs),
(522,395,o),
(593,490,o),
(593,565,cs),
(593,666,o),
(460,683,o),
(366,683,cs),
(202,683,ls),
(132,683,o),
(117,677,o),
(117,660,cs),
(117,635,o),
(185,655,o),
(162,534,cs),
(130,380,l),
(206,380,l),
(167,259,l),
(187,253,l),
(192,279,o),
(199,291,o),
(214,291,cs),
(255,291,o),
(338,110,o),
(371,50,cs),
(393,11,o),
(421,-7,o),
(476,-7,cs)
);
},
{
alignment = -1;
pos = (-20,0);
ref = "cap-empat-bas";
},
{
closed = 1;
nodes = (
(243,343,o),
(223,368,o),
(230,400,cs),
(234,427,o),
(244,474,o),
(253,518,cs),
(271,605,o),
(301,636,o),
(367,636,cs),
(429,636,o),
(473,606,o),
(473,547,cs),
(473,429,o),
(355,343,o),
(270,343,cs)
);
}
);
width = 625;
}
);
metricLeft = I;
unicode = 82;
},
{
glyphname = S;
lastChange = "2025-05-28 11:40:26 +0000";
layers = (
{
anchors = (
{
name = bottom;
pos = (255,-17);
},
{
name = top;
pos = (378,680);
}
);
layerId = m01;
shapes = (
{
closed = 1;
nodes = (
(168,267,o),
(151,286,o),
(123,286,cs),
(62,286,o),
(16,219,o),
(16,165,cs),
(16,76,o),
(99,-15,o),
(248,-15,cs),
(365,-15,o),
(508,63,o),
(508,212,cs),
(508,405,o),
(236,409,o),
(236,552,cs),
(236,610,o),
(282,648,o),
(329,648,cs),
(386,648,o),
(425,594,o),
(449,534,cs),
(472,476,o),
(471,442,o),
(493,442,cs),
(540,442,o),
(583,601,o),
(583,654,cs),
(583,678,o),
(574,696,o),
(558,696,cs),
(531,696,o),
(529,642,o),
(491,642,cs),
(453,642,o),
(443,696,o),
(340,696,cs),
(240,696,o),
(127,635,o),
(127,523,cs),
(127,352,o),
(402,347,o),
(402,184,cs),
(402,99,o),
(346,34,o),
(267,34,cs),
(186,34,o),
(125,79,o),
(125,144,cs),
(125,204,o),
(168,213,o),
(168,249,cs)
);
}
);
width = 607;
},
{
associatedMasterId = m01;
layerId = "7D35D018-FC61-43F1-A2C4-FF95A9B68C2E";
name = "19 nov. 24 à 12:45";
shapes = (
{
closed = 1;
nodes = (
(420,648,o),
(460,594,o),
(483,533,cs),
(508,472,o),
(504,442,o),
(528,442,cs),
(573,442,o),
(617,602,o),
(617,650,cs),
(617,680,o),
(609,696,o),
(590,696,cs),
(567,696,o),
(562,642,o),
(525,642,cs),
(492,642,o),
(464,696,o),
(386,696,cs),
(268,696,o),
(151,645,o),
(151,520,cs),
(151,345,o),
(436,345,o),
(436,187,cs),
(436,99,o),
(361,38,o),
(289,38,cs),
(207,38,o),
(146,87,o),
(146,139,cs),
(146,201,o),
(179,219,o),
(216,219,cs),
(242,219,o),
(245,201,o),
(270,201,cs),
(279,201,o),
(291,210,o),
(291,223,cs),
(291,236,o),
(265,269,o),
(218,269,cs),
(141,269,o),
(42,226,o),
(42,137,cs),
(42,58,o),
(111,-14,o),
(256,-14,cs),
(372,-14,o),
(542,50,o),
(542,219,cs),
(542,418,o),
(270,393,o),
(270,541,cs),
(270,609,o),
(315,648,o),
(362,648,cs)
);
}
);
width = 626;
},
{
associatedMasterId = m01;
layerId = "CFF62C3A-DDCE-4F56-9E1C-BB78E85D5ABF";
name = "19 nov. 24 à 16:15";
shapes = (
{
closed = 1;
nodes = (
(207,232,o),
(216,165,o),
(250,165,cs),
(270,165,o),
(294,187,o),
(294,218,cs),
(294,263,o),
(245,280,o),
(196,280,cs),
(117,280,o),
(15,236,o),
(15,145,cs),
(15,68,o),
(89,-14,o),
(232,-14,cs),
(371,-14,o),
(528,63,o),
(528,212,cs),
(528,407,o),
(256,411,o),
(256,552,cs),
(256,610,o),
(302,648,o),
(349,648,cs),
(406,648,o),
(445,594,o),
(469,534,cs),
(492,476,o),
(491,442,o),
(513,442,cs),
(560,442,o),
(603,601,o),
(603,654,cs),
(603,678,o),
(594,696,o),
(578,696,cs),
(551,696,o),
(549,642,o),
(511,642,cs),
(473,642,o),
(463,696,o),
(360,696,cs),
(260,696,o),
(137,645,o),
(137,533,cs),
(137,363,o),
(422,349,o),
(422,184,cs),
(422,99,o),
(346,34,o),
(265,34,cs),
(196,34,o),
(108,82,o),
(108,161,cs),
(108,200,o),
(130,232,o),
(161,232,cs)
);
}
);
width = 632;
}
);
unicode = 83;
},
{
glyphname = Germandbls;
lastChange = "2025-05-28 11:40:26 +0000";
layers = (
{
layerId = m01;
shapes = (
{
closed = 1;
nodes = (
(529,355,o),
(575,273,o),
(575,205,cs),
(575,143,o),
(538,36,o),
(437,31,cs),
(368,31,o),
(353,77,o),
(350,120,cs),
(346,164,o),
(323,174,o),
(304,174,cs),
(265,174,o),
(249,140,o),
(249,110,cs),
(249,46,o),
(323,-16,o),
(415,-16,cs),
(540,-16,o),
(685,91,o),
(685,226,cs),
(685,328,o),
(601,363,o),
(541,382,cs),
(516,390,o),
(507,391,o),
(507,401,cs),
(507,408,o),
(512,412,o),
(531,424,cs),
(657,503,ls),
(690,524,o),
(697,539,o),
(697,556,cs),
(697,618,o),
(621,695,o),
(474,695,cs),
(341,695,o),
(160,615,o),
(115,381,cs),
(78,188,ls),
(46,20,o),
(-22,59,o),
(-22,23,cs),
(-22,1,o),
(2,0,o),
(88,0,cs),
(127,0,o),
(157,0,o),
(157,24,cs),
(157,57,o),
(140,52,o),
(165,178,cs),
(203,369,ls),
(245,579,o),
(348,634,o),
(439,634,cs),
(507,634,o),
(561,591,o),
(561,546,cs),
(561,527,o),
(552,505,o),
(500,466,cs),
(450,429,o),
(381,391,o),
(337,367,cs),
(317,356,o),
(306,347,o),
(306,334,cs),
(305,316,o),
(321,305,o),
(349,316,cs),
(377,327,o),
(409,355,o),
(453,355,cs)
);
}
);
width = 717;
},
{
associatedMasterId = m01;
layerId = "E0408F14-33CC-4643-87B3-3920FC9D8A85";
name = "6 févr. 25 à 16:26";
shapes = (
{
closed = 1;
nodes = (
(573,355,o),
(626,273,o),
(626,208,cs),
(626,129,o),
(568,44,o),
(476,44,cs),
(392,44,o),
(377,95,o),
(373,146,cs),
(369,189,o),
(346,204,o),
(319,204,cs),
(273,204,o),
(254,153,o),
(254,128,cs),
(254,50,o),
(342,-16,o),
(448,-16,cs),
(583,-16,o),
(736,91,o),
(736,226,cs),
(736,322,o),
(656,361,o),
(584,382,cs),
(556,390,o),
(548,392,o),
(548,401,cs),
(548,408,o),
(553,412,o),
(573,424,cs),
(706,503,ls),
(741,524,o),
(748,540,o),
(748,554,cs),
(749,614,o),
(657,695,o),
(508,695,cs),
(406,695,o),
(187,663,o),
(147,466,cs),
(91,188,ls),
(58,19,o),
(-22,49,o),
(-22,15,cs),
(-22,-7,o),
(3,-8,o),
(94,-8,cs),
(138,-8,o),
(158,-7,o),
(158,10,cs),
(158,47,o),
(140,19,o),
(174,178,cs),
(227,426,ls),
(262,590,o),
(401,638,o),
(485,638,cs),
(569,638,o),
(629,588,o),
(629,555,cs),
(629,540,o),
(617,510,o),
(540,464,cs),
(479,428,o),
(425,393,o),
(366,364,cs),
(342,352,o),
(337,343,o),
(336,334,cs),
(335,316,o),
(355,304,o),
(381,316,cs),
(421,334,o),
(454,355,o),
(486,355,cs)
);
}
);
width = 762;
},
{
associatedMasterId = m01;
layerId = "CE46DA7C-1495-445E-BD74-2E515D4160DB";
name = "6 févr. 25 à 16:36";
shapes = (
{
closed = 1;
nodes = (
(529,355,o),
(578,273,o),
(578,205,cs),
(578,143,o),
(538,37,o),
(437,37,cs),
(361,37,o),
(345,97,o),
(341,145,cs),
(337,193,o),
(312,204,o),
(291,204,cs),
(246,204,o),
(228,156,o),
(228,123,cs),
(228,52,o),
(312,-16,o),
(413,-16,cs),
(540,-16,o),
(685,91,o),
(685,226,cs),
(685,328,o),
(601,363,o),
(541,382,cs),
(516,390,o),
(507,391,o),
(507,401,cs),
(507,408,o),
(512,412,o),
(531,424,cs),
(657,503,ls),
(690,524,o),
(697,539,o),
(697,556,cs),
(697,614,o),
(611,695,o),
(464,695,cs),
(371,695,o),
(168,653,o),
(127,441,cs),
(78,188,ls),
(44,12,o),
(-22,51,o),
(-22,15,cs),
(-22,-7,o),
(2,-8,o),
(88,-8,cs),
(127,-8,o),
(157,-8,o),
(157,16,cs),
(157,49,o),
(133,15,o),
(165,178,cs),
(211,409,ls),
(245,579,o),
(348,638,o),
(429,638,cs),
(507,638,o),
(561,591,o),
(561,546,cs),
(561,527,o),
(552,505,o),
(500,466,cs),
(450,429,o),
(381,391,o),
(337,367,cs),
(317,356,o),
(306,347,o),
(306,334,cs),
(305,316,o),
(321,305,o),
(349,316,cs),
(377,327,o),
(409,355,o),
(453,355,cs)
);
}
);
width = 717;
}
);
unicode = 7838;
},
{
glyphname = T;
lastChange = "2025-05-28 11:40:26 +0000";
layers = (
{
anchors = (
{
name = bottom;
pos = (257,-16);
},
{
name = center;
pos = (341,340);
},
{
name = top;
pos = (403,680);
}
);
layerId = m01;
shapes = (
{
closed = 1;
nodes = (
(353,0,o),
(373,1,o),
(373,18,cs),
(373,55,o),
(295,25,o),
(319,178,cs),
(332,261,o),
(364,409,o),
(388,496,cs),
(417,599,o),
(453,620,o),
(513,620,cs),
(575,620,o),
(595,581,o),
(595,503,cs),
(595,483,o),
(600,474,o),
(612,474,cs),
(651,474,o),
(700,609,o),
(700,661,cs),
(700,681,o),
(691,688,o),
(670,688,cs),
(626,688,o),
(513,673,o),
(376,673,cs),
(231,673,o),
(162,688,o),
(122,688,cs),
(69,688,o),
(34,557,o),
(34,520,cs),
(34,504,o),
(40,495,o),
(52,495,cs),
(101,495,o),
(119,627,o),
(226,627,cs),
(274,627,o),
(313,607,o),
(302,532,cs),
(288,433,o),
(255,283,o),
(236,188,cs),
(203,27,o),
(123,57,o),
(123,23,cs),
(123,1,o),
(148,0,o),
(239,0,cs)
);
}
);
width = 669;
},
{
associatedMasterId = m01;
backgroundImage = {
angle = -0.1;
imagePath = "/Downloads/Images/T_-Regular.tif";
locked = 1;
pos = (-105,-27);
scale = (2.9729,2.9729);
};
layerId = "E3ACF2BF-85BC-4168-8FBC-EEDB7F8B8569";
name = "31 oct. 24 à 16:21";
shapes = (
{
closed = 1;
nodes = (
(368,380,l),
(379,419,o),
(388,459,o),
(399,498,cs),
(429,605,o),
(448,635,o),
(525,635,cs),
(612,635,o),
(624,605,o),
(624,519,cs),
(624,503,o),
(629,496,o),
(638,496,cs),
(667,496,o),
(722,669,o),
(722,706,cs),
(722,715,o),
(717,720,o),
(708,720,cs),
(664,720,o),
(598,675,o),
(479,675,cs),
(437,675,o),
(395,674,o),
(355,674,cs),
(153,674,o),
(156,730,o),
(119,730,cs),
(80,730,o),
(40,569,o),
(40,538,cs),
(40,527,o),
(44,517,o),
(55,517,cs),
(62,517,o),
(72,517,o),
(89,544,cs),
(125,602,o),
(157,642,o),
(218,642,cs),
(293,642,o),
(324,610,o),
(315,534,cs),
(310,491,o),
(298,449,o),
(284,380,c)
);
},
{
alignment = -1;
pos = (134,0);
ref = "cap-empat-bas";
}
);
width = 678;
}
);
unicode = 84;
},
{
glyphname = Tcedilla;
lastChange = "2025-05-28 11:40:26 +0000";
layers = (
{
anchors = (
{
name = bottom;
pos = (254,-16);
},
{
name = center;
pos = (338,340);
},
{
name = top;
pos = (400,680);
}
);
background = {
shapes = (
{
closed = 1;
nodes = (
(31,504,o),
(37,495,o),
(49,495,cs),
(98,495,o),
(116,627,o),
(223,627,cs),
(271,627,o),
(310,607,o),
(299,532,cs),
(285,433,o),
(252,283,o),
(233,188,cs),
(200,19,o),
(120,49,o),
(120,15,cs),
(120,-5,o),
(139,-7,o),
(206,-8,c),
(219,-25,o),
(150,-38,o),
(150,-65,cs),
(150,-97,o),
(208,-88,o),
(208,-132,cs),
(208,-166,o),
(183,-185,o),
(161,-185,cs),
(140,-185,o),
(127,-166,o),
(102,-166,cs),
(76,-166,o),
(63,-185,o),
(63,-202,cs),
(63,-227,o),
(87,-251,o),
(137,-251,cs),
(211,-251,o),
(294,-157,o),
(294,-105,cs),
(294,-69,o),
(245,-74,o),
(245,-47,cs),
(245,-27,o),
(262,-18,o),
(288,-8,c),
(357,-7,o),
(370,-5,o),
(370,10,cs),
(370,47,o),
(292,17,o),
(316,178,cs),
(329,261,o),
(361,409,o),
(385,496,cs),
(414,599,o),
(450,620,o),
(510,620,cs),
(572,620,o),
(592,581,o),
(592,503,cs),
(592,483,o),
(597,474,o),
(609,474,cs),
(648,474,o),
(697,609,o),
(697,661,cs),
(697,681,o),
(688,688,o),
(667,688,cs),
(623,688,o),
(510,673,o),
(373,673,cs),
(228,673,o),
(159,688,o),
(119,688,cs),
(66,688,o),
(31,557,o),
(31,520,cs)
);
}
);
};
layerId = m01;
shapes = (
{
closed = 1;
nodes = (
(31,504,o),
(37,495,o),
(49,495,cs),
(98,495,o),
(116,627,o),
(223,627,cs),
(271,627,o),
(310,607,o),
(299,532,cs),
(285,433,o),
(252,283,o),
(233,188,cs),
(200,19,o),
(120,49,o),
(120,15,cs),
(120,-2,o),
(133,-7,o),
(172,-7,cs),
(192,-7,o),
(201,-11,o),
(201,-17,cs),
(201,-34,o),
(150,-43,o),
(150,-65,cs),
(150,-97,o),
(208,-88,o),
(208,-132,cs),
(208,-166,o),
(183,-185,o),
(161,-185,cs),
(140,-185,o),
(127,-166,o),
(102,-166,cs),
(76,-166,o),
(63,-185,o),
(63,-202,cs),
(63,-227,o),
(87,-251,o),
(137,-251,cs),
(211,-251,o),
(294,-157,o),
(294,-105,cs),
(294,-69,o),
(245,-74,o),
(245,-47,cs),
(245,-20,o),
(281,-8,o),
(309,-8,cs),
(360,-6,o),
(370,-3,o),
(370,10,cs),
(370,47,o),
(292,17,o),
(316,178,cs),
(329,261,o),
(361,409,o),
(385,496,cs),
(414,599,o),
(450,620,o),
(510,620,cs),
(572,620,o),
(592,581,o),
(592,503,cs),
(592,483,o),
(597,474,o),
(609,474,cs),
(648,474,o),
(697,609,o),
(697,661,cs),
(697,681,o),
(688,688,o),
(667,688,cs),
(623,688,o),
(510,673,o),
(373,673,cs),
(228,673,o),
(159,688,o),
(119,688,cs),
(66,688,o),
(31,557,o),
(31,520,cs)
);
}
);
width = 666;
}
);
unicode = 354;
},
{
glyphname = U;
lastChange = "2025-05-28 11:40:26 +0000";
layers = (
{
anchors = (
{
name = bottom;
pos = (328,0);
},
{
name = ogonek;
pos = (328,-12);
},
{
name = top;
pos = (402,680);
},
{
name = topright;
pos = (684,680);
}
);
layerId = m01;
shapes = (
{
closed = 1;
nodes = (
(601,458,o),
(612,561,o),
(656,609,cs),
(684,639,o),
(713,644,o),
(713,661,cs),
(713,680,o),
(681,683,o),
(603,683,cs),
(516,683,o),
(480,678,o),
(480,662,cs),
(480,639,o),
(539,629,o),
(547,576,cs),
(554,531,o),
(538,455,o),
(516,318,cs),
(486,137,o),
(421,61,o),
(315,61,cs),
(217,61,o),
(184,123,o),
(184,207,cs),
(184,298,o),
(217,460,o),
(224,498,cs),
(255,655,o),
(327,632,o),
(327,662,cs),
(327,683,o),
(271,685,o),
(173,685,cs),
(113,685,o),
(87,683,o),
(87,666,cs),
(87,631,o),
(154,655,o),
(137,534,cs),
(129,478,o),
(82,277,o),
(82,186,cs),
(82,74,o),
(131,-16,o),
(282,-16,cs),
(482,-16,o),
(555,153,o),
(583,337,cs)
);
}
);
width = 681;
}
);
unicode = 85;
},
{
glyphname = Uogonek;
lastChange = "2025-05-28 11:40:26 +0000";
layers = (
{
anchors = (
{
name = bottom;
pos = (328,0);
},
{
name = ogonek;
pos = (328,-12);
},
{
name = top;
pos = (405,680);
},
{
name = topright;
pos = (684,680);
}
);
background = {
shapes = (
{
closed = 0;
nodes = (
(234,-3,ls),
(234,-32,o),
(175,-60,o),
(175,-125,cs),
(175,-179,o),
(216,-222,o),
(279,-222,cs),
(360,-222,o),
(408,-158,o),
(408,-127,cs),
(408,-113,o),
(401,-106,o),
(389,-106,cs),
(366,-106,o),
(337,-141,o),
(296,-141,cs),
(266,-141,o),
(246,-127,o),
(246,-97,cs)
);
},
{
closed = 1;
nodes = (
(601,458,o),
(612,561,o),
(656,609,cs),
(684,639,o),
(713,644,o),
(713,661,cs),
(713,680,o),
(681,683,o),
(603,683,cs),
(516,683,o),
(480,678,o),
(480,662,cs),
(480,639,o),
(539,629,o),
(547,576,cs),
(554,531,o),
(538,455,o),
(516,318,cs),
(486,137,o),
(421,61,o),
(315,61,cs),
(217,61,o),
(184,123,o),
(184,207,cs),
(184,298,o),
(217,460,o),
(224,498,cs),
(255,655,o),
(327,632,o),
(327,662,cs),
(327,683,o),
(271,685,o),
(173,685,cs),
(113,685,o),
(87,683,o),
(87,666,cs),
(87,631,o),
(154,655,o),
(137,534,cs),
(129,478,o),
(82,277,o),
(82,186,cs),
(82,113,o),
(103,49,o),
(159,14,cs),
(185,-2,o),
(218,-12,o),
(260,-15,c),
(227,-36,o),
(178,-81,o),
(178,-135,cs),
(178,-192,o),
(214,-234,o),
(285,-234,cs),
(368,-234,o),
(414,-176,o),
(414,-139,cs),
(414,-125,o),
(407,-118,o),
(395,-118,cs),
(373,-118,o),
(343,-153,o),
(300,-153,cs),
(273,-153,o),
(252,-138,o),
(252,-109,cs),
(252,-72,o),
(285,-35,o),
(332,-12,c),
(337,-11,o),
(342,-10,o),
(346,-9,cs),
(499,23,o),
(558,173,o),
(583,337,cs)
);
}
);
};
layerId = m01;
shapes = (
{
closed = 1;
nodes = (
(601,458,o),
(612,561,o),
(656,609,cs),
(684,639,o),
(713,644,o),
(713,661,cs),
(713,680,o),
(681,683,o),
(603,683,cs),
(516,683,o),
(480,678,o),
(480,662,cs),
(480,639,o),
(539,629,o),
(547,576,cs),
(554,531,o),
(538,455,o),
(516,318,cs),
(486,137,o),
(421,61,o),
(315,61,cs),
(217,61,o),
(184,123,o),
(184,207,cs),
(184,298,o),
(217,460,o),
(224,498,cs),
(255,655,o),
(327,632,o),
(327,662,cs),
(327,683,o),
(271,685,o),
(173,685,cs),
(113,685,o),
(87,683,o),
(87,666,cs),
(87,631,o),
(154,655,o),
(137,534,cs),
(129,478,o),
(82,277,o),
(82,186,cs),
(82,113,o),
(103,49,o),
(159,14,cs),
(185,-2,o),
(226,-5,o),
(226,-21,cs),
(226,-52,o),
(176,-83,o),
(176,-139,cs),
(176,-185,o),
(216,-229,o),
(285,-229,cs),
(359,-229,o),
(414,-175,o),
(414,-134,cs),
(414,-120,o),
(407,-113,o),
(396,-113,cs),
(374,-113,o),
(343,-148,o),
(300,-148,cs),
(273,-148,o),
(252,-133,o),
(252,-104,cs),
(252,-63,o),
(311,-15,o),
(346,-9,cs),
(499,23,o),
(558,173,o),
(583,337,cs)
);
}
);
width = 681;
}
);
unicode = 370;
},
{
glyphname = Uring;
lastChange = "2025-05-28 11:40:26 +0000";
layers = (
{
anchors = (
{
name = bottom;
pos = (328,0);
},
{
name = ogonek;
pos = (328,-12);
},
{
name = top;
pos = (405,680);
},
{
name = topright;
pos = (684,680);
}
);
layerId = m01;
shapes = (
{
closed = 1;
nodes = (
(601,458,o),
(612,561,o),
(656,609,cs),
(684,639,o),
(713,644,o),
(713,661,cs),
(713,680,o),
(681,683,o),
(603,683,cs),
(555,683,o),
(507,677,o),
(507,658,cs),
(507,638,o),
(539,629,o),
(547,576,cs),
(554,531,o),
(538,455,o),
(516,318,cs),
(486,137,o),
(421,61,o),
(315,61,cs),
(217,61,o),
(184,123,o),
(184,207,cs),
(184,298,o),
(217,460,o),
(224,498,cs),
(255,655,o),
(301,633,o),
(301,661,cs),
(301,685,o),
(246,685,o),
(173,685,cs),
(113,685,o),
(87,683,o),
(87,666,cs),
(87,631,o),
(154,655,o),
(137,534,cs),
(129,478,o),
(82,277,o),
(82,186,cs),
(82,74,o),
(131,-16,o),
(282,-16,cs),
(482,-16,o),
(555,153,o),
(583,337,cs)
);
},
{
pos = (148,180);
ref = ringcomb.case;
}
);
width = 681;
}
);
unicode = 366;
},
{
glyphname = V;
lastChange = "2025-05-28 11:40:26 +0000";
layers = (
{
layerId = m01;
shapes = (
{
closed = 1;
nodes = (
(257,-6,o),
(275,6,o),
(292,26,cs),
(336,77,o),
(414,205,o),
(479,329,cs),
(549,463,o),
(624,580,o),
(650,602,cs),
(694,639,o),
(727,644,o),
(727,661,cs),
(727,684,o),
(675,680,o),
(605,680,cs),
(487,680,o),
(477,678,o),
(477,662,cs),
(477,639,o),
(540,643,o),
(540,583,cs),
(540,543,o),
(495,463,o),
(412,311,cs),
(333,167,o),
(318,132,o),
(299,132,cs),
(285,132,o),
(282,148,o),
(274,244,cs),
(268,310,o),
(262,476,o),
(262,534,cs),
(262,592,o),
(278,610,o),
(305,625,cs),
(323,635,o),
(346,643,o),
(346,659,cs),
(346,677,o),
(327,677,o),
(200,677,cs),
(76,677,o),
(61,675,o),
(61,659,cs),
(61,651,o),
(67,645,o),
(88,635,cs),
(113,623,o),
(135,607,o),
(146,538,cs),
(157,469,o),
(179,104,o),
(188,26,cs),
(191,0,o),
(204,-6,o),
(233,-6,cs)
);
}
);
width = 665;
}
);
unicode = 86;
},
{
glyphname = W;
lastChange = "2025-05-28 11:40:26 +0000";
layers = (
{
anchors = (
{
name = bottom;
pos = (466,0);
},
{
name = top;
pos = (559,680);
}
);
layerId = m01;
shapes = (
{
closed = 1;
nodes = (
(257,-6,o),
(275,6,o),
(292,26,cs),
(336,77,o),
(396,217,o),
(464,335,cs),
(472,349,o),
(477,356,o),
(484,356,cs),
(493,356,o),
(495,343,o),
(495,332,cs),
(498,247,o),
(515,75,o),
(520,31,cs),
(524,0,o),
(537,-6,o),
(566,-6,cs),
(590,-6,o),
(608,6,o),
(625,26,cs),
(669,77,o),
(740,205,o),
(795,329,cs),
(856,467,o),
(917,580,o),
(943,602,cs),
(987,639,o),
(1020,644,o),
(1020,661,cs),
(1020,684,o),
(968,680,o),
(898,680,cs),
(780,680,o),
(770,678,o),
(770,662,cs),
(770,639,o),
(833,643,o),
(833,583,cs),
(833,543,o),
(803,467,o),
(728,311,cs),
(659,167,o),
(651,132,o),
(632,132,cs),
(618,132,o),
(615,148,o),
(607,244,cs),
(602,304,o),
(586,446,o),
(586,537,cs),
(586,567,o),
(592,587,o),
(610,602,cs),
(655,639,o),
(687,644,o),
(687,661,cs),
(687,684,o),
(635,680,o),
(565,680,cs),
(447,680,o),
(437,678,o),
(437,662,cs),
(437,639,o),
(500,643,o),
(500,583,cs),
(500,543,o),
(470,467,o),
(395,311,cs),
(326,167,o),
(318,132,o),
(299,132,cs),
(285,132,o),
(282,148,o),
(274,244,cs),
(268,310,o),
(262,476,o),
(262,534,cs),
(262,592,o),
(278,610,o),
(305,625,cs),
(323,635,o),
(346,643,o),
(346,659,cs),
(346,677,o),
(327,677,o),
(200,677,cs),
(76,677,o),
(61,675,o),
(61,659,cs),
(61,651,o),
(67,645,o),
(88,635,cs),
(113,623,o),
(135,607,o),
(146,538,cs),
(157,469,o),
(179,104,o),
(188,26,cs),
(191,0,o),
(204,-6,o),
(233,-6,cs)
);
}
);
width = 958;
}
);
metricLeft = V;
metricRight = V;
unicode = 87;
},
{
glyphname = X;
lastChange = "2025-05-28 11:40:26 +0000";
layers = (
{
layerId = m01;
shapes = (
{
closed = 1;
nodes = (
(-62,-6,o),
(-19,-1,o),
(35,-1,cs),
(141,-1,o),
(153,1,o),
(153,17,cs),
(153,38,o),
(115,35,o),
(115,70,cs),
(115,108,o),
(215,217,o),
(257,264,cs),
(275,284,o),
(284,293,o),
(292,293,cs),
(301,293,o),
(306,279,o),
(322,232,cs),
(353,143,ls),
(371,85,o),
(363,67,o),
(343,52,cs),
(330,42,o),
(316,34,o),
(316,18,cs),
(317,0,o),
(340,0,o),
(454,0,cs),
(572,0,o),
(580,0,o),
(579,15,cs),
(579,27,o),
(570,32,o),
(547,42,cs),
(521,54,o),
(496,70,o),
(466,139,c),
(451,168,o),
(419,252,o),
(393,320,cs),
(387,336,o),
(384,344,o),
(384,351,cs),
(384,363,o),
(396,376,o),
(416,398,cs),
(504,495,o),
(590,583,o),
(616,602,cs),
(668,639,o),
(704,641,o),
(704,661,cs),
(704,685,o),
(663,680,o),
(600,680,cs),
(495,680,o),
(481,679,o),
(481,662,cs),
(481,641,o),
(515,645,o),
(515,616,cs),
(515,579,o),
(439,492,o),
(389,438,cs),
(377,425,o),
(370,420,o),
(365,420,cs),
(356,420,o),
(353,427,o),
(345,451,cs),
(317,536,ls),
(299,594,o),
(308,612,o),
(327,627,cs),
(338,636,o),
(354,643,o),
(354,656,cs),
(353,682,o),
(312,679,o),
(210,679,cs),
(110,679,o),
(96,677,o),
(97,662,cs),
(97,648,o),
(111,642,o),
(123,637,cs),
(149,625,o),
(174,609,o),
(205,540,cs),
(217,515,o),
(244,451,o),
(267,388,cs),
(271,377,o),
(273,372,o),
(273,367,cs),
(273,357,o),
(266,347,o),
(251,328,cs),
(138,185,o),
(39,100,o),
(13,77,cs),
(-27,40,o),
(-62,35,o),
(-62,18,cs)
);
}
);
width = 632;
},
{
associatedMasterId = m01;
layerId = "081D17CC-9D10-4E0F-9BE9-EDA99AFCC3AE";
name = "19 nov. 24 à 17:03";
shapes = (
{
closed = 1;
nodes = (
(478,471,o),
(586,580,o),
(616,602,cs),
(668,639,o),
(704,641,o),
(704,661,cs),
(704,685,o),
(663,680,o),
(600,680,cs),
(495,680,o),
(481,679,o),
(481,662,cs),
(481,641,o),
(515,645,o),
(515,616,cs),
(515,554,o),
(298,347,o),
(308,353,c),
(340,310,l)
);
},
{
closed = 1;
nodes = (
(309,273,o),
(340,183,o),
(353,143,cs),
(371,85,o),
(363,67,o),
(343,52,cs),
(330,42,o),
(316,34,o),
(316,18,cs),
(317,0,o),
(340,0,o),
(454,0,cs),
(572,0,o),
(580,0,o),
(579,15,cs),
(579,27,o),
(570,32,o),
(547,42,cs),
(521,54,o),
(496,70,o),
(466,139,cs),
(450,170,o),
(416,260,o),
(378,357,cs),
(355,422,o),
(329,500,o),
(317,536,cs),
(299,594,o),
(308,612,o),
(327,627,cs),
(338,636,o),
(354,643,o),
(354,656,cs),
(353,682,o),
(312,679,o),
(210,679,cs),
(110,679,o),
(96,677,o),
(97,662,cs),
(97,648,o),
(111,642,o),
(123,637,cs),
(149,625,o),
(174,609,o),
(205,540,cs),
(219,512,o),
(249,434,o),
(282,348,cs)
);
},
{
closed = 1;
nodes = (
(148,197,o),
(41,102,o),
(13,77,cs),
(-27,40,o),
(-62,35,o),
(-62,18,cs),
(-62,-6,o),
(-19,-1,o),
(35,-1,cs),
(141,-1,o),
(153,1,o),
(153,17,cs),
(153,38,o),
(115,35,o),
(115,70,cs),
(115,132,o),
(374,384,o),
(333,337,c),
(290,378,l)
);
}
);
width = 632;
}
);
unicode = 88;
},
{
glyphname = Y;
lastChange = "2025-05-28 11:40:26 +0000";
layers = (
{
anchors = (
{
name = bottom;
pos = (325,0);
},
{
name = top;
pos = (428,678);
},
{
name = topleft;
pos = (43,680);
}
);
layerId = m01;
shapes = (
{
closed = 1;
nodes = (
(384,0,o),
(404,1,o),
(404,18,cs),
(404,55,o),
(336,25,o),
(350,178,cs),
(356,245,o),
(371,311,o),
(396,363,cs),
(461,496,o),
(514,591,o),
(573,591,cs),
(625,591,o),
(609,534,o),
(648,534,cs),
(687,534,o),
(745,582,o),
(745,621,cs),
(745,640,o),
(729,692,o),
(658,692,cs),
(527,692,o),
(455,558,o),
(407,481,cs),
(387,450,o),
(381,436,o),
(372,436,cs),
(363,436,o),
(362,443,o),
(361,455,cs),
(358,516,o),
(356,686,o),
(209,686,cs),
(122,686,o),
(47,588,o),
(47,565,cs),
(47,554,o),
(53,548,o),
(63,548,cs),
(83,548,o),
(107,604,o),
(164,604,cs),
(282,604,o),
(300,448,o),
(273,254,cs),
(267,214,ls),
(239,26,o),
(156,57,o),
(156,23,cs),
(156,1,o),
(181,0,o),
(270,0,cs)
);
}
);
width = 676;
},
{
associatedMasterId = m01;
backgroundImage = {
imagePath = "/Downloads/Images/Y_-Regular.tif";
locked = 1;
pos = (-53,-112);
scale = (2.9729,2.9729);
};
layerId = "B0B6A515-8A91-42E8-8E1D-B8A167777020";
name = "31 oct. 24 à 16:21";
shapes = (
{
closed = 1;
nodes = (
(385,-8,o),
(405,-7,o),
(405,10,cs),
(405,47,o),
(337,17,o),
(351,178,cs),
(357,245,o),
(372,311,o),
(397,363,cs),
(462,496,o),
(535,591,o),
(594,591,cs),
(646,591,o),
(630,534,o),
(669,534,cs),
(708,534,o),
(766,582,o),
(766,621,cs),
(766,640,o),
(750,692,o),
(679,692,cs),
(548,692,o),
(456,558,o),
(408,481,cs),
(388,450,o),
(382,436,o),
(373,436,cs),
(364,436,o),
(363,443,o),
(362,455,cs),
(359,516,o),
(327,686,o),
(180,686,cs),
(83,686,o),
(8,608,o),
(8,585,cs),
(8,574,o),
(14,569,o),
(24,569,cs),
(44,569,o),
(68,610,o),
(135,610,cs),
(253,610,o),
(305,448,o),
(278,254,cs),
(272,211,ls),
(245,18,o),
(157,49,o),
(157,15,cs),
(157,-7,o),
(182,-8,o),
(271,-8,cs)
);
}
);
width = 707;
},
{
associatedMasterId = m01;
backgroundImage = {
imagePath = "/Downloads/Images/Y_-Regular.tif";
locked = 1;
pos = (-53,-112);
scale = (2.9729,2.9729);
};
layerId = "C8593C62-38FB-4583-86BE-500B3BBD84DD";
name = "19 nov. 24 à 17:16";
shapes = (
{
closed = 1;
nodes = (
(385,-8,o),
(405,-7,o),
(405,10,cs),
(405,47,o),
(337,17,o),
(351,178,cs),
(357,245,o),
(372,311,o),
(397,363,cs),
(462,496,o),
(535,591,o),
(594,591,cs),
(646,591,o),
(630,534,o),
(669,534,cs),
(708,534,o),
(766,582,o),
(766,621,cs),
(766,640,o),
(750,692,o),
(679,692,cs),
(548,692,o),
(456,558,o),
(408,481,cs),
(388,450,o),
(382,436,o),
(373,436,cs),
(364,436,o),
(363,443,o),
(362,455,cs),
(359,516,o),
(327,686,o),
(180,686,cs),
(83,686,o),
(8,588,o),
(8,565,cs),
(8,554,o),
(14,548,o),
(24,548,cs),
(44,548,o),
(68,604,o),
(135,604,cs),
(253,604,o),
(301,448,o),
(274,254,cs),
(268,214,ls),
(241,18,o),
(157,49,o),
(157,15,cs),
(157,-7,o),
(182,-8,o),
(271,-8,cs)
);
}
);
width = 707;
}
);
unicode = 89;
},
{
glyphname = Z;
lastChange = "2025-05-28 11:40:26 +0000";
layers = (
{
anchors = (
{
name = bottom;
pos = (300,0);
},
{
name = center;
pos = (318,340);
},
{
name = top;
pos = (466,680);
}
);
layerId = m01;
shapes = (
{
closed = 1;
nodes = (
(-22,5,o),
(-18,-10,o),
(0,-10,cs),
(29,-10,o),
(102,26,o),
(168,26,cs),
(239,26,o),
(312,-16,o),
(355,-16,cs),
(425,-16,o),
(560,95,o),
(566,146,cs),
(567,155,o),
(564,162,o),
(555,162,cs),
(529,162,o),
(493,95,o),
(435,95,cs),
(393,95,o),
(310,130,o),
(250,130,cs),
(214,130,o),
(173,117,o),
(158,117,cs),
(149,117,o),
(144,121,o),
(144,128,cs),
(144,156,o),
(225,224,o),
(302,293,cs),
(318,308,o),
(326,311,o),
(346,311,cs),
(434,311,ls),
(468,311,o),
(502,336,o),
(502,359,cs),
(502,373,o),
(491,378,o),
(470,378,cs),
(423,378,ls),
(413,378,o),
(406,380,o),
(406,385,cs),
(406,416,o),
(647,600,o),
(647,667,cs),
(647,673,o),
(645,688,o),
(626,688,cs),
(597,688,o),
(516,654,o),
(456,654,cs),
(389,654,o),
(351,696,o),
(307,696,cs),
(233,696,o),
(108,579,o),
(108,533,cs),
(108,522,o),
(115,518,o),
(121,518,cs),
(147,518,o),
(183,585,o),
(237,585,cs),
(276,585,o),
(320,550,o),
(374,550,cs),
(408,550,o),
(447,564,o),
(468,564,cs),
(477,564,o),
(482,561,o),
(482,554,cs),
(482,534,o),
(444,502,o),
(399,457,cs),
(345,403,o),
(334,386,o),
(305,386,cs),
(205,386,ls),
(181,386,o),
(143,359,o),
(143,333,cs),
(143,320,o),
(150,319,o),
(171,319,cs),
(220,319,ls),
(231,319,o),
(237,317,o),
(237,310,cs),
(237,297,o),
(214,279,o),
(180,247,cs),
(132,202,o),
(-22,53,o),
(-22,12,cs)
);
}
);
width = 625;
},
{
associatedMasterId = m01;
layerId = "7117604B-1B00-4541-9644-1E7103E64AF6";
name = "19 nov. 24 à 12:51";
shapes = (
{
closed = 1;
nodes = (
(200,303,o),
(8,95,o),
(8,15,cs),
(8,3,o),
(15,-5,o),
(31,-5,cs),
(63,-5,o),
(151,21,o),
(257,21,cs),
(420,21,o),
(439,-14,o),
(473,-12,cs),
(512,-10,o),
(546,173,o),
(545,204,cs),
(544,215,o),
(539,225,o),
(528,224,cs),
(522,224,o),
(512,224,o),
(496,196,cs),
(438,90,o),
(405,68,o),
(285,68,cs),
(211,68,o),
(168,82,o),
(168,116,cs),
(168,164,o),
(232,209,o),
(340,332,cs),
(454,462,o),
(587,600,o),
(587,690,cs),
(587,704,o),
(585,713,o),
(566,713,cs),
(534,713,o),
(432,677,o),
(348,677,cs),
(218,677,o),
(196,722,o),
(171,721,cs),
(113,718,o),
(82,535,o),
(83,504,cs),
(84,493,o),
(89,483,o),
(100,484,cs),
(106,484,o),
(116,484,o),
(132,512,cs),
(186,609,o),
(223,632,o),
(330,632,cs),
(389,632,o),
(430,627,o),
(430,593,cs),
(430,543,o),
(340,455,o),
(252,359,cs)
);
}
);
width = 604;
},
{
associatedMasterId = m01;
layerId = "ECE207DC-CA54-40F4-9625-9CA65FACFDBF";
name = "19 nov. 24 à 16:02";
shapes = (
{
closed = 1;
nodes = (
(400,385,o),
(647,605,o),
(647,667,cs),
(647,673,o),
(645,688,o),
(627,688,cs),
(598,688,o),
(513,654,o),
(459,654,cs),
(382,654,o),
(350,696,o),
(301,696,cs),
(237,696,o),
(108,579,o),
(108,533,cs),
(108,522,o),
(114,518,o),
(123,518,cs),
(144,518,o),
(187,585,o),
(234,585,cs),
(278,585,o),
(328,550,o),
(379,550,cs),
(416,550,o),
(455,563,o),
(473,563,cs),
(483,563,o),
(488,559,o),
(488,550,cs),
(488,519,o),
(378,441,o),
(291,353,cs),
(254,316,o),
(-22,68,o),
(-22,13,cs),
(-22,0,o),
(-14,-10,o),
(0,-10,cs),
(29,-10,o),
(103,26,o),
(167,26,cs),
(244,26,o),
(323,-16,o),
(362,-16,cs),
(426,-16,o),
(563,101,o),
(566,147,cs),
(567,158,o),
(562,162,o),
(553,162,cs),
(532,162,o),
(490,95,o),
(437,95,cs),
(393,95,o),
(306,130,o),
(255,130,cs),
(218,130,o),
(177,117,o),
(158,117,cs),
(149,117,o),
(145,121,o),
(145,130,cs),
(147,161,o),
(274,264,o),
(354,341,cs)
);
},
{
closed = 1;
nodes = (
(444,311,ls),
(468,311,o),
(488,332,o),
(488,359,cs),
(488,376,o),
(484,378,o),
(463,378,cs),
(356,378,l),
(196,378,ls),
(172,378,o),
(144,362,o),
(144,333,cs),
(144,316,o),
(151,311,o),
(172,311,cs),
(254,311,l)
);
}
);
width = 625;
}
);
unicode = 90;
},
{
glyphname = Saltillo;
lastChange = "2025-05-28 11:40:26 +0000";
layers = (
{
layerId = m01;
shapes = (
{
closed = 1;
nodes = (
(123,584,o),
(98,465,o),
(98,393,cs),
(98,354,o),
(99,327,o),
(116,324,cs),
(132,321,o),
(144,336,o),
(170,393,cs),
(188,433,o),
(261,603,o),
(261,655,cs),
(261,686,o),
(230,695,o),
(200,695,cs),
(166,695,o),
(146,678,o),
(139,652,cs)
);
}
);
width = 300;
}
);
unicode = 42891;
},
{
glyphname = T_h;
lastChange = "2025-05-28 11:40:26 +0000";
layers = (
{
layerId = m01;
shapes = (
{
closed = 1;
nodes = (
(353,-1,o),
(373,0,o),
(373,17,cs),
(373,54,o),
(295,24,o),
(319,178,cs),
(332,261,o),
(364,409,o),
(388,496,cs),
(417,599,o),
(471,620,o),
(521,620,cs),
(573,620,o),
(625,611,o),
(620,503,cs),
(618,452,o),
(588,354,o),
(562,261,cs),
(545,191,o),
(504,100,o),
(504,52,cs),
(504,17,o),
(530,-11,o),
(553,-11,cs),
(578,-11,o),
(624,19,o),
(624,53,cs),
(624,81,o),
(604,100,o),
(604,160,cs),
(604,265,o),
(688,414,o),
(787,414,cs),
(823,414,o),
(843,377,o),
(843,326,cs),
(843,252,o),
(820,163,o),
(799,135,cs),
(775,102,o),
(743,97,o),
(728,90,cs),
(712,83,o),
(699,64,o),
(699,41,cs),
(699,12,o),
(722,-10,o),
(751,-10,cs),
(853,-10,o),
(936,306,o),
(936,418,cs),
(936,470,o),
(917,514,o),
(867,514,cs),
(785,514,o),
(710,421,o),
(683,421,cs),
(674,421,o),
(668,427,o),
(668,437,cs),
(668,474,o),
(738,603,o),
(738,695,cs),
(738,723,o),
(729,733,o),
(716,733,cs),
(697,733,o),
(677,715,o),
(629,699,cs),
(576,681,o),
(499,673,o),
(376,673,cs),
(231,673,o),
(162,688,o),
(122,688,cs),
(69,688,o),
(34,557,o),
(34,520,cs),
(34,504,o),
(40,495,o),
(52,495,cs),
(101,495,o),
(119,627,o),
(226,627,cs),
(274,627,o),
(313,607,o),
(302,532,cs),
(288,433,o),
(255,283,o),
(236,188,cs),
(203,26,o),
(123,56,o),
(123,22,cs),
(123,0,o),
(148,-1,o),
(239,-1,cs)
);
}
);
width = 963;
}
);
metricLeft = T;
metricRight = h;
},
{
glyphname = a;
lastChange = "2025-05-28 11:40:26 +0000";
layers = (
{
anchors = (
{
name = bottom;
pos = (207,0);
},
{
name = ogonek;
pos = (325,0);
},
{
name = top;
pos = (283,500);
}
);
backgroundImage = {
angle = -1.1;
imagePath = "/Downloads/Images/a-Regular.tif";
locked = 1;
pos = (-38,-52);
scale = (2.9,2.9);
};
layerId = m01;
shapes = (
{
closed = 1;
nodes = (
(328,-17,o),
(390,50,o),
(390,75,cs),
(390,84,o),
(385,94,o),
(377,94,cs),
(369,94,o),
(354,83,o),
(338,83,cs),
(326,83,o),
(318,110,o),
(318,142,cs),
(318,202,o),
(375,355,o),
(375,438,cs),
(375,471,o),
(363,519,o),
(306,519,cs),
(226,519,o),
(62,412,o),
(62,308,cs),
(62,281,o),
(80,270,o),
(101,270,cs),
(128,270,o),
(154,286,o),
(168,331,cs),
(189,400,o),
(221,434,o),
(251,434,cs),
(270,434,o),
(283,424,o),
(283,392,cs),
(283,305,o),
(235,275,o),
(140,218,cs),
(50,164,o),
(10,119,o),
(10,66,cs),
(10,21,o),
(39,-13,o),
(78,-13,cs),
(110,-13,o),
(175,28,o),
(202,28,cs),
(229,28,o),
(238,-17,o),
(273,-17,cs)
);
},
{
closed = 1;
nodes = (
(132,66,o),
(122,82,o),
(122,108,cs),
(122,144,o),
(189,203,o),
(221,203,cs),
(241,203,o),
(249,194,o),
(249,170,cs),
(249,101,o),
(187,66,o),
(151,66,cs)
);
}
);
width = 439;
},
{
associatedMasterId = m01;
backgroundImage = {
angle = -1.1;
imagePath = "/Downloads/Images/a-Regular.tif";
locked = 1;
pos = (-38,-52);
scale = (2.9,2.9);
};
layerId = "FDBF8774-BA88-4276-8C79-3E0B641C403C";
name = "23 oct. 24 à 12:39";
shapes = (
{
closed = 1;
nodes = (
(333,-17,o),
(395,50,o),
(395,75,cs),
(395,84,o),
(390,94,o),
(382,94,cs),
(374,94,o),
(359,83,o),
(343,83,cs),
(331,83,o),
(323,110,o),
(323,142,cs),
(323,202,o),
(380,355,o),
(380,438,cs),
(380,471,o),
(368,519,o),
(311,519,cs),
(245,519,o),
(59,416,o),
(59,304,cs),
(59,271,o),
(77,267,o),
(100,267,cs),
(127,267,o),
(170,286,o),
(182,331,cs),
(200,397,o),
(226,434,o),
(256,434,cs),
(275,434,o),
(288,424,o),
(288,392,cs),
(288,305,o),
(240,275,o),
(145,218,cs),
(55,164,o),
(15,119,o),
(15,66,cs),
(15,21,o),
(44,-13,o),
(83,-13,cs),
(115,-13,o),
(180,28,o),
(207,28,cs),
(234,28,o),
(243,-17,o),
(278,-17,cs)
);
},
{
closed = 1;
nodes = (
(137,66,o),
(127,82,o),
(127,108,cs),
(127,144,o),
(194,203,o),
(226,203,cs),
(246,203,o),
(254,194,o),
(254,170,cs),
(254,101,o),
(192,66,o),
(156,66,cs)
);
}
);
width = 449;
}
);
unicode = 97;
},
{
glyphname = aogonek;
lastChange = "2025-05-28 11:40:26 +0000";
layers = (
{
anchors = (
{
name = bottom;
pos = (207,0);
},
{
name = ogonek;
pos = (325,0);
},
{
name = top;
pos = (283,500);
}
);
background = {
shapes = (
{
closed = 1;
nodes = (
(132,66,o),
(122,82,o),
(122,108,cs),
(122,144,o),
(189,203,o),
(221,203,cs),
(241,203,o),
(249,194,o),
(249,170,cs),
(249,101,o),
(187,66,o),
(151,66,cs)
);
},
{
closed = 1;
nodes = (
(361,21,o),
(390,58,o),
(390,75,cs),
(390,84,o),
(385,94,o),
(377,94,cs),
(369,94,o),
(354,83,o),
(338,83,cs),
(326,83,o),
(318,110,o),
(318,142,cs),
(318,202,o),
(375,355,o),
(375,438,cs),
(375,471,o),
(363,519,o),
(306,519,cs),
(226,519,o),
(62,412,o),
(62,308,cs),
(62,281,o),
(80,270,o),
(101,270,cs),
(128,270,o),
(154,286,o),
(168,331,cs),
(189,400,o),
(221,434,o),
(251,434,cs),
(270,434,o),
(283,424,o),
(283,392,cs),
(283,305,o),
(235,275,o),
(140,218,cs),
(50,164,o),
(10,119,o),
(10,66,cs),
(10,21,o),
(39,-13,o),
(78,-13,cs),
(110,-13,o),
(175,28,o),
(202,28,cs),
(221,28,o),
(231,6,o),
(247,-7,c),
(212,-30,o),
(182,-72,o),
(182,-123,cs),
(182,-172,o),
(215,-215,o),
(279,-215,cs),
(360,-215,o),
(408,-152,o),
(408,-127,cs),
(408,-113,o),
(401,-106,o),
(389,-106,cs),
(367,-106,o),
(337,-141,o),
(296,-141,cs),
(266,-141,o),
(246,-127,o),
(246,-97,cs),
(246,-63,o),
(273,-30,o),
(314,-7,cs),
(326,0,ls)
);
}
);
};
layerId = m01;
shapes = (
{
closed = 1;
nodes = (
(132,66,o),
(122,82,o),
(122,108,cs),
(122,144,o),
(189,203,o),
(221,203,cs),
(241,203,o),
(249,194,o),
(249,170,cs),
(249,101,o),
(187,66,o),
(151,66,cs)
);
},
{
closed = 1;
nodes = (
(390,16,o),
(390,75,cs),
(390,87,o),
(385,94,o),
(377,94,cs),
(369,94,o),
(354,83,o),
(338,83,cs),
(326,83,o),
(318,110,o),
(318,142,cs),
(318,202,o),
(375,355,o),
(375,438,cs),
(375,471,o),
(363,519,o),
(306,519,cs),
(226,519,o),
(62,412,o),
(62,308,cs),
(62,281,o),
(80,270,o),
(101,270,cs),
(128,270,o),
(154,286,o),
(168,331,cs),
(189,400,o),
(221,434,o),
(251,434,cs),
(270,434,o),
(283,424,o),
(283,392,cs),
(283,305,o),
(235,275,o),
(140,218,cs),
(50,164,o),
(10,119,o),
(10,66,cs),
(10,21,o),
(39,-13,o),
(78,-13,cs),
(110,-13,o),
(173,28,o),
(210,28,cs),
(226,28,o),
(234,16,o),
(234,2,cs),
(234,-35,o),
(175,-60,o),
(175,-125,cs),
(175,-179,o),
(216,-222,o),
(279,-222,cs),
(360,-222,o),
(408,-158,o),
(408,-127,cs),
(408,-113,o),
(401,-106,o),
(389,-106,cs),
(366,-106,o),
(337,-141,o),
(296,-141,cs),
(266,-141,o),
(246,-127,o),
(246,-97,cs),
(246,-28,o)
);
}
);
width = 439;
},
{
associatedMasterId = m01;
layerId = "AC8817CF-F92C-4A1C-BC9B-70887DEF9237";
name = "9 janv. 25 à 14:20";
shapes = (
{
ref = a;
},
{
pos = (61,0);
ref = ogonekcomb;
}
);
width = 439;
}
);
unicode = 261;
},
{
glyphname = ae;
lastChange = "2025-05-28 11:40:26 +0000";
layers = (
{
anchors = (
{
name = bottom;
pos = (207,0);
},
{
name = ogonek;
pos = (325,0);
},
{
name = top;
pos = (283,500);
}
);
background = {
shapes = (
{
closed = 1;
nodes = (
(300,-17,o),
(324,-17,o),
(343,-17,cs),
(391,-17,o),
(545,88,o),
(545,161,cs),
(545,204,o),
(526,233,o),
(492,233,cs),
(467,233,o),
(428,202,o),
(428,174,cs),
(428,150,o),
(442,143,o),
(442,129,cs),
(442,110,o),
(418,67,o),
(386,67,cs),
(354,67,o),
(320,85,o),
(320,157,cs),
(320,216,o),
(364,241,o),
(403,254,cs),
(506,288,o),
(626,346,o),
(626,417,cs),
(626,468,o),
(588,501,o),
(547,501,cs),
(495,501,o),
(427,452,o),
(370,386,c),
(373,405,o),
(375,423,o),
(375,438,cs),
(375,471,o),
(363,519,o),
(306,519,cs),
(226,519,o),
(62,412,o),
(62,308,cs),
(62,281,o),
(80,270,o),
(101,270,cs),
(128,270,o),
(154,286,o),
(168,331,cs),
(189,400,o),
(221,434,o),
(251,434,cs),
(270,434,o),
(283,424,o),
(283,392,cs),
(283,305,o),
(235,275,o),
(140,218,cs),
(50,164,o),
(10,119,o),
(10,66,cs),
(10,21,o),
(39,-13,o),
(78,-13,cs),
(110,-13,o),
(175,28,o),
(202,28,cs),
(241,28,o),
(258,-17,o),
(293,-17,cs)
);
},
{
closed = 1;
nodes = (
(132,66,o),
(122,82,o),
(122,108,cs),
(122,144,o),
(189,203,o),
(221,203,cs),
(241,203,o),
(249,194,o),
(249,170,cs),
(249,101,o),
(187,66,o),
(151,66,cs)
);
},
{
closed = 1;
nodes = (
(430,329,o),
(425,334,o),
(425,344,cs),
(425,366,o),
(464,425,o),
(514,425,cs),
(527,425,o),
(534,417,o),
(534,405,cs),
(534,371,o),
(466,329,o),
(442,329,cs)
);
}
);
};
layerId = m01;
shapes = (
{
closed = 1;
nodes = (
(299,-15,o),
(359,-15,cs),
(430,-15,o),
(571,91,o),
(571,161,cs),
(571,204,o),
(552,233,o),
(518,233,cs),
(493,233,o),
(454,202,o),
(454,174,cs),
(454,150,o),
(468,143,o),
(468,129,cs),
(468,110,o),
(442,65,o),
(402,65,cs),
(358,65,o),
(316,88,o),
(316,157,cs),
(316,216,o),
(364,241,o),
(403,254,cs),
(506,288,o),
(626,350,o),
(626,421,cs),
(626,472,o),
(590,505,o),
(549,505,cs),
(457,505,o),
(388,386,o),
(363,397,cs),
(343,406,o),
(365,450,o),
(353,479,cs),
(345,498,o),
(328,513,o),
(300,513,cs),
(220,513,o),
(56,410,o),
(56,306,cs),
(56,279,o),
(74,268,o),
(95,268,cs),
(122,268,o),
(148,284,o),
(162,329,cs),
(183,398,o),
(213,428,o),
(249,428,cs),
(273,428,o),
(287,412,o),
(287,386,cs),
(287,299,o),
(235,275,o),
(140,218,cs),
(50,164,o),
(10,119,o),
(10,66,cs),
(10,21,o),
(39,-13,o),
(78,-13,cs),
(132,-13,o),
(185,35,o),
(239,35,cs),
(283,35,o)
);
},
{
closed = 1;
nodes = (
(132,66,o),
(122,80,o),
(122,103,cs),
(122,147,o),
(185,206,o),
(221,206,cs),
(243,206,o),
(254,193,o),
(254,171,cs),
(254,106,o),
(187,66,o),
(151,66,cs)
);
},
{
closed = 1;
nodes = (
(409,317,o),
(403,322,o),
(403,332,cs),
(403,361,o),
(464,425,o),
(514,425,cs),
(528,425,o),
(534,417,o),
(534,405,cs),
(534,371,o),
(444,317,o),
(420,317,cs)
);
}
);
width = 622;
}
);
metricLeft = a;
metricRight = e;
unicode = 230;
},
{
glyphname = b;
lastChange = "2025-05-28 11:40:26 +0000";
layers = (
{
background = {
shapes = (
{
closed = 1;
nodes = (
(76,-16,o),
(81,0,o),
(89,17,c),
(118,227,l),
(145,294,l),
(78,261,l),
(60,183,o),
(18,50,o),
(18,10,cs),
(18,-6,o),
(33,-16,o),
(58,-16,cs)
);
},
{
closed = 1;
nodes = (
(267,515,o),
(226,409,o),
(200,409,cs),
(184,409,o),
(183,429,o),
(184,450,c),
(84,211,l),
(63,-5,l),
(73,-4,l),
(76,8,o),
(79,16,o),
(87,16,cs),
(103,16,o),
(118,-16,o),
(152,-16,cs),
(242,-16,o),
(424,173,o),
(424,398,cs),
(424,473,o),
(373,515,o),
(339,515,cs)
);
},
{
closed = 1;
nodes = (
(316,397,o),
(337,378,o),
(337,314,cs),
(337,250,o),
(290,88,o),
(195,88,cs),
(163,88,o),
(139,121,o),
(139,174,cs),
(139,247,o),
(218,397,o),
(292,397,cs)
);
},
{
closed = 1;
nodes = (
(138,261,l),
(168,424,o),
(254,597,o),
(254,695,cs),
(254,723,o),
(244,732,o),
(231,732,cs),
(210,732,o),
(189,702,o),
(157,684,cs),
(135,671,o),
(95,665,o),
(95,636,cs),
(95,607,o),
(137,598,o),
(137,514,cs),
(137,475,o),
(107,365,o),
(78,261,c)
);
}
);
};
layerId = m01;
shapes = (
{
closed = 1;
nodes = (
(84,-16,o),
(83,29,o),
(101,29,cs),
(120,29,o),
(127,-16,o),
(165,-16,cs),
(251,-16,o),
(424,173,o),
(424,398,cs),
(424,473,o),
(377,515,o),
(339,515,cs),
(267,515,o),
(226,409,o),
(200,409,cs),
(191,409,o),
(185,416,o),
(185,429,cs),
(185,481,o),
(254,610,o),
(254,695,cs),
(254,723,o),
(244,732,o),
(231,732,cs),
(210,732,o),
(189,702,o),
(157,684,cs),
(135,671,o),
(95,665,o),
(95,636,cs),
(95,607,o),
(137,598,o),
(137,514,cs),
(137,409,o),
(18,81,o),
(18,15,cs),
(18,-6,o),
(33,-16,o),
(55,-16,cs)
);
},
{
closed = 1;
nodes = (
(316,397,o),
(337,378,o),
(337,318,cs),
(337,250,o),
(291,84,o),
(196,84,cs),
(162,84,o),
(139,119,o),
(139,168,cs),
(139,247,o),
(218,397,o),
(292,397,cs)
);
}
);
width = 442;
}
);
metricLeft = l;
metricRight = o;
unicode = 98;
},
{
glyphname = c;
lastChange = "2025-05-28 11:40:26 +0000";
layers = (
{
anchors = (
{
name = bottom;
pos = (167,0);
},
{
name = top;
pos = (289,500);
}
);
backgroundImage = {
imagePath = "/Downloads/Images/c-Regular.tif";
locked = 1;
pos = (-86,-92);
scale = (2.9626,2.9626);
};
layerId = m01;
shapes = (
{
closed = 1;
nodes = (
(206,-14,o),
(291,98,o),
(291,129,cs),
(291,139,o),
(286,147,o),
(280,147,cs),
(266,147,o),
(223,96,o),
(173,96,cs),
(133,96,o),
(101,124,o),
(101,181,cs),
(101,308,o),
(188,412,o),
(245,412,cs),
(282,412,o),
(261,356,o),
(299,356,cs),
(337,356,o),
(370,415,o),
(370,462,cs),
(370,489,o),
(350,516,o),
(315,516,cs),
(171,516,o),
(18,287,o),
(18,113,cs),
(18,39,o),
(62,-14,o),
(128,-14,cs)
);
}
);
width = 364;
}
);
metricLeft = o;
unicode = 99;
},
{
glyphname = ccedilla;
lastChange = "2025-05-28 11:40:26 +0000";
layers = (
{
anchors = (
{
name = bottom;
pos = (162,-200);
},
{
name = top;
pos = (289,500);
}
);
background = {
shapes = (
{
closed = 1;
nodes = (
(206,-14,o),
(291,98,o),
(291,129,cs),
(291,139,o),
(286,147,o),
(280,147,cs),
(266,147,o),
(223,96,o),
(173,96,cs),
(133,96,o),
(101,124,o),
(101,181,cs),
(101,308,o),
(188,412,o),
(245,412,cs),
(282,412,o),
(261,356,o),
(299,356,cs),
(337,356,o),
(370,415,o),
(370,462,cs),
(370,489,o),
(350,516,o),
(315,516,cs),
(171,516,o),
(18,287,o),
(18,113,cs),
(18,39,o),
(62,-14,o),
(128,-14,cs)
);
},
{
closed = 1;
nodes = (
(95,-17,o),
(24,-30,o),
(24,-58,cs),
(24,-90,o),
(82,-81,o),
(82,-125,cs),
(82,-159,o),
(57,-178,o),
(35,-178,cs),
(14,-178,o),
(1,-159,o),
(-24,-159,cs),
(-50,-159,o),
(-63,-178,o),
(-63,-195,cs),
(-63,-220,o),
(-39,-244,o),
(11,-244,cs),
(85,-244,o),
(168,-150,o),
(168,-98,cs),
(168,-62,o),
(119,-67,o),
(119,-40,cs),
(119,-19,o),
(162,-12,o),
(184,0,c),
(79,0,l)
);
}
);
};
layerId = m01;
shapes = (
{
closed = 1;
nodes = (
(-63,-220,o),
(-39,-244,o),
(11,-244,cs),
(85,-244,o),
(168,-150,o),
(168,-98,cs),
(168,-62,o),
(119,-67,o),
(119,-40,cs),
(119,-19,o),
(153,-15,o),
(185,3,cs),
(239,33,o),
(291,105,o),
(291,129,cs),
(291,139,o),
(286,147,o),
(280,147,cs),
(266,147,o),
(223,96,o),
(173,96,cs),
(133,96,o),
(101,124,o),
(101,181,cs),
(101,308,o),
(188,412,o),
(245,412,cs),
(282,412,o),
(261,356,o),
(299,356,cs),
(337,356,o),
(370,415,o),
(370,462,cs),
(370,489,o),
(350,516,o),
(315,516,cs),
(171,516,o),
(18,287,o),
(18,113,cs),
(18,20,o),
(81,9,o),
(81,-9,cs),
(81,-25,o),
(24,-31,o),
(24,-58,cs),
(24,-90,o),
(82,-81,o),
(82,-125,cs),
(82,-159,o),
(57,-178,o),
(35,-178,cs),
(14,-178,o),
(1,-159,o),
(-24,-159,cs),
(-50,-159,o),
(-63,-178,o),
(-63,-195,cs)
);
}
);
width = 369;
}
);
unicode = 231;
},
{
glyphname = d;
lastChange = "2025-05-28 11:40:26 +0000";
layers = (
{
anchors = (
{
name = bottom;
pos = (351,0);
},
{
name = center;
pos = (364,250);
},
{
name = top;
pos = (466,690);
},
{
name = topright;
pos = (505,720);
}
);
background = {
shapes = (
{
closed = 1;
nodes = (
(362,261,l),
(392,424,o),
(478,597,o),
(478,695,cs),
(478,723,o),
(468,732,o),
(455,732,cs),
(434,732,o),
(413,702,o),
(381,684,cs),
(359,671,o),
(319,665,o),
(319,636,cs),
(319,607,o),
(361,598,o),
(361,514,cs),
(361,475,o),
(331,365,o),
(302,261,c)
);
},
{
closed = 1;
nodes = (
(330,-14,o),
(352,16,o),
(384,46,cs),
(410,71,o),
(446,94,o),
(446,124,cs),
(446,137,o),
(442,147,o),
(428,147,cs),
(414,147,o),
(389,126,o),
(372,126,cs),
(357,126,o),
(352,142,o),
(352,166,cs),
(352,197,o),
(356,229,o),
(362,261,c),
(302,261,l),
(277,169,o),
(253,81,o),
(253,50,cs),
(253,8,o),
(281,-14,o),
(302,-14,cs)
);
},
{
closed = 1;
nodes = (
(175,-15,o),
(216,91,o),
(242,91,cs),
(258,91,o),
(259,71,o),
(258,50,c),
(358,289,l),
(379,505,l),
(369,504,l),
(366,492,o),
(363,484,o),
(355,484,cs),
(339,484,o),
(324,516,o),
(290,516,cs),
(200,516,o),
(18,327,o),
(18,102,cs),
(18,27,o),
(69,-15,o),
(103,-15,cs)
);
},
{
closed = 1;
nodes = (
(126,103,o),
(105,122,o),
(105,186,cs),
(105,250,o),
(152,412,o),
(247,412,cs),
(279,412,o),
(303,379,o),
(303,326,cs),
(303,253,o),
(224,103,o),
(150,103,cs)
);
}
);
};
layerId = m01;
shapes = (
{
closed = 1;
nodes = (
(330,-14,o),
(352,16,o),
(384,46,cs),
(410,71,o),
(446,94,o),
(446,124,cs),
(446,137,o),
(442,147,o),
(428,147,cs),
(414,147,o),
(389,126,o),
(372,126,cs),
(357,126,o),
(352,142,o),
(352,166,cs),
(352,339,o),
(478,582,o),
(478,695,cs),
(478,723,o),
(468,732,o),
(455,732,cs),
(434,732,o),
(413,702,o),
(381,684,cs),
(359,671,o),
(319,665,o),
(319,636,cs),
(319,607,o),
(361,598,o),
(361,517,cs),
(361,494,o),
(360,478,o),
(348,478,cs),
(333,478,o),
(321,516,o),
(285,516,cs),
(200,516,o),
(18,327,o),
(18,102,cs),
(18,38,o),
(58,-15,o),
(103,-15,cs),
(184,-15,o),
(210,93,o),
(246,93,cs),
(256,93,o),
(263,88,o),
(263,77,cs),
(263,64,o),
(256,53,o),
(256,35,cs),
(256,8,o),
(277,-14,o),
(302,-14,cs)
);
},
{
closed = 1;
nodes = (
(126,103,o),
(105,122,o),
(105,186,cs),
(105,250,o),
(152,412,o),
(247,412,cs),
(279,412,o),
(303,379,o),
(303,326,cs),
(303,253,o),
(224,103,o),
(150,103,cs)
);
}
);
width = 495;
}
);
metricLeft = o;
metricRight = l;
unicode = 100;
},
{
glyphname = dcroat;
lastChange = "2025-05-28 11:40:26 +0000";
layers = (
{
anchors = (
{
name = bottom;
pos = (351,0);
},
{
name = center;
pos = (364,250);
},
{
name = top;
pos = (436,720);
},
{
name = topright;
pos = (505,720);
}
);
layerId = m01;
shapes = (
{
closed = 1;
nodes = (
(330,-14,o),
(352,16,o),
(384,46,cs),
(410,71,o),
(446,94,o),
(446,124,cs),
(446,137,o),
(442,147,o),
(428,147,cs),
(414,147,o),
(389,126,o),
(372,126,cs),
(357,126,o),
(352,142,o),
(352,166,cs),
(352,290,o),
(397,391,o),
(422,475,cs),
(441,539,o),
(442,579,o),
(462,593,cs),
(481,606,o),
(520,592,o),
(520,633,cs),
(520,667,o),
(490,663,o),
(482,671,cs),
(475,678,o),
(478,687,o),
(478,699,cs),
(478,723,o),
(468,732,o),
(455,732,cs),
(434,732,o),
(412,706,o),
(381,684,cs),
(358,668,o),
(336,664,o),
(313,664,cs),
(285,664,o),
(255,671,o),
(224,671,cs),
(190,671,o),
(161,648,o),
(161,621,cs),
(161,595,o),
(184,582,o),
(210,582,cs),
(234,582,o),
(280,595,o),
(330,595,cs),
(363,595,o),
(372,571,o),
(372,537,cs),
(372,508,o),
(360,478,o),
(348,478,cs),
(333,478,o),
(321,516,o),
(285,516,cs),
(200,516,o),
(18,327,o),
(18,102,cs),
(18,38,o),
(58,-15,o),
(103,-15,cs),
(184,-15,o),
(210,93,o),
(246,93,cs),
(256,93,o),
(263,88,o),
(263,77,cs),
(263,64,o),
(256,53,o),
(256,35,cs),
(256,8,o),
(277,-14,o),
(302,-14,cs)
);
},
{
closed = 1;
nodes = (
(126,103,o),
(105,122,o),
(105,186,cs),
(105,250,o),
(152,412,o),
(247,412,cs),
(279,412,o),
(303,379,o),
(303,326,cs),
(303,253,o),
(224,103,o),
(150,103,cs)
);
}
);
width = 495;
}
);
unicode = 273;
},
{
glyphname = eth;
lastChange = "2025-05-28 11:40:26 +0000";
layers = (
{
anchors = (
{
name = bottom;
pos = (351,-6);
},
{
name = center;
pos = (364,244);
},
{
name = ogonek;
pos = (369,4);
},
{
name = top;
pos = (436,714);
},
{
name = topright;
pos = (505,714);
}
);
background = {
anchors = (
{
name = bottom;
pos = (351,0);
},
{
name = center;
pos = (364,250);
},
{
name = top;
pos = (436,720);
},
{
name = topright;
pos = (505,720);
}
);
shapes = (
{
ref = o;
},
{
closed = 1;
nodes = (
(413,518,o),
(371,603,o),
(317,663,cs),
(282,702,o),
(220,736,o),
(179,736,cs),
(165,736,o),
(157,731,o),
(154,724,cs),
(151,716,o),
(154,710,o),
(160,706,cs),
(173,697,o),
(205,690,o),
(232,666,cs),
(265,637,o),
(287,595,o),
(289,508,c),
(396,357,l)
);
}
);
};
layerId = m01;
shapes = (
{
closed = 1;
nodes = (
(294,-15,o),
(417,236,o),
(417,416,cs),
(417,493,o),
(394,555,o),
(364,604,cs),
(356,616,o),
(359,626,o),
(373,631,cs),
(386,635,o),
(397,639,o),
(407,644,cs),
(433,656,o),
(449,683,o),
(438,701,cs),
(430,718,o),
(408,721,o),
(387,710,cs),
(369,703,o),
(349,689,o),
(327,675,cs),
(317,669,o),
(308,670,o),
(299,677,cs),
(262,705,o),
(216,726,o),
(183,726,cs),
(169,726,o),
(161,721,o),
(158,714,cs),
(155,706,o),
(158,700,o),
(164,696,cs),
(177,687,o),
(212,683,o),
(239,659,cs),
(243,656,o),
(246,653,o),
(249,650,cs),
(255,644,o),
(248,636,o),
(234,631,cs),
(209,622,o),
(185,613,o),
(168,604,cs),
(139,592,o),
(120,565,o),
(136,542,cs),
(147,526,o),
(169,528,o),
(193,539,cs),
(211,547,o),
(237,566,o),
(269,585,cs),
(280,592,o),
(291,588,o),
(296,576,cs),
(307,549,o),
(313,522,o),
(313,503,cs),
(313,484,o),
(308,474,o),
(289,474,cs),
(275,474,o),
(258,481,o),
(238,481,cs),
(228,481,o),
(216,478,o),
(204,472,cs),
(133,434,o),
(15,260,o),
(15,107,cs),
(15,40,o),
(75,-15,o),
(137,-15,cs)
);
},
{
closed = 1;
nodes = (
(147,70,o),
(118,105,o),
(118,171,cs),
(118,237,o),
(172,423,o),
(245,423,cs),
(290,423,o),
(308,382,o),
(308,312,cs),
(308,224,o),
(250,70,o),
(180,70,cs)
);
}
);
width = 436;
},
{
anchors = (
{
name = bottom;
pos = (351,0);
},
{
name = center;
pos = (364,250);
},
{
name = ogonek;
pos = (369,10);
},
{
name = top;
pos = (436,720);
},
{
name = topright;
pos = (505,720);
}
);
associatedMasterId = m01;
background = {
anchors = (
{
name = bottom;
pos = (351,0);
},
{
name = center;
pos = (364,250);
},
{
name = top;
pos = (436,720);
},
{
name = topright;
pos = (505,720);
}
);
shapes = (
{
ref = o;
},
{
closed = 1;
nodes = (
(413,518,o),
(371,603,o),
(317,663,cs),
(282,702,o),
(220,736,o),
(179,736,cs),
(165,736,o),
(157,731,o),
(154,724,cs),
(151,716,o),
(154,710,o),
(160,706,cs),
(173,697,o),
(205,690,o),
(232,666,cs),
(265,637,o),
(287,595,o),
(289,508,c),
(396,357,l)
);
}
);
};
layerId = "CE8B419F-159F-45AD-BA24-6B8728B744AB";
name = "12 mars 25 à 11:54";
shapes = (
{
closed = 1;
nodes = (
(294,-5,o),
(417,246,o),
(417,426,cs),
(417,532,o),
(373,613,o),
(326,663,cs),
(290,701,o),
(225,736,o),
(183,736,cs),
(169,736,o),
(161,731,o),
(158,724,cs),
(155,716,o),
(158,710,o),
(164,706,cs),
(177,697,o),
(212,693,o),
(239,669,cs),
(282,632,o),
(313,555,o),
(313,513,cs),
(313,494,o),
(308,484,o),
(289,484,cs),
(275,484,o),
(258,491,o),
(238,491,cs),
(228,491,o),
(216,488,o),
(204,482,cs),
(133,444,o),
(15,270,o),
(15,117,cs),
(15,50,o),
(75,-5,o),
(137,-5,cs)
);
},
{
closed = 1;
nodes = (
(147,80,o),
(118,115,o),
(118,181,cs),
(118,247,o),
(172,433,o),
(245,433,cs),
(290,433,o),
(308,392,o),
(308,322,cs),
(308,234,o),
(250,80,o),
(180,80,cs)
);
},
{
closed = 1;
nodes = (
(120,575,o),
(136,552,cs),
(147,536,o),
(169,538,o),
(193,549,cs),
(216,559,o),
(259,592,o),
(305,614,cs),
(341,631,o),
(382,642,o),
(407,654,cs),
(433,666,o),
(449,693,o),
(438,711,cs),
(430,728,o),
(408,731,o),
(387,720,cs),
(358,708,o),
(325,681,o),
(283,661,cs),
(246,643,o),
(197,629,o),
(168,614,cs),
(139,602,o)
);
}
);
width = 436;
}
);
unicode = 240;
},
{
glyphname = e;
lastChange = "2025-05-28 11:40:26 +0000";
layers = (
{
anchors = (
{
name = bottom;
pos = (184,0);
},
{
name = ogonek;
pos = (173,0);
},
{
name = top;
pos = (320,500);
}
);
layerId = m01;
shapes = (
{
closed = 1;
nodes = (
(173,-16,o),
(327,89,o),
(327,162,cs),
(327,205,o),
(308,234,o),
(274,234,cs),
(249,234,o),
(210,203,o),
(210,175,cs),
(210,151,o),
(224,144,o),
(224,130,cs),
(224,111,o),
(200,68,o),
(168,68,cs),
(136,68,o),
(102,99,o),
(102,171,cs),
(102,230,o),
(146,255,o),
(179,268,cs),
(281,309,o),
(402,360,o),
(402,431,cs),
(402,482,o),
(364,515,o),
(323,515,cs),
(207,515,o),
(19,281,o),
(19,129,cs),
(19,27,o),
(70,-16,o),
(125,-16,cs)
);
},
{
closed = 1;
nodes = (
(206,343,o),
(201,348,o),
(201,358,cs),
(201,380,o),
(240,439,o),
(290,439,cs),
(303,439,o),
(310,431,o),
(310,419,cs),
(310,385,o),
(242,343,o),
(218,343,cs)
);
}
);
width = 398;
}
);
metricLeft = o;
unicode = 101;
},
{
glyphname = eogonek;
lastChange = "2025-05-28 11:40:26 +0000";
layers = (
{
anchors = (
{
name = bottom;
pos = (184,0);
},
{
name = ogonek;
pos = (173,0);
},
{
name = top;
pos = (320,500);
}
);
background = {
shapes = (
{
closed = 1;
nodes = (
(206,343,o),
(201,348,o),
(201,358,cs),
(201,380,o),
(240,439,o),
(290,439,cs),
(303,439,o),
(310,431,o),
(310,419,cs),
(310,385,o),
(242,343,o),
(218,343,cs)
);
},
{
closed = 1;
nodes = (
(237,32,o),
(327,106,o),
(327,162,cs),
(327,205,o),
(308,234,o),
(274,234,cs),
(249,234,o),
(210,203,o),
(210,175,cs),
(210,151,o),
(224,144,o),
(224,130,cs),
(224,111,o),
(200,68,o),
(168,68,cs),
(136,68,o),
(102,99,o),
(102,171,cs),
(102,230,o),
(146,255,o),
(179,268,cs),
(281,309,o),
(402,360,o),
(402,431,cs),
(402,482,o),
(364,515,o),
(323,515,cs),
(207,515,o),
(19,281,o),
(19,129,cs),
(19,49,o),
(50,5,o),
(91,-10,c),
(58,-33,o),
(30,-74,o),
(30,-123,cs),
(30,-172,o),
(63,-215,o),
(127,-215,cs),
(208,-215,o),
(256,-152,o),
(256,-127,cs),
(256,-113,o),
(249,-106,o),
(237,-106,cs),
(215,-106,o),
(185,-141,o),
(144,-141,cs),
(114,-141,o),
(94,-127,o),
(94,-97,cs),
(94,-60,o),
(127,-23,o),
(174,0,cs)
);
},
{
closed = 0;
nodes = (
(82,-3,ls),
(82,-32,o),
(23,-60,o),
(23,-125,cs),
(23,-179,o),
(64,-222,o),
(127,-222,cs),
(208,-222,o),
(256,-158,o),
(256,-127,cs),
(256,-113,o),
(249,-106,o),
(237,-106,cs),
(214,-106,o),
(185,-141,o),
(144,-141,cs),
(114,-141,o),
(94,-127,o),
(94,-97,cs)
);
}
);
};
layerId = m01;
shapes = (
{
closed = 1;
nodes = (
(206,343,o),
(201,348,o),
(201,358,cs),
(201,380,o),
(240,439,o),
(290,439,cs),
(303,439,o),
(310,431,o),
(310,419,cs),
(310,385,o),
(242,343,o),
(218,343,cs)
);
},
{
closed = 1;
nodes = (
(327,47,o),
(327,174,cs),
(327,203,o),
(308,234,o),
(274,234,cs),
(249,234,o),
(210,203,o),
(210,175,cs),
(210,152,o),
(224,144,o),
(224,130,cs),
(224,111,o),
(200,68,o),
(168,68,cs),
(136,68,o),
(102,99,o),
(102,171,cs),
(102,230,o),
(146,255,o),
(179,268,cs),
(281,309,o),
(402,360,o),
(402,431,cs),
(402,482,o),
(364,515,o),
(323,515,cs),
(207,515,o),
(19,281,o),
(19,129,cs),
(19,14,o),
(75,12,o),
(75,-13,cs),
(75,-36,o),
(32,-67,o),
(32,-124,cs),
(32,-177,o),
(69,-222,o),
(138,-222,cs),
(222,-222,o),
(267,-156,o),
(267,-127,cs),
(267,-113,o),
(260,-106,o),
(248,-106,cs),
(226,-106,o),
(196,-141,o),
(151,-141,cs),
(125,-141,o),
(105,-126,o),
(105,-97,cs),
(105,-10,o)
);
}
);
width = 398;
}
);
unicode = 281;
},
{
glyphname = f;
lastChange = "2025-05-28 11:40:26 +0000";
layers = (
{
layerId = m01;
shapes = (
{
closed = 1;
nodes = (
(-101,-245,o),
(57,-153,o),
(110,7,cs),
(126,55,o),
(146,188,o),
(170,289,cs),
(183,340,o),
(220,348,o),
(267,348,cs),
(327,348,o),
(360,381,o),
(360,418,cs),
(360,432,o),
(352,437,o),
(342,437,cs),
(328,437,o),
(308,431,o),
(273,431,cs),
(248,431,o),
(223,449,o),
(223,471,cs),
(223,514,o),
(255,567,o),
(295,595,cs),
(334,622,o),
(388,614,o),
(414,614,cs),
(440,614,o),
(472,633,o),
(472,676,cs),
(472,691,o),
(457,736,o),
(421,736,cs),
(363,736,o),
(216,652,o),
(157,505,cs),
(149,485,o),
(139,460,o),
(114,444,cs),
(93,430,o),
(58,423,o),
(58,394,cs),
(58,365,o),
(90,368,o),
(90,284,cs),
(90,177,o),
(41,-50,o),
(-36,-104,cs),
(-75,-131,o),
(-129,-123,o),
(-155,-123,cs),
(-181,-123,o),
(-213,-142,o),
(-213,-185,cs),
(-213,-200,o),
(-198,-245,o),
(-162,-245,cs)
);
}
);
width = 340;
}
);
unicode = 102;
},
{
glyphname = g;
lastChange = "2025-05-28 11:40:26 +0000";
layers = (
{
anchors = (
{
name = bottom;
pos = (193,-230);
},
{
name = top;
pos = (250,500);
}
);
layerId = m01;
shapes = (
{
closed = 1;
nodes = (
(215,-230,o),
(358,-64,o),
(358,60,cs),
(358,109,o),
(333,146,o),
(302,149,cs),
(259,154,o),
(208,127,o),
(169,127,cs),
(142,127,o),
(128,140,o),
(128,161,cs),
(128,191,o),
(153,212,o),
(185,222,cs),
(224,234,o),
(270,229,o),
(322,270,cs),
(368,306,o),
(380,362,o),
(407,418,cs),
(441,488,o),
(491,520,o),
(491,578,cs),
(491,607,o),
(470,630,o),
(441,630,cs),
(399,630,o),
(385,600,o),
(385,563,cs),
(385,537,o),
(391,481,o),
(364,481,cs),
(341,481,o),
(322,513,o),
(259,513,cs),
(160,513,o),
(80,439,o),
(80,330,cs),
(80,296,o),
(88,273,o),
(88,239,cs),
(88,101,o),
(-74,22,o),
(-74,-116,cs),
(-74,-196,o),
(-14,-230,o),
(58,-230,cs)
);
},
{
closed = 1;
nodes = (
(69,-161,o),
(26,-152,o),
(26,-101,cs),
(26,-16,o),
(112,88,o),
(205,79,cs),
(226,76,o),
(252,57,o),
(252,9,cs),
(252,-88,o),
(161,-161,o),
(92,-161,cs)
);
},
{
closed = 1;
nodes = (
(169,278,o),
(159,295,o),
(159,318,cs),
(159,384,o),
(217,454,o),
(269,454,cs),
(301,454,o),
(313,429,o),
(313,400,cs),
(313,330,o),
(236,278,o),
(193,278,cs)
);
}
);
width = 436;
},
{
associatedMasterId = m01;
backgroundImage = {
imagePath = "/Downloads/Images/g-Regular.tif";
locked = 1;
pos = (-136,-453);
scale = (2.9648,2.9648);
};
layerId = "A8CB6139-0562-43B1-AD24-0D60A4ECFC63";
name = "23 oct. 24 à 12:23";
shapes = (
{
closed = 1;
nodes = (
(215,-230,o),
(358,-64,o),
(358,60,cs),
(358,109,o),
(333,146,o),
(302,149,cs),
(259,154,o),
(208,127,o),
(169,127,cs),
(142,127,o),
(128,140,o),
(128,161,cs),
(128,200,o),
(170,223,o),
(215,229,cs),
(280,237,o),
(343,265,o),
(390,371,cs),
(442,489,o),
(477,509,o),
(477,564,cs),
(477,608,o),
(431,631,o),
(395,631,cs),
(359,631,o),
(325,621,o),
(325,588,cs),
(325,555,o),
(384,566,o),
(384,509,cs),
(384,493,o),
(373,481,o),
(362,481,cs),
(340,481,o),
(328,513,o),
(259,513,cs),
(160,513,o),
(80,439,o),
(80,330,cs),
(80,296,o),
(88,273,o),
(88,239,cs),
(88,101,o),
(-74,22,o),
(-74,-116,cs),
(-74,-196,o),
(-14,-230,o),
(58,-230,cs)
);
},
{
closed = 1;
nodes = (
(69,-161,o),
(26,-152,o),
(26,-101,cs),
(26,-16,o),
(112,88,o),
(205,79,cs),
(226,76,o),
(252,57,o),
(252,9,cs),
(252,-88,o),
(161,-161,o),
(92,-161,cs)
);
},
{
closed = 1;
nodes = (
(166,278,o),
(159,299,o),
(159,318,cs),
(159,384,o),
(217,454,o),
(269,454,cs),
(302,454,o),
(313,427,o),
(313,400,cs),
(313,330,o),
(233,278,o),
(193,278,cs)
);
}
);
width = 436;
}
);
unicode = 103;
},
{
glyphname = h;
lastChange = "2025-05-28 11:40:26 +0000";
layers = (
{
associatedMasterId = m01;
backgroundImage = {
imagePath = "/Downloads/Images/h-Regular.tif";
locked = 1;
pos = (-38,-63);
scale = (2.95,2.95);
};
layerId = "4091B5D6-76EB-476D-97AF-DD887F930A34";
name = "23 oct. 24 à 16:40";
shapes = (
{
closed = 1;
nodes = (
(456,306,o),
(456,414,cs),
(456,459,o),
(439,514,o),
(393,514,cs),
(324,514,o),
(223,425,o),
(202,425,cs),
(194,425,o),
(191,431,o),
(195,452,c),
(134,266,l),
(144,269,l),
(165,331,o),
(242,417,o),
(316,417,cs),
(348,417,o),
(364,377,o),
(364,335,cs),
(364,283,o),
(329,158,o),
(289,114,cs),
(261,84,o),
(217,76,o),
(217,33,cs),
(217,3,o),
(244,-12,o),
(268,-12,cs),
(370,-12,o)
);
},
{
pos = (-28,0);
ref = pied;
},
{
alignment = -1;
pos = (9,0);
ref = hampe;
}
);
width = 489;
},
{
associatedMasterId = m01;
backgroundImage = {
imagePath = "/Downloads/Images/h-Regular.tif";
locked = 1;
pos = (-38,-63);
scale = (2.95,2.95);
};
layerId = "36FD4140-BE04-4A44-87E5-D30687F47861";
name = "23 oct. 24 à 16:36";
shapes = (
{
closed = 1;
nodes = (
(365,-12,o),
(452,311,o),
(452,414,cs),
(452,459,o),
(436,514,o),
(393,514,cs),
(324,514,o),
(223,425,o),
(202,425,cs),
(194,425,o),
(191,431,o),
(195,452,c),
(134,266,l),
(144,269,l),
(165,331,o),
(242,417,o),
(316,417,cs),
(348,417,o),
(364,377,o),
(364,335,cs),
(364,283,o),
(341,141,o),
(283,112,cs),
(275,108,o),
(261,115,o),
(249,115,cs),
(237,115,o),
(207,92,o),
(207,54,cs),
(207,16,o),
(242,-12,o),
(268,-12,cs)
);
},
{
pos = (-28,0);
ref = pied;
},
{
alignment = -1;
pos = (9,0);
ref = hampe;
}
);
width = 489;
},
{
associatedMasterId = m01;
layerId = "BD9B5E9C-B0EB-4A52-A86F-BE75F8957D5D";
name = "3 oct. 24 à 15:10";
shapes = (
{
alignment = -1;
pos = (6,0);
ref = hampe;
},
{
pos = (-31,0);
ref = pied;
},
{
pos = (-13,0);
ref = jambage;
},
{
pos = (230,0);
ref = sortie;
}
);
width = 490;
},
{
associatedMasterId = m01;
backgroundImage = {
imagePath = "/Downloads/Images/h-Regular.tif";
locked = 1;
pos = (-38,-63);
scale = (2.95,2.95);
};
layerId = "C87699AF-C6F3-4BFF-BCD0-705EEF559A2C";
name = "23 oct. 24 à 16:43";
shapes = (
{
closed = 1;
nodes = (
(456,306,o),
(456,414,cs),
(456,459,o),
(439,514,o),
(393,514,cs),
(324,514,o),
(223,425,o),
(202,425,cs),
(194,425,o),
(191,431,o),
(195,452,c),
(134,266,l),
(144,269,l),
(165,331,o),
(242,417,o),
(316,417,cs),
(348,417,o),
(364,377,o),
(364,335,cs),
(364,271,o),
(334,166,o),
(305,132,cs),
(276,98,o),
(259,101,o),
(242,95,cs),
(226,89,o),
(212,73,o),
(212,43,cs),
(212,11,o),
(241,-12,o),
(268,-12,cs),
(370,-12,o)
);
},
{
pos = (-28,0);
ref = pied;
},
{
alignment = -1;
pos = (9,0);
ref = hampe;
}
);
width = 489;
},
{
background = {
shapes = (
{
closed = 1;
nodes = (
(365,-12,o),
(451,306,o),
(451,414,cs),
(451,459,o),
(434,514,o),
(388,514,cs),
(312,514,o),
(226,424,o),
(199,424,cs),
(189,424,o),
(185,430,o),
(185,440,cs),
(185,477,o),
(254,603,o),
(254,695,cs),
(254,723,o),
(244,732,o),
(231,732,cs),
(210,732,o),
(189,702,o),
(157,684,cs),
(135,671,o),
(95,665,o),
(95,636,cs),
(95,607,o),
(137,598,o),
(137,514,cs),
(137,475,o),
(107,365,o),
(78,261,cs),
(61,191,o),
(20,100,o),
(20,52,cs),
(20,17,o),
(46,-11,o),
(69,-11,cs),
(94,-11,o),
(140,19,o),
(140,53,cs),
(140,81,o),
(120,100,o),
(120,160,cs),
(120,188,o),
(127,224,o),
(138,261,cs),
(161,335,o),
(237,417,o),
(311,417,cs),
(343,417,o),
(362,385,o),
(362,329,cs),
(362,255,o),
(336,167,o),
(307,133,cs),
(278,99,o),
(254,101,o),
(237,95,cs),
(221,89,o),
(207,73,o),
(207,43,cs),
(207,11,o),
(236,-12,o),
(263,-12,cs)
);
}
);
};
layerId = m01;
name = Regular;
shapes = (
{
closed = 1;
nodes = (
(369,-10,o),
(452,306,o),
(452,418,cs),
(452,470,o),
(433,514,o),
(383,514,cs),
(301,514,o),
(226,421,o),
(199,421,cs),
(190,421,o),
(184,427,o),
(184,437,cs),
(184,474,o),
(254,603,o),
(254,695,cs),
(254,723,o),
(244,732,o),
(231,732,cs),
(210,732,o),
(189,702,o),
(157,684,cs),
(135,671,o),
(95,665,o),
(95,636,cs),
(95,607,o),
(137,598,o),
(137,514,cs),
(137,475,o),
(107,365,o),
(78,261,cs),
(61,191,o),
(20,100,o),
(20,52,cs),
(20,17,o),
(46,-11,o),
(69,-11,cs),
(94,-11,o),
(140,19,o),
(140,53,cs),
(140,81,o),
(120,100,o),
(120,160,cs),
(120,265,o),
(204,414,o),
(303,414,cs),
(339,414,o),
(359,377,o),
(359,326,cs),
(359,252,o),
(336,163,o),
(315,135,cs),
(291,102,o),
(259,97,o),
(244,90,cs),
(228,83,o),
(215,64,o),
(215,41,cs),
(215,12,o),
(238,-10,o),
(267,-10,cs)
);
}
);
width = 479;
},
{
associatedMasterId = m01;
background = {
shapes = (
{
closed = 1;
nodes = (
(365,-12,o),
(451,306,o),
(451,414,cs),
(451,459,o),
(434,514,o),
(388,514,cs),
(319,514,o),
(218,425,o),
(197,425,cs),
(189,425,o),
(186,431,o),
(190,452,c),
(129,266,l),
(138,261,l),
(161,335,o),
(237,417,o),
(311,417,cs),
(343,417,o),
(362,385,o),
(362,329,cs),
(362,255,o),
(336,167,o),
(307,133,cs),
(278,99,o),
(254,101,o),
(237,95,cs),
(221,89,o),
(207,73,o),
(207,43,cs),
(207,11,o),
(236,-12,o),
(263,-12,cs)
);
},
{
pos = (-33,0);
ref = pied;
},
{
alignment = -1;
pos = (4,0);
ref = hampe;
}
);
};
layerId = "7EE81485-985C-4C15-BA9F-AEB586745065";
name = "8 janv. 25 à 15:27";
shapes = (
{
closed = 1;
nodes = (
(339,-12,o),
(363,73,o),
(396,169,cs),
(426,260,o),
(451,362,o),
(451,414,cs),
(451,459,o),
(434,514,o),
(388,514,cs),
(319,514,o),
(224,422,o),
(201,422,cs),
(191,422,o),
(186,429,o),
(186,439,cs),
(186,481,o),
(254,599,o),
(254,695,cs),
(254,723,o),
(244,732,o),
(231,732,cs),
(210,732,o),
(189,702,o),
(157,684,cs),
(135,671,o),
(95,665,o),
(95,636,cs),
(95,607,o),
(137,598,o),
(137,514,cs),
(137,475,o),
(107,365,o),
(78,261,cs),
(61,191,o),
(20,100,o),
(20,52,cs),
(20,17,o),
(46,-11,o),
(69,-11,cs),
(94,-11,o),
(140,19,o),
(140,53,cs),
(140,81,o),
(120,100,o),
(120,160,cs),
(120,289,o),
(206,408,o),
(306,408,cs),
(338,408,o),
(357,376,o),
(357,320,cs),
(357,260,o),
(343,167,o),
(316,133,cs),
(289,99,o),
(257,105,o),
(240,99,cs),
(224,93,o),
(210,73,o),
(210,43,cs),
(210,11,o),
(243,-12,o),
(270,-12,cs)
);
}
);
width = 478;
}
);
metricLeft = l;
unicode = 104;
},
{
glyphname = hbar;
lastChange = "2025-05-28 11:40:26 +0000";
layers = (
{
layerId = m01;
shapes = (
{
closed = 1;
nodes = (
(369,-10,o),
(452,306,o),
(452,418,cs),
(452,470,o),
(433,514,o),
(383,514,cs),
(301,514,o),
(226,421,o),
(199,421,cs),
(190,421,o),
(184,427,o),
(184,437,cs),
(184,459,o),
(205,515,o),
(219,549,cs),
(230,576,o),
(239,592,o),
(258,592,cs),
(286,592,o),
(318,588,o),
(340,588,cs),
(370,588,o),
(400,607,o),
(400,640,cs),
(400,663,o),
(386,673,o),
(363,673,cs),
(335,673,o),
(305,665,o),
(280,665,cs),
(257,665,o),
(253,673,o),
(253,694,cs),
(253,719,o),
(246,732,o),
(231,732,cs),
(210,732,o),
(193,706,o),
(174,689,cs),
(158,675,o),
(143,669,o),
(118,669,cs),
(84,669,o),
(55,644,o),
(55,615,cs),
(55,592,o),
(78,585,o),
(104,585,cs),
(117,585,o),
(130,582,o),
(134,572,cs),
(154,520,o),
(93,314,o),
(78,261,cs),
(61,191,o),
(20,100,o),
(20,52,cs),
(20,17,o),
(46,-11,o),
(69,-11,cs),
(94,-11,o),
(140,19,o),
(140,53,cs),
(140,81,o),
(120,100,o),
(120,160,cs),
(120,265,o),
(204,414,o),
(303,414,cs),
(339,414,o),
(359,377,o),
(359,326,cs),
(359,252,o),
(336,163,o),
(315,135,cs),
(291,102,o),
(259,97,o),
(244,90,cs),
(228,83,o),
(215,64,o),
(215,41,cs),
(215,12,o),
(238,-10,o),
(267,-10,cs)
);
}
);
width = 478;
}
);
unicode = 295;
},
{
glyphname = hcircumflex;
lastChange = "2025-05-28 11:40:26 +0000";
layers = (
{
layerId = m01;
shapes = (
{
closed = 1;
nodes = (
(369,-10,o),
(452,306,o),
(452,418,cs),
(452,470,o),
(433,514,o),
(383,514,cs),
(301,514,o),
(226,421,o),
(199,421,cs),
(190,421,o),
(184,427,o),
(184,437,cs),
(184,474,o),
(236,576,o),
(236,658,cs),
(236,686,o),
(226,695,o),
(213,695,cs),
(192,695,o),
(171,665,o),
(139,647,cs),
(117,634,o),
(77,628,o),
(77,599,cs),
(77,570,o),
(119,551,o),
(119,487,cs),
(119,448,o),
(101,343,o),
(80,268,cs),
(58,191,o),
(20,100,o),
(20,52,cs),
(20,17,o),
(46,-11,o),
(69,-11,cs),
(94,-11,o),
(140,19,o),
(140,53,cs),
(140,81,o),
(120,100,o),
(120,160,cs),
(120,265,o),
(204,414,o),
(303,414,cs),
(339,414,o),
(359,377,o),
(359,326,cs),
(359,252,o),
(336,163,o),
(315,135,cs),
(291,102,o),
(259,97,o),
(244,90,cs),
(228,83,o),
(215,64,o),
(215,41,cs),
(215,12,o),
(238,-10,o),
(267,-10,cs)
);
},
{
pos = (0,176);
ref = circumflexcomb.case;
}
);
width = 479;
}
);
unicode = 293;
},
{
glyphname = idotless;
lastChange = "2025-05-28 11:40:26 +0000";
layers = (
{
anchors = (
{
name = bottom;
pos = (133,0);
},
{
name = ogonek;
pos = (109,0);
},
{
name = top;
pos = (167,500);
}
);
background = {
shapes = (
{
closed = 1;
nodes = (
(118,-14,o),
(140,16,o),
(172,46,cs),
(198,71,o),
(234,94,o),
(234,124,cs),
(234,137,o),
(230,147,o),
(216,147,cs),
(202,147,o),
(177,126,o),
(160,126,cs),
(145,126,o),
(140,142,o),
(140,166,cs),
(140,197,o),
(144,229,o),
(150,261,c),
(172,345,o),
(209,442,o),
(209,483,cs),
(209,495,o),
(206,516,o),
(188,516,cs),
(152,516,o),
(151,467,o),
(116,444,cs),
(95,430,o),
(60,423,o),
(60,394,cs),
(60,365,o),
(92,368,o),
(92,284,cs),
(92,277,o),
(92,270,o),
(89,258,cs),
(64,166,o),
(41,81,o),
(41,50,cs),
(41,8,o),
(69,-14,o),
(90,-14,cs)
);
}
);
};
layerId = m01;
shapes = (
{
closed = 1;
nodes = (
(104,-12,o),
(128,16,o),
(161,45,cs),
(189,69,o),
(228,92,o),
(228,122,cs),
(228,135,o),
(222,144,o),
(210,144,cs),
(196,144,o),
(171,125,o),
(154,125,cs),
(139,125,o),
(136,142,o),
(136,174,cs),
(136,288,o),
(221,411,o),
(221,480,cs),
(221,502,o),
(218,514,o),
(202,514,cs),
(166,514,o),
(163,466,o),
(126,444,cs),
(104,431,o),
(67,425,o),
(67,396,cs),
(67,370,o),
(95,359,o),
(95,295,cs),
(95,232,o),
(30,116,o),
(30,53,cs),
(30,12,o),
(52,-12,o),
(76,-12,cs)
);
}
);
width = 275;
},
{
anchors = (
{
name = bottom;
pos = (122,0);
},
{
name = ogonek;
pos = (217,0);
},
{
name = top;
pos = (156,500);
}
);
associatedMasterId = m01;
layerId = "D03A1735-9979-4646-9217-F22715DCE709";
name = "8 janv. 25 à 14:03";
shapes = (
{
alignment = -1;
pos = (5,0);
ref = sortie;
},
{
pos = (-5,0);
ref = entree;
}
);
width = 270;
}
);
metricLeft = n;
metricRight = n;
unicode = 305;
},
{
glyphname = iogonek;
lastChange = "2025-05-28 11:40:26 +0000";
layers = (
{
anchors = (
{
name = bottom;
pos = (133,0);
},
{
name = ogonek;
pos = (109,0);
},
{
name = top;
pos = (167,500);
}
);
background = {
shapes = (
{
closed = 1;
nodes = (
(206,572,o),
(277,616,o),
(277,658,cs),
(277,677,o),
(264,695,o),
(235,695,cs),
(196,695,o),
(119,654,o),
(119,611,cs),
(119,585,o),
(148,572,o),
(168,572,cs)
);
},
{
closed = 1;
nodes = (
(126,11,o),
(142,28,o),
(161,45,cs),
(189,69,o),
(226,91,o),
(228,122,cs),
(228,135,o),
(222,144,o),
(210,144,cs),
(196,145,o),
(171,125,o),
(154,125,cs),
(139,126,o),
(135,142,o),
(136,174,cs),
(140,288,o),
(219,411,o),
(221,480,cs),
(221,492,o),
(220,513,o),
(202,514,cs),
(166,515,o),
(163,466,o),
(126,444,cs),
(104,431,o),
(68,425,o),
(67,396,cs),
(66,370,o),
(97,359,o),
(95,295,cs),
(92,232,o),
(32,116,o),
(30,53,cs),
(29,28,o),
(37,11,o),
(49,0,c),
(44,0,l),
(4,-20,o),
(-34,-66,o),
(-34,-123,cs),
(-34,-172,o),
(-1,-215,o),
(63,-215,cs),
(144,-215,o),
(192,-152,o),
(192,-127,cs),
(192,-113,o),
(185,-106,o),
(173,-106,cs),
(151,-106,o),
(121,-141,o),
(80,-141,cs),
(50,-141,o),
(30,-127,o),
(30,-97,cs),
(30,-64,o),
(56,-32,o),
(94,-9,c),
(99,-7,o),
(104,-4,o),
(108,-1,cs),
(110,0,ls)
);
},
{
closed = 0;
nodes = (
(18,-3,ls),
(18,-32,o),
(-41,-60,o),
(-41,-125,cs),
(-41,-179,o),
(0,-222,o),
(63,-222,cs),
(144,-222,o),
(192,-158,o),
(192,-127,cs),
(192,-113,o),
(185,-106,o),
(173,-106,cs),
(150,-106,o),
(121,-141,o),
(80,-141,cs),
(50,-141,o),
(30,-127,o),
(30,-97,cs)
);
}
);
};
layerId = m01;
shapes = (
{
closed = 1;
nodes = (
(206,572,o),
(277,616,o),
(277,658,cs),
(277,677,o),
(264,695,o),
(235,695,cs),
(196,695,o),
(119,654,o),
(119,611,cs),
(119,585,o),
(148,572,o),
(168,572,cs)
);
},
{
closed = 1;
nodes = (
(228,44,o),
(228,122,cs),
(228,135,o),
(222,144,o),
(210,144,cs),
(196,144,o),
(171,125,o),
(154,125,cs),
(139,125,o),
(136,142,o),
(136,174,cs),
(136,279,o),
(221,415,o),
(221,480,cs),
(221,492,o),
(220,514,o),
(202,514,cs),
(166,514,o),
(163,466,o),
(126,444,cs),
(104,431,o),
(67,425,o),
(67,396,cs),
(67,370,o),
(95,359,o),
(95,295,cs),
(95,232,o),
(29,122,o),
(29,60,cs),
(29,36,o),
(39,22,o),
(33,5,cs),
(25,-18,o),
(-41,-43,o),
(-41,-123,cs),
(-41,-177,o),
(-3,-222,o),
(63,-222,cs),
(142,-222,o),
(192,-160,o),
(192,-127,cs),
(192,-113,o),
(185,-106,o),
(173,-106,cs),
(151,-106,o),
(121,-141,o),
(80,-141,cs),
(50,-141,o),
(30,-127,o),
(30,-97,cs),
(30,-23,o)
);
}
);
width = 275;
},
{
associatedMasterId = m01;
layerId = "F90DDDA2-D6B8-4779-A015-9C7E6CE6A524";
name = "9 janv. 25 à 14:04";
shapes = (
{
ref = idotless;
},
{
pos = (43,0);
ref = dotaccentcomb;
},
{
pos = (-155,0);
ref = ogonekcomb;
}
);
width = 275;
}
);
unicode = 303;
},
{
glyphname = j;
lastChange = "2025-05-28 11:40:26 +0000";
layers = (
{
associatedMasterId = m01;
backgroundImage = {
imagePath = "/Downloads/Images/j-3 oct. 24 à 15:42.tif";
locked = 1;
pos = (-316,-362);
scale = (2.97,2.97);
};
layerId = "1BCCCDF4-44D3-412A-B862-0472F3B02373";
name = "3 oct. 24 à 15:42";
shapes = (
{
closed = 1;
nodes = (
(112,-246,o),
(202,332,o),
(202,483,cs),
(202,495,o),
(199,516,o),
(181,516,cs),
(145,516,o),
(150,467,o),
(115,444,cs),
(94,430,o),
(59,423,o),
(59,394,cs),
(59,365,o),
(91,368,o),
(91,284,cs),
(91,177,o),
(13,-174,o),
(-55,-174,cs),
(-99,-174,o),
(-107,-112,o),
(-133,-112,cs),
(-159,-112,o),
(-200,-160,o),
(-200,-183,cs),
(-200,-206,o),
(-155,-246,o),
(-85,-246,cs)
);
},
{
alignment = -1;
pos = (10,0);
ref = dotaccentcomb;
}
);
width = 228;
},
{
associatedMasterId = m01;
backgroundImage = {
imagePath = "/Downloads/Images/j-Regular.tif";
locked = 1;
pos = (-316,-362);
scale = (2.97,2.97);
};
guides = (
{
pos = (-119,-245);
}
);
layerId = "F5D549B3-1D7E-497B-A135-6643DB2C53B0";
name = "3 oct. 24 à 15:58";
shapes = (
{
closed = 0;
nodes = (
(-35,-104,l),
(42,-50,o),
(91,177,o),
(91,284,cs),
(91,368,o),
(59,365,o),
(59,394,cs),
(59,423,o),
(94,430,o),
(115,444,cs),
(150,467,o),
(145,516,o),
(181,516,cs),
(199,516,o),
(202,495,o),
(202,483,cs),
(202,361,o),
(154,136,o),
(111,7,cs),
(58,-153,o),
(-100,-245,o),
(-161,-245,cs),
(-197,-245,o),
(-219,-210,o),
(-219,-175,cs),
(-219,-142,o),
(-202,-127,o),
(-186,-127,cs),
(-168,-127,o),
(-150,-147,o),
(-125,-147,cs)
);
},
{
alignment = -1;
pos = (10,0);
ref = dotaccentcomb;
}
);
width = 228;
},
{
backgroundImage = {
imagePath = "/Downloads/Images/j-Regular.tif";
locked = 1;
pos = (-316,-362);
scale = (2.97,2.97);
};
guides = (
{
pos = (380,-245);
}
);
layerId = m01;
name = Regular;
shapes = (
{
ref = jdotless;
},
{
pos = (24,0);
ref = dotaccentcomb;
}
);
width = 218;
}
);
unicode = 106;
},
{
glyphname = jdotless;
lastChange = "2025-05-28 11:40:26 +0000";
layers = (
{
associatedMasterId = m01;
backgroundImage = {
imagePath = "/Downloads/Images/j-3 oct. 24 à 15:42.tif";
locked = 1;
pos = (-316,-362);
scale = (2.97,2.97);
};
layerId = "1BCCCDF4-44D3-412A-B862-0472F3B02373";
name = "3 oct. 24 à 15:42";
shapes = (
{
closed = 1;
nodes = (
(112,-246,o),
(202,332,o),
(202,483,cs),
(202,495,o),
(199,516,o),
(181,516,cs),
(145,516,o),
(150,467,o),
(115,444,cs),
(94,430,o),
(59,423,o),
(59,394,cs),
(59,365,o),
(91,368,o),
(91,284,cs),
(91,177,o),
(13,-174,o),
(-55,-174,cs),
(-99,-174,o),
(-107,-112,o),
(-133,-112,cs),
(-159,-112,o),
(-200,-160,o),
(-200,-183,cs),
(-200,-206,o),
(-155,-246,o),
(-85,-246,cs)
);
},
{
alignment = -1;
pos = (10,0);
ref = dotaccentcomb;
}
);
width = 228;
},
{
associatedMasterId = m01;
backgroundImage = {
imagePath = "/Downloads/Images/j-Regular.tif";
locked = 1;
pos = (-316,-362);
scale = (2.97,2.97);
};
guides = (
{
pos = (-119,-245);
}
);
layerId = "F5D549B3-1D7E-497B-A135-6643DB2C53B0";
name = "3 oct. 24 à 15:58";
shapes = (
{
closed = 0;
nodes = (
(-35,-104,l),
(42,-50,o),
(91,177,o),
(91,284,cs),
(91,368,o),
(59,365,o),
(59,394,cs),
(59,423,o),
(94,430,o),
(115,444,cs),
(150,467,o),
(145,516,o),
(181,516,cs),
(199,516,o),
(202,495,o),
(202,483,cs),
(202,361,o),
(154,136,o),
(111,7,cs),
(58,-153,o),
(-100,-245,o),
(-161,-245,cs),
(-197,-245,o),
(-219,-210,o),
(-219,-175,cs),
(-219,-142,o),
(-202,-127,o),
(-186,-127,cs),
(-168,-127,o),
(-150,-147,o),
(-125,-147,cs)
);
},
{
alignment = -1;
pos = (10,0);
ref = dotaccentcomb;
}
);
width = 228;
},
{
anchors = (
{
name = bottom;
pos = (84,-230);
},
{
name = top;
pos = (148,500);
}
);
backgroundImage = {
imagePath = "/Downloads/Images/j-Regular.tif";
locked = 1;
pos = (-316,-362);
scale = (2.97,2.97);
};
guides = (
{
pos = (375,-245);
}
);
layerId = m01;
name = Regular;
shapes = (
{
closed = 1;
nodes = (
(-84,-245,o),
(53,-153,o),
(106,7,cs),
(149,136,o),
(197,361,o),
(197,483,cs),
(197,495,o),
(194,516,o),
(176,516,cs),
(140,516,o),
(145,467,o),
(110,444,cs),
(89,430,o),
(54,423,o),
(54,394,cs),
(54,365,o),
(86,368,o),
(86,284,cs),
(86,177,o),
(37,-59,o),
(-40,-113,cs),
(-79,-140,o),
(-129,-123,o),
(-159,-123,cs),
(-185,-123,o),
(-217,-142,o),
(-217,-185,cs),
(-217,-210,o),
(-198,-245,o),
(-157,-245,cs)
);
}
);
width = 218;
}
);
unicode = 567;
},
{
glyphname = k;
lastChange = "2025-05-28 11:40:26 +0000";
layers = (
{
anchors = (
{
name = bottom;
pos = (223,-2);
},
{
name = top;
pos = (261,720);
}
);
background = {
shapes = (
{
closed = 1;
nodes = (
(94,-11,o),
(140,19,o),
(140,53,cs),
(140,81,o),
(120,100,o),
(120,160,cs),
(120,188,o),
(127,224,o),
(138,261,c),
(78,261,l),
(61,191,o),
(20,100,o),
(20,52,cs),
(20,17,o),
(46,-11,o),
(69,-11,cs)
);
},
{
closed = 1;
nodes = (
(138,261,l),
(168,424,o),
(254,597,o),
(254,695,cs),
(254,723,o),
(244,732,o),
(231,732,cs),
(210,732,o),
(189,702,o),
(157,684,cs),
(135,671,o),
(95,665,o),
(95,636,cs),
(95,607,o),
(137,598,o),
(137,514,cs),
(137,475,o),
(107,365,o),
(78,261,c)
);
},
{
closed = 1;
nodes = (
(281,438,o),
(335,455,o),
(335,407,cs),
(335,352,o),
(246,326,o),
(215,326,cs),
(187,326,o),
(171,336,o),
(171,356,cs),
(171,377,o),
(175,405,o),
(191,454,c),
(173,456,l),
(108,239,l),
(129,228,l),
(138,262,o),
(144,268,o),
(153,268,cs),
(193,268,o),
(211,-9,o),
(358,-9,cs),
(399,-9,o),
(435,10,o),
(435,48,cs),
(435,72,o),
(417,91,o),
(395,91,cs),
(374,91,o),
(368,83,o),
(345,83,cs),
(289,83,o),
(239,211,o),
(239,258,cs),
(239,268,o),
(245,278,o),
(264,281,cs),
(320,290,o),
(427,337,o),
(427,439,cs),
(427,475,o),
(404,516,o),
(349,516,cs),
(314,516,o),
(281,500,o),
(281,470,cs)
);
}
);
};
layerId = m01;
shapes = (
{
closed = 1;
nodes = (
(94,-11,o),
(140,19,o),
(140,53,cs),
(140,81,o),
(120,110,o),
(120,169,cs),
(120,201,o),
(131,278,o),
(154,278,cs),
(197,278,o),
(207,-9,o),
(363,-9,cs),
(412,-9,o),
(439,24,o),
(439,56,cs),
(439,75,o),
(429,95,o),
(411,95,cs),
(394,95,o),
(385,88,o),
(369,88,cs),
(306,88,o),
(236,204,o),
(236,260,cs),
(236,277,o),
(246,287,o),
(266,290,cs),
(317,298,o),
(427,339,o),
(427,439,cs),
(427,486,o),
(391,516,o),
(349,516,cs),
(314,516,o),
(281,500,o),
(281,476,cs),
(281,438,o),
(333,450,o),
(333,407,cs),
(333,358,o),
(261,327,o),
(207,327,cs),
(182,327,o),
(171,337,o),
(171,362,cs),
(171,445,o),
(254,593,o),
(254,695,cs),
(254,723,o),
(244,732,o),
(231,732,cs),
(210,732,o),
(189,702,o),
(157,684,cs),
(135,671,o),
(95,665,o),
(95,636,cs),
(95,607,o),
(137,598,o),
(137,514,cs),
(137,407,o),
(20,110,o),
(20,52,cs),
(20,17,o),
(46,-11,o),
(69,-11,cs)
);
}
);
width = 471;
},
{
associatedMasterId = m01;
backgroundImage = {
angle = 0.5;
imagePath = "/Downloads/Images/k-Regular.tif";
locked = 1;
pos = (-22,-137);
scale = (2.97,2.97);
};
layerId = "72A43F92-8BAF-4923-93AA-3DDEAA3B3234";
name = "3 oct. 24 à 14:13";
shapes = (
{
alignment = -1;
pos = (6,0);
ref = hampe;
},
{
pos = (-31,0);
ref = pied;
},
{
closed = 1;
nodes = (
(176,411,o),
(180,405,o),
(191,405,cs),
(217,405,o),
(292,515,o),
(369,515,cs),
(416,515,o),
(428,469,o),
(428,443,cs),
(428,364,o),
(317,327,o),
(272,311,cs),
(255,305,o),
(247,301,o),
(247,291,cs),
(247,254,o),
(426,55,o),
(499,55,cs),
(512,55,o),
(521,63,o),
(521,76,cs),
(521,88,o),
(507,94,o),
(507,105,cs),
(507,115,o),
(523,135,o),
(554,135,cs),
(587,135,o),
(610,107,o),
(610,69,cs),
(610,21,o),
(564,-14,o),
(514,-14,cs),
(334,-14,o),
(194,266,o),
(156,266,cs),
(145,266,o),
(134,260,o),
(128,236,c),
(107,247,l),
(170,456,l),
(188,454,l)
);
},
{
closed = 1;
nodes = (
(238,363,o),
(247,356,o),
(255,356,cs),
(276,356,o),
(333,384,o),
(333,417,cs),
(333,429,o),
(326,436,o),
(313,436,cs),
(287,436,o),
(238,402,o),
(238,375,cs)
);
}
);
width = 639;
},
{
associatedMasterId = m01;
backgroundImage = {
angle = 0.5;
imagePath = "/Downloads/Images/k-Regular.tif";
locked = 1;
pos = (-19,-137);
scale = (2.97,2.97);
};
layerId = "684AA79F-8C24-43F4-B033-8FD6A4995DC7";
name = "3 oct. 24 à 16:52";
shapes = (
{
alignment = -1;
pos = (9,0);
ref = hampe;
},
{
pos = (-28,0);
ref = pied;
},
{
closed = 1;
nodes = (
(179,411,o),
(183,405,o),
(194,405,cs),
(220,405,o),
(295,515,o),
(372,515,cs),
(419,515,o),
(431,469,o),
(431,443,cs),
(431,364,o),
(310,316,o),
(265,300,cs),
(248,294,o),
(240,290,o),
(240,280,cs),
(240,243,o),
(359,58,o),
(402,58,cs),
(415,58,o),
(424,63,o),
(424,76,cs),
(424,88,o),
(410,94,o),
(410,105,cs),
(410,115,o),
(426,135,o),
(457,135,cs),
(490,135,o),
(513,107,o),
(513,69,cs),
(513,21,o),
(467,-16,o),
(407,-16,cs),
(257,-16,o),
(195,258,o),
(157,258,cs),
(146,258,o),
(135,252,o),
(129,228,c),
(108,239,l),
(173,456,l),
(191,454,l)
);
},
{
closed = 1;
nodes = (
(241,356,o),
(250,349,o),
(258,349,cs),
(279,349,o),
(336,377,o),
(336,410,cs),
(336,422,o),
(329,429,o),
(316,429,cs),
(290,429,o),
(241,395,o),
(241,368,cs)
);
}
);
width = 558;
},
{
associatedMasterId = m01;
backgroundImage = {
angle = 1;
imagePath = "/Downloads/Images/k-Regular.tif";
locked = 1;
pos = (-77,-283);
scale = (2.97,2.97);
};
layerId = "C7A0D4DD-F23C-4854-93D3-8FF6D50F4094";
name = "23 oct. 24 à 13:51";
shapes = (
{
closed = 1;
nodes = (
(592,-234,o),
(622,-202,o),
(622,-154,cs),
(622,-134,o),
(612,-117,o),
(592,-117,cs),
(579,-117,o),
(563,-130,o),
(530,-130,cs),
(397,-130,o),
(246,221,o),
(246,258,cs),
(246,268,o),
(252,274,o),
(271,278,cs),
(327,290,o),
(446,337,o),
(446,439,cs),
(446,465,o),
(424,511,o),
(377,511,cs),
(300,511,o),
(225,393,o),
(199,393,cs),
(188,393,o),
(184,411,o),
(196,454,c),
(178,456,l),
(113,239,l),
(134,228,l),
(140,252,o),
(150,254,o),
(158,254,cs),
(208,254,o),
(312,-234,o),
(532,-234,cs)
);
},
{
pos = (-28,0);
ref = pied;
},
{
alignment = -1;
pos = (9,0);
ref = hampe;
},
{
closed = 1;
nodes = (
(255,337,o),
(246,344,o),
(246,356,cs),
(246,383,o),
(295,429,o),
(321,429,cs),
(334,429,o),
(341,422,o),
(341,410,cs),
(341,365,o),
(284,337,o),
(263,337,cs)
);
}
);
width = 453;
},
{
associatedMasterId = m01;
backgroundImage = {
angle = 1;
imagePath = "/Downloads/Images/k-Regular.tif";
locked = 1;
pos = (-77,-283);
scale = (2.97,2.97);
};
layerId = "4E15E9A9-E73C-46A6-9007-C26A5A3CC14B";
name = "19 nov. 24 à 16:45";
shapes = (
{
closed = 1;
nodes = (
(404,-9,o),
(440,10,o),
(440,48,cs),
(440,72,o),
(422,91,o),
(400,91,cs),
(379,91,o),
(373,83,o),
(350,83,cs),
(291,83,o),
(244,211,o),
(244,258,cs),
(244,268,o),
(250,278,o),
(269,281,cs),
(325,290,o),
(446,337,o),
(446,439,cs),
(446,465,o),
(424,511,o),
(377,511,cs),
(291,511,o),
(217,385,o),
(191,385,cs),
(180,385,o),
(180,405,o),
(196,454,c),
(178,456,l),
(113,239,l),
(134,228,l),
(143,262,o),
(149,268,o),
(158,268,cs),
(198,268,o),
(213,-9,o),
(363,-9,cs)
);
},
{
pos = (-28,0);
ref = pied;
},
{
alignment = -1;
pos = (9,0);
ref = hampe;
},
{
closed = 1;
nodes = (
(242,330,o),
(233,337,o),
(233,349,cs),
(233,376,o),
(294,426,o),
(320,426,cs),
(333,426,o),
(340,419,o),
(340,407,cs),
(340,362,o),
(271,330,o),
(250,330,cs)
);
}
);
width = 481;
},
{
associatedMasterId = m01;
backgroundImage = {
angle = 1;
imagePath = "/Downloads/Images/k-Regular.tif";
locked = 1;
pos = (-77,-283);
scale = (2.97,2.97);
};
layerId = "154257EC-6ACF-468C-A39E-41EB6E57D1F3";
name = "19 nov. 24 à 16:45";
shapes = (
{
closed = 1;
nodes = (
(404,-9,o),
(440,10,o),
(440,48,cs),
(440,72,o),
(422,91,o),
(400,91,cs),
(379,91,o),
(373,83,o),
(350,83,cs),
(291,83,o),
(244,211,o),
(244,258,cs),
(244,268,o),
(250,278,o),
(269,281,cs),
(325,290,o),
(446,337,o),
(446,439,cs),
(446,465,o),
(424,511,o),
(377,511,cs),
(291,511,o),
(217,385,o),
(191,385,cs),
(180,385,o),
(180,405,o),
(196,454,c),
(178,456,l),
(113,239,l),
(134,228,l),
(143,262,o),
(149,268,o),
(158,268,cs),
(198,268,o),
(213,-9,o),
(363,-9,cs)
);
},
{
pos = (-28,0);
ref = pied;
},
{
alignment = -1;
pos = (9,0);
ref = hampe;
},
{
closed = 1;
nodes = (
(242,330,o),
(233,337,o),
(233,349,cs),
(233,376,o),
(294,426,o),
(320,426,cs),
(333,426,o),
(340,419,o),
(340,407,cs),
(340,362,o),
(271,330,o),
(250,330,cs)
);
}
);
width = 481;
},
{
associatedMasterId = m01;
layerId = "F4F2656A-7EF9-4D2F-8386-E6C0C00C9FD3";
name = "8 janv. 25 à 16:41";
shapes = (
{
pos = (-33,0);
ref = pied;
},
{
alignment = -1;
pos = (4,0);
ref = hampe;
},
{
closed = 1;
nodes = (
(281,438,o),
(335,455,o),
(335,407,cs),
(335,352,o),
(246,326,o),
(215,326,cs),
(187,326,o),
(171,336,o),
(171,356,cs),
(171,377,o),
(175,405,o),
(191,454,c),
(173,456,l),
(108,239,l),
(129,228,l),
(138,262,o),
(144,268,o),
(153,268,cs),
(193,268,o),
(211,-9,o),
(358,-9,cs),
(399,-9,o),
(435,10,o),
(435,48,cs),
(435,72,o),
(417,91,o),
(395,91,cs),
(374,91,o),
(368,83,o),
(345,83,cs),
(289,83,o),
(239,211,o),
(239,258,cs),
(239,268,o),
(245,278,o),
(264,281,cs),
(320,290,o),
(427,337,o),
(427,439,cs),
(427,475,o),
(404,516,o),
(349,516,cs),
(314,516,o),
(281,500,o),
(281,470,cs)
);
}
);
width = 471;
}
);
metricLeft = l;
unicode = 107;
},
{
glyphname = l;
lastChange = "2025-05-28 11:40:26 +0000";
layers = (
{
anchors = (
{
name = bottom;
pos = (78,-10);
},
{
name = center;
pos = (131,250);
},
{
name = top;
pos = (203,720);
},
{
name = topright;
pos = (272,720);
}
);
background = {
anchors = (
{
name = bottom;
pos = (118,0);
},
{
name = center;
pos = (131,250);
},
{
name = top;
pos = (203,720);
},
{
name = topright;
pos = (272,720);
}
);
shapes = (
{
alignment = -1;
pos = (-5,0);
ref = hampe;
},
{
pos = (-5,0);
ref = sortie;
}
);
};
layerId = m01;
shapes = (
{
closed = 1;
nodes = (
(20,117,o),
(20,50,cs),
(20,8,o),
(48,-14,o),
(69,-14,cs),
(97,-14,o),
(119,16,o),
(151,46,cs),
(177,71,o),
(213,94,o),
(213,124,cs),
(213,137,o),
(209,147,o),
(195,147,cs),
(181,147,o),
(156,126,o),
(139,126,cs),
(124,126,o),
(119,142,o),
(119,166,cs),
(119,334,o),
(245,582,o),
(245,695,cs),
(245,723,o),
(235,732,o),
(222,732,cs),
(201,732,o),
(180,702,o),
(148,684,cs),
(126,671,o),
(86,665,o),
(86,636,cs),
(86,607,o),
(128,598,o),
(128,514,cs),
(128,438,o)
);
}
);
width = 262;
},
{
anchors = (
{
name = bottom;
pos = (118,0);
},
{
name = center;
pos = (131,250);
},
{
name = top;
pos = (203,720);
},
{
name = topright;
pos = (272,720);
}
);
associatedMasterId = m01;
layerId = "20B75A0D-FE6F-4970-B9A5-5E2C298DDEF3";
name = "8 janv. 25 à 16:28";
shapes = (
{
alignment = -1;
pos = (-5,0);
ref = hampe;
},
{
pos = (-5,0);
ref = sortie;
}
);
width = 262;
}
);
unicode = 108;
},
{
glyphname = lslash;
lastChange = "2025-05-28 11:40:26 +0000";
layers = (
{
anchors = (
{
name = bottom;
pos = (100,-10);
},
{
name = center;
pos = (153,250);
},
{
name = top;
pos = (225,720);
},
{
name = topright;
pos = (294,720);
}
);
layerId = m01;
shapes = (
{
closed = 1;
nodes = (
(150,493,o),
(142,453,o),
(130,404,cs),
(124,380,o),
(116,369,o),
(104,366,cs),
(83,362,o),
(62,358,o),
(46,353,cs),
(17,345,o),
(-4,322,o),
(6,297,cs),
(13,279,o),
(34,277,o),
(58,284,cs),
(65,286,o),
(72,289,o),
(80,292,cs),
(92,297,o),
(98,288,o),
(93,270,cs),
(67,175,o),
(42,82,o),
(42,50,cs),
(42,8,o),
(70,-14,o),
(91,-14,cs),
(119,-14,o),
(141,16,o),
(173,46,cs),
(199,71,o),
(235,94,o),
(235,124,cs),
(235,137,o),
(231,147,o),
(217,147,cs),
(203,147,o),
(178,126,o),
(161,126,cs),
(146,126,o),
(141,142,o),
(141,166,cs),
(141,213,o),
(152,266,o),
(163,310,cs),
(167,326,o),
(172,331,o),
(184,334,cs),
(201,339,o),
(240,342,o),
(272,353,cs),
(298,362,o),
(318,385,o),
(311,404,cs),
(306,422,o),
(287,429,o),
(265,422,cs),
(251,418,o),
(234,410,o),
(216,402,cs),
(199,395,o),
(189,404,o),
(194,422,cs),
(229,530,o),
(267,633,o),
(267,695,cs),
(267,723,o),
(257,732,o),
(244,732,cs),
(223,732,o),
(202,702,o),
(170,684,cs),
(148,671,o),
(108,665,o),
(108,636,cs),
(108,607,o),
(150,598,o),
(150,514,cs)
);
}
);
width = 295;
},
{
anchors = (
{
name = bottom;
pos = (100,-10);
},
{
name = center;
pos = (153,250);
},
{
name = top;
pos = (225,720);
},
{
name = topright;
pos = (294,720);
}
);
associatedMasterId = m01;
layerId = "B66FB7FD-B16C-4409-9052-C30ABE67F228";
name = "12 mars 25 à 11:25";
shapes = (
{
closed = 1;
nodes = (
(42,117,o),
(42,50,cs),
(42,8,o),
(70,-14,o),
(91,-14,cs),
(119,-14,o),
(141,16,o),
(173,46,cs),
(199,71,o),
(235,94,o),
(235,124,cs),
(235,137,o),
(231,147,o),
(217,147,cs),
(203,147,o),
(178,126,o),
(161,126,cs),
(146,126,o),
(141,142,o),
(141,166,cs),
(141,334,o),
(267,582,o),
(267,695,cs),
(267,723,o),
(257,732,o),
(244,732,cs),
(223,732,o),
(202,702,o),
(170,684,cs),
(148,671,o),
(108,665,o),
(108,636,cs),
(108,607,o),
(150,598,o),
(150,514,cs),
(150,438,o)
);
},
{
closed = 1;
nodes = (
(-4,322,o),
(6,297,cs),
(13,279,o),
(34,277,o),
(58,284,cs),
(81,290,o),
(126,316,o),
(172,330,cs),
(208,341,o),
(248,346,o),
(272,353,cs),
(298,362,o),
(318,385,o),
(311,404,cs),
(306,422,o),
(287,429,o),
(265,422,cs),
(237,414,o),
(202,393,o),
(159,380,cs),
(123,368,o),
(76,362,o),
(46,353,cs),
(17,345,o)
);
}
);
width = 295;
}
);
unicode = 322;
},
{
glyphname = m;
lastChange = "2025-05-28 11:40:26 +0000";
layers = (
{
background = {
shapes = (
{
alignment = -1;
pos = (4,0);
ref = fut;
},
{
pos = (-2,0);
ref = jambage;
},
{
pos = (471,0);
ref = sortie;
},
{
pos = (228,0);
ref = jambage;
},
{
pos = (204,0);
ref = pied;
}
);
};
layerId = m01;
shapes = (
{
closed = 1;
nodes = (
(30,111,o),
(30,52,cs),
(30,17,o),
(56,-11,o),
(79,-11,cs),
(104,-11,o),
(150,19,o),
(150,53,cs),
(150,81,o),
(130,100,o),
(130,160,cs),
(130,238,o),
(166,395,o),
(285,395,cs),
(314,395,o),
(323,376,o),
(323,339,cs),
(323,224,o),
(257,122,o),
(257,52,cs),
(257,17,o),
(283,-11,o),
(306,-11,cs),
(331,-11,o),
(377,19,o),
(377,53,cs),
(377,81,o),
(357,100,o),
(357,160,cs),
(357,240,o),
(399,394,o),
(512,394,cs),
(543,394,o),
(553,377,o),
(553,350,cs),
(553,223,o),
(496,126,o),
(496,50,cs),
(496,8,o),
(524,-14,o),
(545,-14,cs),
(573,-14,o),
(595,16,o),
(627,46,cs),
(653,71,o),
(689,94,o),
(689,124,cs),
(689,137,o),
(685,147,o),
(671,147,cs),
(657,147,o),
(632,126,o),
(615,126,cs),
(600,126,o),
(591,142,o),
(591,166,cs),
(591,296,o),
(673,383,o),
(673,459,cs),
(673,490,o),
(660,514,o),
(632,514,cs),
(557,514,o),
(483,425,o),
(445,425,cs),
(435,425,o),
(429,430,o),
(429,439,cs),
(429,453,o),
(438,467,o),
(438,485,cs),
(438,502,o),
(427,514,o),
(406,514,cs),
(332,514,o),
(236,425,o),
(210,425,cs),
(201,425,o),
(197,430,o),
(197,439,cs),
(197,451,o),
(207,467,o),
(207,488,cs),
(207,503,o),
(201,516,o),
(186,516,cs),
(150,516,o),
(149,467,o),
(114,444,cs),
(93,430,o),
(58,423,o),
(58,394,cs),
(58,365,o),
(90,368,o),
(90,284,cs),
(90,230,o)
);
}
);
width = 736;
},
{
associatedMasterId = m01;
layerId = "FB9307E8-ACD3-45BB-8765-FC4E00CA6C38";
name = "8 janv. 25 à 16:30";
shapes = (
{
alignment = -1;
pos = (4,0);
ref = fut;
},
{
pos = (-2,0);
ref = jambage;
},
{
pos = (471,0);
ref = sortie;
},
{
pos = (228,0);
ref = jambage;
},
{
pos = (204,0);
ref = pied;
}
);
width = 736;
}
);
metricLeft = n;
metricRight = n;
unicode = 109;
},
{
glyphname = n;
lastChange = "2025-05-28 11:40:26 +0000";
layers = (
{
anchors = (
{
name = bottom;
pos = (191,0);
},
{
name = top;
pos = (267,500);
}
);
background = {
shapes = (
{
closed = 1;
nodes = (
(71,189,o),
(31,99,o),
(31,52,cs),
(31,17,o),
(57,-11,o),
(80,-11,cs),
(105,-11,o),
(151,19,o),
(151,53,cs),
(151,81,o),
(131,100,o),
(131,160,cs),
(131,188,o),
(138,224,o),
(149,261,cs),
(159,298,l),
(181,355,o),
(225,395,o),
(286,395,cs),
(318,395,o),
(324,373,o),
(324,351,cs),
(324,320,o),
(321,291,o),
(316,261,c),
(291,169,o),
(267,81,o),
(267,50,cs),
(267,8,o),
(295,-14,o),
(316,-14,cs),
(344,-14,o),
(366,16,o),
(398,46,cs),
(424,71,o),
(460,94,o),
(460,124,cs),
(460,137,o),
(456,147,o),
(442,147,cs),
(428,147,o),
(403,126,o),
(386,126,cs),
(371,126,o),
(366,142,o),
(366,166,cs),
(366,197,o),
(370,228,o),
(376,260,c),
(394,326,o),
(442,400,o),
(442,458,cs),
(442,498,o),
(423,513,o),
(399,513,cs),
(331,513,o),
(238,423,o),
(211,423,cs),
(201,423,o),
(197,429,o),
(197,437,cs),
(197,451,o),
(209,471,o),
(209,492,cs),
(209,505,o),
(202,516,o),
(187,516,cs),
(151,516,o),
(150,467,o),
(115,444,cs),
(94,430,o),
(59,423,o),
(59,394,cs),
(59,365,o),
(91,368,o),
(91,284,cs),
(91,277,o),
(91,270,o),
(88,258,cs)
);
}
);
};
layerId = m01;
shapes = (
{
closed = 1;
nodes = (
(30,109,o),
(30,50,cs),
(30,15,o),
(57,-13,o),
(80,-13,cs),
(105,-13,o),
(152,19,o),
(152,53,cs),
(152,82,o),
(132,109,o),
(132,160,cs),
(132,214,o),
(158,392,o),
(279,392,cs),
(309,392,o),
(323,374,o),
(323,338,cs),
(323,242,o),
(263,128,o),
(263,52,cs),
(263,10,o),
(291,-12,o),
(312,-12,cs),
(340,-12,o),
(358,18,o),
(390,48,cs),
(416,73,o),
(453,93,o),
(453,125,cs),
(453,138,o),
(446,146,o),
(435,146,cs),
(418,146,o),
(400,125,o),
(381,125,cs),
(366,125,o),
(358,140,o),
(358,165,cs),
(358,284,o),
(440,376,o),
(440,462,cs),
(440,497,o),
(424,513,o),
(397,513,cs),
(329,513,o),
(238,419,o),
(209,419,cs),
(199,419,o),
(194,425,o),
(194,434,cs),
(194,449,o),
(209,471,o),
(209,492,cs),
(209,506,o),
(202,516,o),
(187,516,cs),
(151,516,o),
(150,467,o),
(115,444,cs),
(94,430,o),
(59,423,o),
(59,394,cs),
(59,368,o),
(91,352,o),
(91,297,cs),
(91,224,o)
);
}
);
width = 500;
},
{
anchors = (
{
name = bottom;
pos = (240,0);
},
{
name = top;
pos = (266,500);
}
);
associatedMasterId = m01;
layerId = "EF1E8811-DDCD-4718-8C10-5F1C85DADAEB";
name = "8 janv. 25 à 15:37";
shapes = (
{
alignment = -1;
pos = (4,0);
ref = fut;
},
{
pos = (241,0);
ref = sortie;
},
{
pos = (-2,0);
ref = jambage;
}
);
width = 506;
}
);
unicode = 110;
},
{
glyphname = o;
lastChange = "2025-05-28 11:40:26 +0000";
layers = (
{
anchors = (
{
name = bottom;
pos = (196,0);
},
{
name = center;
pos = (209,250);
},
{
name = ogonek;
pos = (370,10);
},
{
name = top;
pos = (268,500);
},
{
name = topright;
pos = (420,500);
}
);
layerId = m01;
shapes = (
{
closed = 1;
nodes = (
(307,-9,o),
(398,287,o),
(398,377,cs),
(398,457,o),
(354,509,o),
(277,509,cs),
(161,509,o),
(18,290,o),
(18,113,cs),
(18,46,o),
(77,-9,o),
(138,-9,cs)
);
},
{
closed = 1;
nodes = (
(148,76,o),
(120,111,o),
(120,177,cs),
(120,243,o),
(168,430,o),
(240,430,cs),
(277,430,o),
(292,366,o),
(292,304,cs),
(292,232,o),
(250,76,o),
(181,76,cs)
);
}
);
width = 417;
},
{
associatedMasterId = m01;
backgroundImage = {
imagePath = "/Downloads/Images/o-Regular.tif";
locked = 1;
pos = (-41,-75);
scale = (2.9186,2.9186);
};
layerId = "8352F601-C0FC-4263-917E-0745103BF73A";
name = "3 oct. 24 à 11:31";
shapes = (
{
ref = d;
}
);
width = 495;
}
);
unicode = 111;
},
{
glyphname = oslash;
lastChange = "2025-05-28 11:40:26 +0000";
layers = (
{
anchors = (
{
name = bottom;
pos = (205,0);
},
{
name = center;
pos = (218,250);
},
{
name = ogonek;
pos = (379,10);
},
{
name = top;
pos = (277,500);
},
{
name = topright;
pos = (429,500);
}
);
background = {
shapes = (
{
closed = 1;
nodes = (
(318,-5,o),
(407,288,o),
(407,378,cs),
(407,417,o),
(396,450,o),
(377,472,cs),
(373,477,o),
(372,480,o),
(373,482,cs),
(373,482,ls),
(395,514,o),
(422,532,o),
(422,548,cs),
(422,554,o),
(419,558,o),
(412,558,cs),
(394,558,o),
(372,536,o),
(349,505,cs),
(345,500,o),
(340,499,o),
(335,502,cs),
(321,507,o),
(304,510,o),
(286,510,cs),
(170,510,o),
(29,294,o),
(29,117,cs),
(29,88,o),
(41,60,o),
(59,38,cs),
(63,33,o),
(63,29,o),
(58,24,cs),
(53,20,ls),
(19,-8,o),
(1,-8,o),
(1,-27,cs),
(1,-37,o),
(8,-42,o),
(23,-42,cs),
(40,-42,o),
(62,-24,o),
(87,4,cs),
(91,9,o),
(96,9,o),
(101,7,cs),
(116,-1,o),
(132,-5,o),
(149,-5,cs)
);
},
{
closed = 1;
nodes = (
(182,80,o),
(172,84,o),
(163,90,cs),
(158,94,o),
(158,99,o),
(161,105,cs),
(185,144,o),
(209,186,o),
(230,224,cs),
(288,333,ls),
(292,341,o),
(300,340,o),
(300,331,cs),
(301,322,o),
(301,313,o),
(301,305,cs),
(301,233,o),
(261,80,o),
(192,80,cs)
);
},
{
closed = 1;
nodes = (
(134,247,o),
(177,431,o),
(249,431,cs),
(262,431,o),
(272,424,o),
(279,411,cs),
(282,406,o),
(282,402,o),
(279,397,cs),
(245,335,o),
(215,275,o),
(204,255,cs),
(147,147,ls),
(143,139,o),
(136,140,o),
(133,149,cs),
(130,159,o),
(130,170,o),
(131,189,cs)
);
}
);
};
layerId = m01;
shapes = (
{
closed = 1;
nodes = (
(313,-5,o),
(417,261,o),
(417,364,cs),
(417,416,o),
(398,443,o),
(382,466,cs),
(374,478,o),
(379,489,o),
(388,500,cs),
(397,511,o),
(421,529,o),
(421,546,cs),
(421,555,o),
(415,561,o),
(405,561,cs),
(376,561,o),
(363,506,o),
(335,506,cs),
(323,506,o),
(308,510,o),
(286,510,cs),
(170,510,o),
(19,294,o),
(19,130,cs),
(19,64,o),
(59,49,o),
(59,32,cs),
(59,16,o),
(18,-5,o),
(18,-32,cs),
(18,-43,o),
(25,-50,o),
(35,-50,cs),
(66,-50,o),
(75,7,o),
(95,7,cs),
(114,7,o),
(122,-5,o),
(162,-5,cs)
);
},
{
closed = 1;
nodes = (
(176,80,o),
(163,88,o),
(163,101,cs),
(163,106,o),
(167,114,o),
(175,128,cs),
(214,199,o),
(232,230,o),
(279,316,cs),
(290,335,o),
(298,346,o),
(304,346,cs),
(311,346,o),
(315,333,o),
(315,311,cs),
(315,209,o),
(272,80,o),
(192,80,cs)
);
},
{
closed = 1;
nodes = (
(119,247,o),
(177,431,o),
(249,431,cs),
(268,431,o),
(280,420,o),
(280,407,cs),
(280,399,o),
(277,392,o),
(268,376,cs),
(241,326,o),
(197,241,o),
(155,160,cs),
(149,149,o),
(145,140,o),
(139,140,cs),
(132,140,o),
(119,158,o),
(119,193,cs)
);
}
);
width = 436;
},
{
associatedMasterId = m01;
layerId = "ED0D4529-7A8D-4D15-A7E6-71D8583291CF";
name = "5 déc. 24 à 17:04";
shapes = (
{
ref = o;
},
{
closed = 1;
nodes = (
(229,302,o),
(204,255,cs),
(142,142,o),
(112,69,o),
(53,20,cs),
(19,-8,o),
(1,-8,o),
(1,-27,cs),
(1,-37,o),
(8,-42,o),
(23,-42,cs),
(71,-42,o),
(167,105,o),
(230,224,cs),
(270,300,o),
(330,419,o),
(373,482,cs),
(395,514,o),
(422,532,o),
(422,548,cs),
(422,554,o),
(419,558,o),
(412,558,cs),
(352,558,o)
);
}
);
width = 436;
}
);
metricLeft = o;
metricRight = o;
unicode = 248;
},
{
glyphname = oe;
lastChange = "2025-05-28 11:40:26 +0000";
layers = (
{
anchors = (
{
name = bottom;
pos = (201,0);
},
{
name = center;
pos = (214,250);
},
{
name = ogonek;
pos = (375,10);
},
{
name = top;
pos = (276,500);
},
{
name = topright;
pos = (425,500);
}
);
background = {
shapes = (
{
pos = (1,0);
ref = o;
},
{
pos = (245,0);
ref = e;
}
);
};
layerId = m01;
shapes = (
{
closed = 1;
nodes = (
(225,-8,o),
(257,66,o),
(277,66,cs),
(297,66,o),
(309,-8,o),
(379,-8,cs),
(448,-8,o),
(584,89,o),
(584,162,cs),
(584,205,o),
(565,234,o),
(531,234,cs),
(506,234,o),
(467,203,o),
(467,175,cs),
(467,151,o),
(481,144,o),
(481,130,cs),
(481,107,o),
(454,68,o),
(425,68,cs),
(386,68,o),
(347,105,o),
(347,171,cs),
(347,265,o),
(438,280,o),
(503,301,cs),
(589,329,o),
(659,378,o),
(659,431,cs),
(659,480,o),
(622,512,o),
(580,512,cs),
(483,512,o),
(421,385,o),
(392,385,cs),
(367,385,o),
(391,510,o),
(286,510,cs),
(157,510,o),
(19,294,o),
(19,117,cs),
(19,50,o),
(78,-8,o),
(139,-8,cs)
);
},
{
closed = 1;
nodes = (
(149,80,o),
(121,115,o),
(121,181,cs),
(121,247,o),
(167,431,o),
(245,431,cs),
(283,431,o),
(304,371,o),
(304,310,cs),
(304,233,o),
(251,80,o),
(182,80,cs)
);
},
{
closed = 1;
nodes = (
(472,348,o),
(467,352,o),
(467,362,cs),
(467,383,o),
(504,438,o),
(551,438,cs),
(563,438,o),
(570,431,o),
(570,419,cs),
(570,387,o),
(506,348,o),
(483,348,cs)
);
}
);
width = 655;
}
);
metricLeft = o;
metricRight = e;
unicode = 339;
},
{
glyphname = p;
lastChange = "2025-05-28 11:40:26 +0000";
layers = (
{
background = {
shapes = (
{
closed = 1;
nodes = (
(160,-240,o),
(162,-222,o),
(162,-209,cs),
(162,-186,o),
(79,-169,o),
(79,-139,cs),
(79,-88,o),
(93,-35,o),
(101,1,cs),
(158,262,l),
(98,262,l),
(45,55,o),
(-4,-100,o),
(-17,-134,cs),
(-30,-167,o),
(-78,-163,o),
(-78,-196,cs),
(-78,-222,o),
(-4,-240,o),
(78,-240,cs)
);
},
{
closed = 1;
nodes = (
(157,261,l),
(179,345,o),
(216,442,o),
(216,483,cs),
(216,495,o),
(213,516,o),
(195,516,cs),
(159,516,o),
(158,467,o),
(123,444,cs),
(102,430,o),
(67,423,o),
(67,394,cs),
(67,365,o),
(99,368,o),
(99,284,cs),
(99,277,o),
(99,270,o),
(96,258,c)
);
},
{
closed = 1;
nodes = (
(294,516,o),
(253,410,o),
(227,410,cs),
(211,410,o),
(210,430,o),
(211,451,c),
(111,212,l),
(90,-4,l),
(100,-3,l),
(103,9,o),
(106,17,o),
(114,17,cs),
(130,17,o),
(145,-15,o),
(179,-15,cs),
(269,-15,o),
(451,174,o),
(451,399,cs),
(451,474,o),
(400,516,o),
(366,516,cs)
);
},
{
closed = 1;
nodes = (
(343,398,o),
(364,379,o),
(364,315,cs),
(364,251,o),
(317,89,o),
(222,89,cs),
(190,89,o),
(166,122,o),
(166,175,cs),
(166,248,o),
(245,398,o),
(319,398,cs)
);
}
);
};
layerId = m01;
shapes = (
{
closed = 1;
nodes = (
(135,-238,o),
(162,-231,o),
(162,-213,cs),
(162,-186,o),
(89,-172,o),
(81,-143,cs),
(72,-112,o),
(99,36,o),
(120,36,cs),
(135,36,o),
(138,-15,o),
(182,-15,cs),
(282,-15,o),
(450,174,o),
(450,399,cs),
(450,474,o),
(412,514,o),
(366,514,cs),
(294,514,o),
(256,406,o),
(225,406,cs),
(197,406,o),
(217,461,o),
(217,490,cs),
(217,506,o),
(209,516,o),
(195,516,cs),
(159,516,o),
(158,467,o),
(123,444,cs),
(102,430,o),
(67,423,o),
(67,394,cs),
(67,365,o),
(101,361,o),
(101,291,cs),
(101,236,o),
(2,-102,o),
(-18,-134,cs),
(-38,-166,o),
(-75,-170,o),
(-75,-197,cs),
(-75,-229,o),
(-4,-238,o),
(78,-238,cs)
);
},
{
closed = 1;
nodes = (
(348,398,o),
(364,374,o),
(364,323,cs),
(364,236,o),
(314,89,o),
(220,89,cs),
(189,89,o),
(166,127,o),
(166,171,cs),
(166,252,o),
(245,398,o),
(319,398,cs)
);
}
);
width = 468;
},
{
associatedMasterId = m01;
backgroundImage = {
imagePath = "/Downloads/Images/p-Regular.tif";
locked = 1;
pos = (-147,-399);
scale = (2.9648,2.9648);
};
layerId = "E0DE54E1-9E50-4323-9CF6-1BEB7D91A58B";
name = "8 janv. 25 à 14:09";
shapes = (
{
closed = 1;
nodes = (
(160,-240,o),
(162,-222,o),
(162,-209,cs),
(162,-186,o),
(79,-169,o),
(79,-139,cs),
(79,-88,o),
(93,-35,o),
(101,1,cs),
(158,262,l),
(98,262,l),
(45,55,o),
(-4,-100,o),
(-17,-134,cs),
(-30,-167,o),
(-78,-163,o),
(-78,-196,cs),
(-78,-222,o),
(-4,-240,o),
(78,-240,cs)
);
},
{
alignment = -1;
pos = (13,0);
ref = entree;
},
{
angle = 180;
pos = (479,501);
ref = panse;
}
);
width = 474;
}
);
metricRight = o;
unicode = 112;
},
{
glyphname = thorn;
lastChange = "2025-05-28 11:40:26 +0000";
layers = (
{
background = {
shapes = (
{
closed = 1;
nodes = (
(135,-238,o),
(162,-231,o),
(162,-213,cs),
(162,-186,o),
(89,-172,o),
(81,-143,cs),
(72,-112,o),
(99,36,o),
(120,36,cs),
(135,36,o),
(138,-15,o),
(182,-15,cs),
(282,-15,o),
(450,174,o),
(450,399,cs),
(450,474,o),
(412,514,o),
(366,514,cs),
(294,514,o),
(256,406,o),
(225,406,cs),
(197,406,o),
(217,461,o),
(217,490,cs),
(217,506,o),
(209,516,o),
(195,516,cs),
(159,516,o),
(158,467,o),
(123,444,cs),
(102,430,o),
(67,423,o),
(67,394,cs),
(67,365,o),
(101,361,o),
(101,291,cs),
(101,236,o),
(2,-102,o),
(-18,-134,cs),
(-38,-166,o),
(-75,-170,o),
(-75,-197,cs),
(-75,-229,o),
(-4,-238,o),
(78,-238,cs)
);
},
{
closed = 1;
nodes = (
(348,398,o),
(364,374,o),
(364,323,cs),
(364,236,o),
(314,89,o),
(220,89,cs),
(189,89,o),
(166,127,o),
(166,171,cs),
(166,252,o),
(245,398,o),
(319,398,cs)
);
}
);
};
layerId = m01;
shapes = (
{
closed = 1;
nodes = (
(145,-238,o),
(162,-227,o),
(162,-211,cs),
(162,-186,o),
(80,-173,o),
(80,-133,cs),
(80,-86,o),
(96,-36,o),
(102,-11,cs),
(106,6,o),
(112,17,o),
(122,17,cs),
(141,17,o),
(152,-15,o),
(185,-15,cs),
(272,-15,o),
(450,174,o),
(450,399,cs),
(450,482,o),
(405,514,o),
(369,514,cs),
(297,514,o),
(263,410,o),
(227,410,cs),
(210,410,o),
(205,425,o),
(217,465,cs),
(241,548,o),
(277,635,o),
(277,695,cs),
(277,723,o),
(267,732,o),
(254,732,cs),
(233,732,o),
(212,702,o),
(180,684,cs),
(158,671,o),
(118,665,o),
(118,636,cs),
(118,607,o),
(160,598,o),
(160,514,cs),
(160,475,o),
(130,365,o),
(101,261,cs),
(48,54,o),
(4,-90,o),
(-16,-131,cs),
(-31,-162,o),
(-75,-170,o),
(-75,-196,cs),
(-75,-229,o),
(-1,-238,o),
(81,-238,cs)
);
},
{
closed = 1;
nodes = (
(343,398,o),
(364,379,o),
(364,315,cs),
(364,251,o),
(317,89,o),
(222,89,cs),
(190,89,o),
(166,122,o),
(166,175,cs),
(166,248,o),
(245,398,o),
(319,398,cs)
);
}
);
width = 468;
}
);
metricLeft = p;
metricRight = o;
unicode = 254;
},
{
glyphname = q;
lastChange = "2025-05-28 11:40:26 +0000";
layers = (
{
background = {
shapes = (
{
closed = 1;
nodes = (
(264,-246,o),
(277,-210,o),
(277,-162,cs),
(277,-114,o),
(438,465,o),
(438,493,cs),
(438,511,o),
(428,515,o),
(404,515,cs),
(397,515,o),
(371,515,o),
(367,499,cs),
(347,419,o),
(269,152,o),
(242,27,cs),
(207,-137,o),
(118,-180,o),
(118,-209,cs),
(118,-238,o),
(147,-246,o),
(174,-246,cs)
);
},
{
closed = 1;
nodes = (
(175,-15,o),
(216,91,o),
(242,91,cs),
(258,91,o),
(259,71,o),
(258,50,c),
(358,289,l),
(379,505,l),
(369,504,l),
(366,492,o),
(363,484,o),
(355,484,cs),
(339,484,o),
(324,516,o),
(290,516,cs),
(200,516,o),
(18,327,o),
(18,102,cs),
(18,27,o),
(69,-15,o),
(103,-15,cs)
);
},
{
closed = 1;
nodes = (
(126,103,o),
(105,122,o),
(105,186,cs),
(105,250,o),
(152,412,o),
(247,412,cs),
(279,412,o),
(303,379,o),
(303,326,cs),
(303,253,o),
(224,103,o),
(150,103,cs)
);
}
);
};
layerId = m01;
shapes = (
{
closed = 1;
nodes = (
(245,-245,o),
(266,-222,o),
(273,-198,cs),
(280,-176,o),
(274,-158,o),
(281,-120,cs),
(289,-80,o),
(339,99,o),
(375,235,cs),
(409,365,o),
(444,467,o),
(444,495,cs),
(444,510,o),
(435,516,o),
(418,516,cs),
(368,516,o),
(373,459,o),
(355,459,cs),
(333,459,o),
(332,515,o),
(286,515,cs),
(201,515,o),
(18,327,o),
(18,110,cs),
(18,33,o),
(61,-13,o),
(105,-13,cs),
(177,-13,o),
(217,90,o),
(244,90,cs),
(252,90,o),
(257,83,o),
(257,72,cs),
(257,44,o),
(236,-11,o),
(216,-59,cs),
(179,-148,o),
(117,-183,o),
(117,-212,cs),
(117,-238,o),
(146,-245,o),
(176,-245,cs)
);
},
{
closed = 1;
nodes = (
(120,108,o),
(105,144,o),
(105,191,cs),
(105,293,o),
(184,417,o),
(254,417,cs),
(288,417,o),
(308,387,o),
(308,346,cs),
(308,245,o),
(226,108,o),
(152,108,cs)
);
}
);
width = 446;
}
);
metricLeft = o;
unicode = 113;
},
{
glyphname = r;
lastChange = "2025-05-28 11:40:26 +0000";
layers = (
{
associatedMasterId = m01;
backgroundImage = {
angle = 1;
imagePath = "/Downloads/Images/r-Regular.tif";
locked = 1;
pos = (-70,-123);
scale = (2.965,2.965);
};
layerId = "AAA33269-26B3-4F28-B062-0AD98BFF15E5";
name = "3 oct. 24 à 14:37";
shapes = (
{
alignment = -1;
pos = (6,0);
ref = entree;
},
{
closed = 1;
nodes = (
(109,200,l),
(185,480,l),
(203,481,l),
(203,448,o),
(192,415,o),
(192,402,cs),
(192,395,o),
(196,389,o),
(206,389,cs),
(234,389,o),
(296,516,o),
(367,516,cs),
(391,516,o),
(405,497,o),
(405,469,cs),
(405,421,o),
(346,323,o),
(303,323,cs),
(278,323,o),
(280,360,o),
(255,360,cs),
(214,360,o),
(134,291,o),
(128,188,c)
);
},
{
pos = (-21,0);
ref = pied;
}
);
width = 374;
},
{
anchors = (
{
name = bottom;
pos = (84,-10);
},
{
name = ogonek;
pos = (221,0);
},
{
name = top;
pos = (264,500);
}
);
background = {
shapes = (
{
closed = 1;
nodes = (
(140,291,o),
(214,360,o),
(255,360,cs),
(280,360,o),
(277,323,o),
(302,323,cs),
(345,323,o),
(406,421,o),
(407,469,cs),
(408,497,o),
(394,516,o),
(370,516,cs),
(299,516,o),
(235,389,o),
(207,389,cs),
(197,389,o),
(193,395,o),
(193,402,cs),
(193,415,o),
(205,448,o),
(205,481,c),
(187,480,l),
(113,200,l),
(132,188,l)
);
},
{
closed = 1;
nodes = (
(106,-14,o),
(129,16,o),
(161,46,cs),
(188,71,o),
(225,94,o),
(225,125,cs),
(225,138,o),
(219,147,o),
(207,147,cs),
(193,147,o),
(168,126,o),
(151,126,cs),
(136,126,o),
(132,142,o),
(132,174,cs),
(132,288,o),
(206,414,o),
(206,483,cs),
(206,495,o),
(204,516,o),
(186,516,cs),
(150,516,o),
(148,467,o),
(112,444,cs),
(91,430,o),
(55,423,o),
(55,394,cs),
(55,368,o),
(86,358,o),
(86,294,cs),
(86,231,o),
(30,113,o),
(30,50,cs),
(30,9,o),
(54,-14,o),
(78,-14,cs)
);
}
);
};
layerId = m01;
name = Regular;
shapes = (
{
closed = 1;
nodes = (
(106,-14,o),
(129,17,o),
(161,47,cs),
(188,72,o),
(226,94,o),
(226,126,cs),
(226,138,o),
(220,148,o),
(208,148,cs),
(190,148,o),
(170,124,o),
(151,124,cs),
(136,124,o),
(131,143,o),
(131,174,cs),
(131,265,o),
(199,360,o),
(255,360,cs),
(280,360,o),
(277,323,o),
(302,323,cs),
(345,323,o),
(407,421,o),
(407,469,cs),
(407,497,o),
(394,516,o),
(370,516,cs),
(299,516,o),
(239,388,o),
(204,388,cs),
(195,388,o),
(190,395,o),
(190,405,cs),
(190,426,o),
(206,456,o),
(206,481,cs),
(206,495,o),
(204,516,o),
(186,516,cs),
(150,516,o),
(148,467,o),
(112,444,cs),
(91,430,o),
(55,423,o),
(55,394,cs),
(55,368,o),
(86,358,o),
(86,294,cs),
(86,231,o),
(30,113,o),
(30,50,cs),
(30,9,o),
(54,-14,o),
(78,-14,cs)
);
}
);
width = 368;
},
{
anchors = (
{
name = bottom;
pos = (171,0);
},
{
name = ogonek;
pos = (221,0);
},
{
name = top;
pos = (257,500);
}
);
associatedMasterId = m01;
background = {
shapes = (
{
closed = 1;
nodes = (
(140,291,o),
(214,360,o),
(255,360,cs),
(280,360,o),
(277,323,o),
(302,323,cs),
(345,323,o),
(406,421,o),
(407,469,cs),
(408,497,o),
(394,516,o),
(370,516,cs),
(299,516,o),
(235,389,o),
(207,389,cs),
(197,389,o),
(193,395,o),
(193,402,cs),
(193,415,o),
(205,448,o),
(205,481,c),
(187,480,l),
(113,200,l),
(132,188,l)
);
},
{
closed = 1;
nodes = (
(106,-14,o),
(129,16,o),
(161,46,cs),
(188,71,o),
(225,94,o),
(225,125,cs),
(225,138,o),
(219,147,o),
(207,147,cs),
(193,147,o),
(168,126,o),
(151,126,cs),
(136,126,o),
(132,142,o),
(132,174,cs),
(132,288,o),
(206,414,o),
(206,483,cs),
(206,495,o),
(204,516,o),
(186,516,cs),
(150,516,o),
(148,467,o),
(112,444,cs),
(91,430,o),
(55,423,o),
(55,394,cs),
(55,368,o),
(86,358,o),
(86,294,cs),
(86,231,o),
(30,113,o),
(30,50,cs),
(30,9,o),
(54,-14,o),
(78,-14,cs)
);
}
);
};
layerId = "B601014E-AFC9-4A87-9A74-0E8EDC54C55B";
name = "8 janv. 25 à 14:43";
shapes = (
{
closed = 1;
nodes = (
(106,-14,o),
(129,16,o),
(161,46,cs),
(188,71,o),
(225,94,o),
(225,125,cs),
(225,138,o),
(219,147,o),
(207,147,cs),
(193,147,o),
(168,126,o),
(151,126,cs),
(136,126,o),
(132,142,o),
(132,174,cs),
(132,182,o),
(132,190,o),
(133,199,cs),
(145,295,o),
(215,360,o),
(255,360,cs),
(280,360,o),
(277,323,o),
(302,323,cs),
(345,323,o),
(406,421,o),
(407,469,cs),
(408,497,o),
(394,516,o),
(370,516,cs),
(299,516,o),
(235,389,o),
(207,389,cs),
(197,389,o),
(193,395,o),
(193,402,cs),
(193,419,o),
(206,456,o),
(206,481,cs),
(206,495,o),
(204,516,o),
(186,516,cs),
(150,516,o),
(148,467,o),
(112,444,cs),
(91,430,o),
(55,423,o),
(55,394,cs),
(55,368,o),
(86,358,o),
(86,294,cs),
(86,231,o),
(30,113,o),
(30,50,cs),
(30,9,o),
(54,-14,o),
(78,-14,cs)
);
}
);
width = 368;
}
);
metricLeft = n;
unicode = 114;
},
{
glyphname = s;
lastChange = "2025-05-28 11:40:26 +0000";
layers = (
{
anchors = (
{
name = bottom;
pos = (144,-10);
},
{
name = top;
pos = (257,500);
}
);
layerId = m01;
shapes = (
{
closed = 1;
nodes = (
(179,-17,o),
(309,46,o),
(309,149,cs),
(309,244,o),
(170,339,o),
(170,401,cs),
(170,433,o),
(196,450,o),
(213,450,cs),
(242,450,o),
(255,425,o),
(262,404,cs),
(271,377,o),
(274,365,o),
(291,365,cs),
(311,365,o),
(363,398,o),
(363,459,cs),
(363,500,o),
(303,515,o),
(263,515,cs),
(167,515,o),
(83,425,o),
(83,365,cs),
(83,267,o),
(216,191,o),
(216,112,cs),
(216,74,o),
(187,59,o),
(164,59,cs),
(134,59,o),
(109,87,o),
(102,124,cs),
(97,149,o),
(94,164,o),
(80,164,cs),
(58,164,o),
(1,126,o),
(1,82,cs),
(1,38,o),
(68,-17,o),
(134,-17,cs)
);
}
);
width = 372;
},
{
associatedMasterId = m01;
backgroundImage = {
imagePath = "/Downloads/Images/s-Regular.tif";
locked = 1;
pos = (-58,-79);
scale = (2.9648,2.9648);
};
layerId = "BCAD2AEF-0D4B-4EA8-90F4-202E583DEEA0";
name = "23 oct. 24 à 14:36";
shapes = (
{
closed = 1;
nodes = (
(191,-17,o),
(315,46,o),
(315,149,cs),
(315,244,o),
(179,339,o),
(179,401,cs),
(179,433,o),
(205,450,o),
(222,450,cs),
(251,450,o),
(261,425,o),
(268,404,cs),
(277,377,o),
(280,365,o),
(297,365,cs),
(317,365,o),
(369,398,o),
(369,459,cs),
(369,500,o),
(309,515,o),
(272,515,cs),
(176,515,o),
(95,425,o),
(95,365,cs),
(95,267,o),
(225,191,o),
(225,112,cs),
(225,74,o),
(199,59,o),
(176,59,cs),
(146,59,o),
(121,87,o),
(114,124,cs),
(109,149,o),
(106,164,o),
(92,164,cs),
(70,164,o),
(13,126,o),
(13,82,cs),
(13,38,o),
(80,-17,o),
(146,-17,cs)
);
}
);
width = 388;
},
{
associatedMasterId = m01;
backgroundImage = {
imagePath = "/Downloads/Images/s-Regular.tif";
locked = 1;
pos = (-58,-79);
scale = (2.9648,2.9648);
};
layerId = "0C65CD12-7614-46B0-9101-6093DD19DE16";
name = "23 oct. 24 à 14:21";
shapes = (
{
closed = 1;
nodes = (
(205,-17,o),
(315,46,o),
(315,146,cs),
(315,246,o),
(171,339,o),
(171,401,cs),
(171,433,o),
(200,450,o),
(217,450,cs),
(246,450,o),
(255,425,o),
(261,404,cs),
(271,370,o),
(278,365,o),
(291,365,cs),
(314,365,o),
(364,398,o),
(364,459,cs),
(364,500,o),
(304,515,o),
(267,515,cs),
(149,515,o),
(98,420,o),
(98,341,cs),
(98,262,o),
(228,195,o),
(228,111,cs),
(228,78,o),
(212,65,o),
(194,65,cs),
(165,65,o),
(118,99,o),
(118,138,cs),
(118,156,o),
(107,164,o),
(95,164,cs),
(73,164,o),
(16,126,o),
(16,82,cs),
(16,38,o),
(103,-17,o),
(152,-17,cs)
);
}
);
width = 388;
}
);
unicode = 115;
},
{
glyphname = scedilla;
lastChange = "2025-05-28 11:40:26 +0000";
layers = (
{
anchors = (
{
name = bottom;
pos = (163,-200);
},
{
name = top;
pos = (257,500);
}
);
background = {
shapes = (
{
closed = 1;
nodes = (
(-62,-220,o),
(-38,-244,o),
(12,-244,cs),
(86,-244,o),
(169,-150,o),
(169,-98,cs),
(169,-62,o),
(120,-67,o),
(120,-40,cs),
(120,-19,o),
(157,-16,o),
(178,-7,cs),
(234,15,o),
(309,71,o),
(309,149,cs),
(309,244,o),
(170,339,o),
(170,401,cs),
(170,433,o),
(196,450,o),
(213,450,cs),
(242,450,o),
(255,425,o),
(262,404,cs),
(271,377,o),
(274,365,o),
(291,365,cs),
(311,365,o),
(363,398,o),
(363,459,cs),
(363,500,o),
(303,515,o),
(263,515,cs),
(167,515,o),
(83,425,o),
(83,365,cs),
(83,267,o),
(216,191,o),
(216,112,cs),
(216,74,o),
(187,59,o),
(164,59,cs),
(134,59,o),
(109,87,o),
(102,124,cs),
(97,149,o),
(94,164,o),
(80,164,cs),
(58,164,o),
(1,126,o),
(1,82,cs),
(1,53,o),
(30,19,o),
(69,-1,cs),
(77,-5,o),
(80,-8,o),
(80,-14,cs),
(80,-30,o),
(25,-34,o),
(25,-58,cs),
(25,-88,o),
(83,-81,o),
(83,-125,cs),
(83,-159,o),
(58,-178,o),
(36,-178,cs),
(15,-178,o),
(2,-159,o),
(-23,-159,cs),
(-49,-159,o),
(-62,-178,o),
(-62,-195,cs)
);
}
);
};
layerId = m01;
shapes = (
{
closed = 1;
nodes = (
(-62,-220,o),
(-38,-244,o),
(12,-244,cs),
(86,-244,o),
(169,-150,o),
(169,-98,cs),
(169,-62,o),
(120,-67,o),
(120,-40,cs),
(120,-19,o),
(157,-16,o),
(195,-1,cs),
(234,15,o),
(309,71,o),
(309,149,cs),
(309,244,o),
(170,339,o),
(170,401,cs),
(170,433,o),
(196,450,o),
(213,450,cs),
(242,450,o),
(255,425,o),
(262,404,cs),
(271,377,o),
(274,365,o),
(291,365,cs),
(311,365,o),
(363,398,o),
(363,459,cs),
(363,500,o),
(303,515,o),
(263,515,cs),
(167,515,o),
(83,425,o),
(83,365,cs),
(83,267,o),
(216,191,o),
(216,112,cs),
(216,74,o),
(187,59,o),
(164,59,cs),
(134,59,o),
(109,87,o),
(102,124,cs),
(97,149,o),
(94,164,o),
(80,164,cs),
(58,164,o),
(1,126,o),
(1,82,cs),
(1,22,o),
(80,5,o),
(80,-14,cs),
(80,-30,o),
(25,-34,o),
(25,-58,cs),
(25,-88,o),
(83,-81,o),
(83,-125,cs),
(83,-159,o),
(58,-178,o),
(36,-178,cs),
(15,-178,o),
(2,-159,o),
(-23,-159,cs),
(-49,-159,o),
(-62,-178,o),
(-62,-195,cs)
);
}
);
width = 372;
}
);
unicode = 351;
},
{
glyphname = germandbls;
lastChange = "2025-05-28 11:40:26 +0000";
layers = (
{
layerId = m01;
shapes = (
{
closed = 1;
nodes = (
(325,477,o),
(320,365,cs),
(315,267,o),
(418,192,o),
(418,112,cs),
(418,74,o),
(389,59,o),
(366,59,cs),
(336,59,o),
(311,87,o),
(304,124,cs),
(299,149,o),
(296,164,o),
(282,164,cs),
(260,164,o),
(203,126,o),
(203,82,cs),
(203,38,o),
(270,-17,o),
(336,-17,cs),
(381,-17,o),
(511,46,o),
(511,149,cs),
(511,244,o),
(401,329,o),
(406,389,cs),
(411,459,o),
(605,505,o),
(605,617,cs),
(605,697,o),
(530,736,o),
(466,736,cs),
(363,736,o),
(216,652,o),
(157,505,cs),
(149,485,o),
(139,460,o),
(114,444,cs),
(93,430,o),
(58,423,o),
(58,394,cs),
(58,365,o),
(90,368,o),
(90,284,cs),
(90,177,o),
(41,-50,o),
(-36,-104,cs),
(-75,-131,o),
(-129,-123,o),
(-155,-123,cs),
(-181,-123,o),
(-213,-142,o),
(-213,-185,cs),
(-213,-200,o),
(-198,-245,o),
(-162,-245,cs),
(-101,-245,o),
(57,-153,o),
(110,7,cs),
(142,102,o),
(167,295,o),
(209,426,cs),
(248,548,o),
(308,660,o),
(408,660,cs),
(462,660,o),
(489,624,o),
(489,592,cs),
(489,500,o)
);
}
);
width = 576;
},
{
associatedMasterId = m01;
layerId = "C5ECEBA4-90FF-48F8-BD17-761FD1293200";
name = "6 févr. 25 à 15:55";
shapes = (
{
closed = 1;
nodes = (
(360,477,o),
(360,365,cs),
(360,267,o),
(463,192,o),
(463,112,cs),
(463,74,o),
(434,59,o),
(411,59,cs),
(381,59,o),
(356,87,o),
(349,124,cs),
(344,149,o),
(341,164,o),
(327,164,cs),
(305,164,o),
(248,126,o),
(248,82,cs),
(248,38,o),
(315,-17,o),
(381,-17,cs),
(426,-17,o),
(556,46,o),
(556,149,cs),
(556,244,o),
(446,329,o),
(446,389,cs),
(446,459,o),
(643,505,o),
(643,617,cs),
(643,697,o),
(549,736,o),
(471,736,cs),
(363,736,o),
(216,652,o),
(157,505,cs),
(149,485,o),
(139,460,o),
(114,444,cs),
(93,430,o),
(58,423,o),
(58,394,cs),
(58,365,o),
(90,368,o),
(90,284,cs),
(90,177,o),
(41,-50,o),
(-36,-104,cs),
(-75,-131,o),
(-129,-123,o),
(-155,-123,cs),
(-181,-123,o),
(-213,-142,o),
(-213,-185,cs),
(-213,-200,o),
(-198,-245,o),
(-162,-245,cs),
(-101,-245,o),
(57,-153,o),
(110,7,cs),
(142,102,o),
(167,295,o),
(209,426,cs),
(248,548,o),
(318,660,o),
(428,660,cs),
(494,660,o),
(528,622,o),
(528,583,cs),
(528,499,o)
);
}
);
width = 622;
}
);
metricLeft = f;
unicode = 223;
},
{
glyphname = longs;
lastChange = "2025-05-28 11:40:26 +0000";
layers = (
{
layerId = m01;
shapes = (
{
closed = 1;
nodes = (
(-101,-245,o),
(57,-153,o),
(110,7,cs),
(142,102,o),
(167,295,o),
(209,426,cs),
(237,514,o),
(255,567,o),
(295,595,cs),
(334,622,o),
(388,614,o),
(414,614,cs),
(440,614,o),
(472,633,o),
(472,676,cs),
(472,691,o),
(457,736,o),
(421,736,cs),
(363,736,o),
(216,652,o),
(157,505,cs),
(149,485,o),
(139,460,o),
(114,444,cs),
(93,430,o),
(58,423,o),
(58,394,cs),
(58,365,o),
(90,368,o),
(90,284,cs),
(90,177,o),
(41,-50,o),
(-36,-104,cs),
(-75,-131,o),
(-129,-123,o),
(-155,-123,cs),
(-181,-123,o),
(-213,-142,o),
(-213,-185,cs),
(-213,-200,o),
(-198,-245,o),
(-162,-245,cs)
);
}
);
width = 250;
}
);
metricLeft = f;
unicode = 383;
},
